<?xml version="1.0" standalone="no"?>
<!DOCTYPE svg PUBLIC "-//W3C//DTD SVG 1.1//EN" "http://www.w3.org/Graphics/SVG/1.1/DTD/svg11.dtd" >
<svg>
<metadata>
Created by FontForge 20090914 at Fri Oct  1 12:14:53 2021
 By www-data
Copyright (c) 2013 by Type Dynamic. All rights reserved.
</metadata>
<defs>
<font id="Larsseit-Regular" horiz-adv-x="244" >
  <font-face 
    font-family="Larsseit"
    font-weight="400"
    font-stretch="normal"
    units-per-em="1000"
    panose-1="0 0 5 0 0 0 0 0 0 0"
    ascent="766"
    descent="-234"
    x-height="504"
    cap-height="700"
    bbox="-194 -274.001 3002 980"
    underline-thickness="50"
    underline-position="-50"
    unicode-range="U+0020-U+FB01"
  />
<missing-glyph horiz-adv-x="597" 
d="M532 700v-700h-467v700h467zM139 647l158 -252l158 252h-316zM327 346l153 -241v482zM118 110l148 236l-148 236v-472zM143 53h308l-154 244z" />
    <glyph glyph-name="fi" unicode="fi" horiz-adv-x="568" 
d="M314 727v-78c-18.667 8 -39 12 -61 12c-40.667 0 -61 -27.333 -61 -82v-75h122v-79h-122v-425h-87v425h-95v79h95v77c0 50 12.5 88.833 37.5 116.5s60.833 41.5 107.5 41.5c24 0 45.333 -4 64 -12zM487.5 618c-11.667 -11.333 -25.834 -17 -42.501 -17
s-30.667 5.66699 -42 17s-17 25 -17 41c0 16.667 5.66699 30.667 17 42s25.333 17 42 17s30.834 -5.66699 42.501 -17s17.5 -25.333 17.5 -42c0 -16 -5.83301 -29.667 -17.5 -41zM488 0h-86v504h86v-504z" />
    <glyph glyph-name=".notdef" horiz-adv-x="597" 
d="M532 700v-700h-467v700h467zM139 647l158 -252l158 252h-316zM327 346l153 -241v482zM118 110l148 236l-148 236v-472zM143 53h308l-154 244z" />
    <glyph glyph-name="space" unicode=" " horiz-adv-x="206" 
 />
    <glyph glyph-name="exclam" unicode="!" 
d="M165 200h-86v500h86v-500zM167.5 7c-12.333 -12 -27.501 -18 -45.501 -18c-17.333 0 -32.166 6 -44.499 18s-18.5 26.667 -18.5 44c0 18 6 32.833 18 44.5s27 17.5 45 17.5s33.167 -5.83301 45.5 -17.5s18.5 -26.5 18.5 -44.5c0 -17.333 -6.16699 -32 -18.5 -44z" />
    <glyph glyph-name="quotedbl" unicode="&#x22;" horiz-adv-x="312" 
d="M103 516h-57l-7 207h84zM259 516h-57l-7 207h84z" />
    <glyph glyph-name="numbersign" unicode="#" horiz-adv-x="657" 
d="M596 183h-135l-32 -183h-86l32 183h-155l-32 -183h-86l32 183h-119v80h133l34 196h-121v80h135l29 161h86l-29 -161h155l29 161h86l-29 -161h119v-80h-133l-34 -196h121v-80zM234 263h155l34 196h-155z" />
    <glyph glyph-name="dollar" unicode="$" horiz-adv-x="544" 
d="M312 710c50.667 -7.33301 90.334 -27.6641 119.001 -60.9971s43.667 -78 45 -134h-92c-1.33301 58 -25.333 94.333 -72 109v-233c67.333 -25.333 115 -53 143 -83c28.667 -28.667 43 -68 43 -118c0 -57.333 -16.833 -103.833 -50.5 -139.5
s-78.834 -56.167 -135.501 -61.5v-90h-69v90c-60.667 6.66699 -107.834 29.167 -141.501 67.5s-51.167 88.166 -52.5 149.499h92c1.33301 -76.667 35.333 -121.334 102 -134.001v247c-61.333 23.333 -105.666 49.833 -132.999 79.5s-41 69.5 -41 119.5
c0 52.667 15.5 96.667 46.5 132s73.5 55.666 127.5 60.999v90h69v-91zM179.5 464.002c12.333 -15.333 33.5 -30.001 63.5 -44.001v209c-26 -4.66699 -46.167 -16 -60.5 -34s-21.5 -41.333 -21.5 -70c0 -25.333 6.16699 -45.666 18.5 -60.999zM384 245.001
c-14.667 16.667 -38.667 32.334 -72 47.001v-222c30 5.33301 53.167 18.166 69.5 38.499s24.5 45.5 24.5 75.5c0 24 -7.33301 44.333 -22 61z" />
    <glyph glyph-name="percent" unicode="%" horiz-adv-x="843" 
d="M318 663c32 -32.667 48 -73.999 48 -123.999c0 -49.333 -16 -90.666 -48 -123.999c-32 -32.667 -72 -49 -120 -49c-48.667 0 -89 16.333 -121 49c-31.333 33.333 -47 74.666 -47 123.999s15.667 90.666 47 123.999c32 33.333 72.333 50 121 50c48 0 88 -16.667 120 -50z
M259 0.000976562h-95l420 700h95zM129 613.501c-18 -19.667 -27 -44.5 -27 -74.5c0 -29.333 9 -53.833 27 -73.5s41 -29.5 69 -29.5c27.333 0 49.833 9.83301 67.5 29.5s26.5 44.167 26.5 73.5c0 30 -8.83301 54.833 -26.5 74.5s-40.167 29.5 -67.5 29.5
c-28 0 -51 -9.83301 -69 -29.5zM765 284.001c32.667 -32.667 49 -74.334 49 -125.001c0 -49.333 -16 -90.666 -48 -123.999c-32 -32 -72 -48 -120 -48c-48.667 0 -89 16 -121 48c-32 33.333 -48 74.666 -48 123.999c0 50.667 16 92.334 48 125.001
c32 33.333 72.333 50 121 50c47.333 0 87 -16.667 119 -50zM577 234.501c-18 -19.667 -27 -44.5 -27 -74.5c0 -29.333 9 -53.833 27 -73.5s41 -29.5 69 -29.5c27.333 0 49.833 9.83301 67.5 29.5s26.5 44.167 26.5 73.5c0 30 -8.83301 54.833 -26.5 74.5
s-40.167 29.5 -67.5 29.5c-28 0 -51 -9.83301 -69 -29.5z" />
    <glyph glyph-name="ampersand" unicode="&#x26;" horiz-adv-x="636" 
d="M400.5 669c32.333 -29.333 48.499 -68.335 48.499 -117.002c0 -24.667 -3.5 -46.167 -10.5 -64.5s-18.5 -35.166 -34.5 -50.499c-14 -14 -27.667 -26 -41 -36c-7.33301 -5.33301 -24.666 -16.333 -51.999 -33l-2 -1l147 -162c4.66699 20.667 7.33398 35.667 8.00098 45
c2 14 3 28 3 42c0 25.333 -3 49.333 -9 72l84 7c6.66699 -27.333 10 -56.666 10 -87.999c0 -19.333 -0.666992 -33.666 -2 -42.999c-4 -36.667 -14 -71.667 -30 -105l123 -135h-117l-57 63c-51.333 -50.667 -116.666 -76 -195.999 -76
c-72.667 0 -130.334 17.5 -173.001 52.5s-64 83.167 -64 144.5c0 42 11 77.667 33 107s56 57.666 102 84.999l9 5l-17 19c-44.667 48.667 -67 98.667 -67 150c0 47.333 16 86.333 48 117c31.333 30.667 74.666 46 129.999 46c52 0 94.167 -14.667 126.5 -44z
M239.999 442.998l14.999 -17.001l4 2c38.667 22.667 63.667 40.334 75 53.001c16.667 18.667 25 41 25 67s-7.66699 47 -23 63s-35.666 24 -60.999 24c-26 0 -47.333 -7.83301 -64 -23.5s-25 -36.167 -25 -61.5c0 -31.333 18 -67 54 -107zM413.998 122.997l-180 199l-4 -2
c-36 -21.333 -62 -42 -78 -62s-24 -44 -24 -72c0 -39.333 13 -69.333 39 -90s62.333 -31 109 -31c58 0 104 19.333 138 58z" />
    <glyph glyph-name="quotesingle" unicode="'" horiz-adv-x="156" 
d="M103 516h-57l-7 207h84z" />
    <glyph glyph-name="parenleft" unicode="(" horiz-adv-x="274" 
d="M263 693c-46 -57.333 -79.667 -115.333 -101 -174c-20.667 -56 -31 -122 -31 -198s10.333 -142 31 -198c21.333 -58.667 55 -116.667 101 -174l-62 -43c-52 64 -90.5 129 -115.5 195s-37.5 139.333 -37.5 220s12.5 154 37.5 220s63.5 131 115.5 195z" />
    <glyph glyph-name="parenright" unicode=")" horiz-adv-x="274" 
d="M188.5 539c25 -65.333 37.5 -138 37.5 -218s-12.5 -152.667 -37.5 -218s-63.5 -131 -115.5 -197l-62 43c46 57.333 79.667 115.333 101 174c20.667 56 31 122 31 198s-10.333 142 -31 198c-21.333 58.667 -55 116.667 -101 174l62 43c52 -66 90.5 -131.667 115.5 -197z
" />
    <glyph glyph-name="asterisk" unicode="*" horiz-adv-x="353" 
d="M207 613l114 41l22 -62l-117 -37l76 -100l-53 -39l-72 101l-71 -101l-53 38l74 99l-117 37l20 63l115 -40l-2 125h66z" />
    <glyph glyph-name="plus" unicode="+" horiz-adv-x="472" 
d="M276 389h166v-78h-166v-167h-80v167h-166v78h166v167h80v-167z" />
    <glyph glyph-name="comma" unicode="," horiz-adv-x="198" 
d="M142 92c11.333 -12 16.999 -27.666 16.999 -46.999c0 -29.333 -6.66699 -59.833 -20 -91.5s-31 -59.834 -53 -84.501l-28 11c18.667 31.333 30.334 69 35.001 113c-16 1.33301 -29 7.33301 -39 18s-15 24 -15 40c0 16.667 5.83301 30.667 17.5 42s25.834 17 42.501 17
c17.333 0 31.666 -6 42.999 -18z" />
    <glyph glyph-name="hyphen" unicode="-" horiz-adv-x="365" 
d="M340 221h-315v77h315v-77z" />
    <glyph glyph-name="period" unicode="." horiz-adv-x="202" 
d="M145.5 7c-12.333 -12 -27.167 -18 -44.5 -18c-18 0 -33 6 -45 18s-18 26.667 -18 44c0 18 6 32.833 18 44.5s27 17.5 45 17.5s33 -5.83301 45 -17.5s18 -26.5 18 -44.5c0 -17.333 -6.16699 -32 -18.5 -44z" />
    <glyph glyph-name="slash" unicode="/" horiz-adv-x="390" 
d="M90 0h-85l295 700h85z" />
    <glyph glyph-name="zero" unicode="0" horiz-adv-x="557" 
d="M452 85c-41.333 -65.333 -99 -98.001 -173 -98.001c-74.667 0 -132.667 32.667 -174 98c-40.667 64.667 -61 153.334 -61 266.001c0 112 20.333 200.333 61 265s98.667 97 174 97c74 0 131.667 -32.667 173 -98s62 -153.333 62 -264c0 -112 -20.667 -200.667 -62 -266z
M173 554.999c-24.667 -48.667 -37 -116.667 -37 -204c0 -88 12.333 -156.5 37 -205.5s60 -73.5 106 -73.5c45.333 0 80.333 24.5 105 73.5s37 117.5 37 205.5c0 87.333 -12.333 155.333 -37 204s-59.667 73 -105 73c-46 0 -81.333 -24.333 -106 -73z" />
    <glyph glyph-name="one" unicode="1" horiz-adv-x="342" 
d="M266 0h-91.001v536h-147v78c54.667 0 94.334 6.16699 119.001 18.5s41 34.833 49 67.5h70v-700z" />
    <glyph glyph-name="two" unicode="2" horiz-adv-x="487" 
d="M391 661.5c34 -34.333 51 -81.833 51 -142.5c0 -64 -28.333 -132.333 -85 -205l-179 -229h275v-85h-400v67l225 284c26.667 34.667 45.334 63.667 56.001 87s16 49.333 16 78c0 74.667 -34.667 112 -104 112c-34 0 -60.667 -11 -80 -33s-29 -54.333 -29 -97h-91
c0 66 18.167 118.333 54.5 157s85.166 58 146.499 58c62 0 110 -17.167 144 -51.5z" />
    <glyph glyph-name="three" unicode="3" horiz-adv-x="532" 
d="M430.5 417.5c-18.333 -26.333 -41.8311 -44.499 -70.498 -54.499c35.333 -8.66699 64.5 -28.5 87.5 -59.5s34.5 -68.833 34.5 -113.5c0 -60 -20 -109 -60 -147c-40.667 -37.333 -93 -56 -157 -56c-68.667 0 -122.667 18.833 -162 56.5s-59 90.167 -59 157.5h90
c0.666992 -42.667 12.667 -74.834 36 -96.501s55.666 -32.5 96.999 -32.5c36.667 0 66.334 11 89.001 33s34 51.333 34 88c0 42 -14.333 74 -43 96s-69.334 33 -122.001 33h-23v80h22c49.333 0 85.333 9 108 27s34 46.333 34 85c0 36 -9 64 -27 84s-44 30 -78 30
c-33.333 0 -60.166 -10.833 -80.499 -32.5s-30.5 -52.834 -30.5 -93.501h-91c0 64.667 18.167 116 54.5 154s85.166 57 146.499 57s109.666 -18.667 144.999 -56s53 -84.333 53 -141c0 -39.333 -9.16699 -72.166 -27.5 -98.499z" />
    <glyph glyph-name="four" unicode="4" horiz-adv-x="541" 
d="M413 226h98v-83h-98v-143h-91v143h-293v75l276 482h108v-474zM301 527l-172 -302h194v345z" />
    <glyph glyph-name="five" unicode="5" horiz-adv-x="533" 
d="M459 615l-285.002 0.000976562v-203c29.333 17.333 67.333 26 114 26c62.667 0 113 -19.667 151 -59c38 -38.667 57 -91.667 57 -159c0 -69.333 -20 -125.333 -60 -168c-39.333 -43.333 -92.666 -65 -159.999 -65c-66.667 0 -119 17.667 -157 53s-57 85.666 -57 150.999
h91c0.666992 -39.333 11.834 -69 33.501 -89s51.834 -30 90.501 -30c39.333 0 70.333 13.167 93 39.5s34 61.5 34 105.5c0 42 -11.333 75.167 -34 99.5s-54.334 36.5 -95.001 36.5c-42 0 -79.333 -10.667 -112 -32h-81v379h377v-85z" />
    <glyph glyph-name="six" unicode="6" horiz-adv-x="546" 
d="M429 660c37.333 -35.333 57.333 -82.001 60 -140.001h-92c-6.66699 72 -43.667 108 -111 108c-47.333 0 -82.833 -21.5 -106.5 -64.5s-36.167 -110.167 -37.5 -201.5c12.667 20 32.5 36.667 59.5 50s55.833 20 86.5 20c66 0 118.667 -20.667 158 -62
c38.667 -40.667 58 -93 58 -157c0 -65.333 -20 -119.666 -60 -162.999c-40 -42 -93 -63 -159 -63c-69.333 0 -124.333 23.333 -165 70c-46.667 52.667 -70 144.334 -70 275.001c0 127.333 19.5 222.666 58.5 285.999s99.167 95 180.5 95c56 0 102.667 -17.667 140 -53z
M189 307.999c-26 -24.667 -39 -56.333 -39 -95c0 -37.333 12.333 -70.333 37 -99s56.667 -43 96 -43c38 0 68.833 13.167 92.5 39.5s35.5 59.833 35.5 100.5c0 38.667 -12 71 -36 97s-54.667 39 -92 39c-36.667 0 -68 -13 -94 -39z" />
    <glyph glyph-name="seven" unicode="7" horiz-adv-x="487" 
d="M455 626l-281 -626h-99l276 613h-313v87h417v-74z" />
    <glyph glyph-name="eight" unicode="8" horiz-adv-x="546" 
d="M449 419.5c-16.667 -27 -37 -46.8359 -61 -59.5029c31.333 -14 57.166 -35.167 77.499 -63.5s30.5 -63.166 30.5 -104.499c0 -59.333 -21.333 -108.333 -64 -147s-95.667 -58 -159 -58c-64 0 -117.333 19.333 -160 58s-64 87.667 -64 147c0 40.667 10 75.834 30 105.501
s46 50.5 78 62.5c-24 12.667 -44.167 32.5 -60.5 59.5s-24.5 59.167 -24.5 96.5c0 56.667 18.333 103.334 55 140.001c36.667 38 85.334 57 146.001 57c60 0 108.333 -19 145 -57c37.333 -37.333 56 -84 56 -140c0 -37.333 -8.33301 -69.5 -25 -96.5zM193 432.497
c20.667 -20.333 47.334 -30.5 80.001 -30.5s59.334 10.167 80.001 30.5s31 47.5 31 81.5s-10.333 61.667 -31 83s-47.334 32 -80.001 32s-59.334 -10.667 -80.001 -32s-31 -49 -31 -83s10.333 -61.167 31 -81.5zM179 284.497c-25.333 -23 -38.001 -53.167 -38.001 -90.5
c0 -36.667 12.667 -66.667 38 -90c26 -22 57.333 -33 94 -33c37.333 0 68.333 11 93 33c25.333 23.333 38 53.333 38 90c0 37.333 -13 67.333 -39 90c-25.333 23.333 -56 35 -92 35c-37.333 0 -68.666 -11.5 -93.999 -34.5z" />
    <glyph glyph-name="nine" unicode="9" horiz-adv-x="546" 
d="M115 39c-36 34.667 -55.667 81.667 -59 141h92c7.33301 -72 44.333 -108 111 -108c47.333 0 82.833 21.333 106.5 64s36.167 109.667 37.5 201c-14 -20 -34.167 -36.5 -60.5 -49.5s-54.833 -19.5 -85.5 -19.5c-66 0 -118.667 20.667 -158 62
c-38.667 40.667 -58 93 -58 157c0 66 20 120 60 162c40 42.667 93 64 159 64c69.333 0 124.333 -23.333 165 -70c46.667 -52.667 70 -144.334 70 -275.001c0 -127.333 -19.5 -222.666 -58.5 -285.999s-99.167 -95 -180.5 -95c-57.333 0 -104.333 17.333 -141 52zM356 391
c26 26 39 58 39 96c0 37.333 -12.333 70.333 -37 99s-56.667 43 -96 43c-38 0 -68.833 -13.167 -92.5 -39.5s-35.5 -59.833 -35.5 -100.5c0 -38.667 12 -71 36 -97s54.667 -39 92 -39c36 0 67.333 12.667 94 38z" />
    <glyph glyph-name="colon" unicode=":" horiz-adv-x="202" 
d="M145.5 497c12.333 -12 18.5 -27 18.5 -45c0 -17.333 -6.16699 -32 -18.5 -44s-27.166 -18 -44.499 -18c-18 0 -33 6 -45 18s-18 26.667 -18 44c0 18 6 33 18 45s27 18 45 18c17.333 0 32.166 -6 44.499 -18zM145.5 7c-12.333 -12 -27.167 -18 -44.5 -18
c-18 0 -33 6 -45 18s-18 26.667 -18 44c0 18 6 32.833 18 44.5s27 17.5 45 17.5s33 -5.83301 45 -17.5s18 -26.5 18 -44.5c0 -17.333 -6.16699 -32 -18.5 -44z" />
    <glyph glyph-name="semicolon" unicode=";" horiz-adv-x="202" 
d="M145.5 497c12.333 -12 18.5 -27 18.5 -45c0 -17.333 -6.16699 -32 -18.5 -44s-27.166 -18 -44.499 -18c-18 0 -33 6 -45 18s-18 26.667 -18 44c0 18 6 33 18 45s27 18 45 18c17.333 0 32.166 -6 44.499 -18zM143.5 92c11.667 -12 17.498 -27.666 17.498 -46.999
c0 -29.333 -6.66699 -59.833 -20 -91.5s-31 -59.834 -53 -84.501l-28 11c18.667 31.333 30.334 69 35.001 113c-16 1.33301 -29.167 7.33301 -39.5 18s-15.5 24 -15.5 40c0 16.667 5.83301 30.667 17.5 42s26.167 17 43.5 17c16.667 0 30.834 -6 42.501 -18z" />
    <glyph glyph-name="less" unicode="&#x3c;" horiz-adv-x="258" 
d="M94 250l151 -195h-87l-145 187v17l145 187h87z" />
    <glyph glyph-name="equal" unicode="=" horiz-adv-x="472" 
d="M442 413h-412v77h412v-77zM442 208h-412v77h412v-77z" />
    <glyph glyph-name="greater" unicode="&#x3e;" horiz-adv-x="258" 
d="M245 259v-17l-145 -187h-87l151 195l-151 196h87z" />
    <glyph glyph-name="question" unicode="?" horiz-adv-x="415" 
d="M344 665c38.667 -34 58 -80.6689 58 -140.002c0 -31.333 -5.33301 -60.166 -16 -86.499s-24.334 -48.166 -41.001 -65.499c-3.33301 -4 -15 -15 -35 -33c-23.333 -22 -40.666 -40.5 -51.999 -55.5s-17 -31.5 -17 -49.5v-35h-87v38c0 22.667 5.33301 44 16 64
s24.667 37.667 42 53l16 15c28.667 24.667 50.834 48 66.501 70s23.5 49.333 23.5 82c0 38.667 -10.333 68.5 -31 89.5s-48.334 31.5 -83.001 31.5c-37.333 0 -66.5 -11 -87.5 -33s-31.5 -53.333 -31.5 -94h-83c0.666992 63.333 19.667 112.333 57 147
c38.667 35.333 86.667 53 144 53c56 0 103 -17 141 -51zM242.5 6.99805c-12.333 -12 -27.167 -18 -44.5 -18c-18 0 -33 6 -45 18s-18 26.667 -18 44c0 18 6 32.833 18 44.5s27 17.5 45 17.5s33 -5.83301 45 -17.5s18 -26.5 18 -44.5c0 -17.333 -6.16699 -32 -18.5 -44z" />
    <glyph glyph-name="at" unicode="@" horiz-adv-x="808" 
d="M670 500c67.333 -69.333 101.001 -157.333 101.001 -264c0 -66.667 -13.833 -117.5 -41.5 -152.5s-62.834 -52.5 -105.501 -52.5c-51.333 0 -85 21 -101 63c-30 -42.667 -76.667 -64 -140 -64c-55.333 0 -100.333 19.333 -135 58c-34 38.667 -51 87.667 -51 147
s17 108.333 51 147c35.333 39.333 80 59 134 59c32 0 59.5 -6.66699 82.5 -20s39.833 -30.666 50.5 -51.999l4 63h66v-285c0 -37.333 15.667 -56 47 -56c47.333 0 71 48.333 71 145c0 88.667 -27.333 161.334 -82 218.001c-54 57.333 -125.667 86 -215 86
c-90.667 0 -163.667 -28.667 -219 -86c-54.667 -56.667 -82 -129.334 -82 -218.001c0 -89.333 27.333 -162.333 82 -219c55.333 -57.333 128.333 -86 219 -86c48.667 0 94 10 136 30l21 -62c-48 -21.333 -100.333 -32 -157 -32c-110.667 0 -200 34.667 -268 104
c-67.333 69.333 -101 157.666 -101 264.999c0 108 33.667 196.333 101 265c68 68.667 157.333 103 268 103c108.667 0 196.667 -34.667 264 -104zM306.501 334c-22.333 -25.333 -33.5 -58.333 -33.5 -99c0 -40 10.833 -72.5 32.5 -97.5s50.5 -37.5 86.5 -37.5
c34.667 0 63.5 11.333 86.5 34s34.5 52.667 34.5 90v18c0 38.667 -11.5 70 -34.5 94s-51.167 36 -84.5 36c-36 0 -65.167 -12.667 -87.5 -38z" />
    <glyph glyph-name="A" unicode="A" horiz-adv-x="692" 
d="M674 0h-100l-74 185h-309l-73 -185h-100l281 700h94zM332 545l-110 -275h247l-111 275l-13 38z" />
    <glyph glyph-name="B" unicode="B" horiz-adv-x="571" 
d="M433 648.5c39.333 -34.333 59.002 -80.5029 59.002 -138.503c0 -62 -25 -109.667 -75 -143c37.333 -13.333 66.333 -34.666 87 -63.999s31 -63.666 31 -102.999c0 -40 -9.5 -75.167 -28.5 -105.5s-45.833 -53.666 -80.5 -69.999s-75.334 -24.5 -122.001 -24.5h-226v700
h195c67.333 0 120.666 -17.167 159.999 -51.5zM169.002 398.997h108.001c37.333 0 67.166 9.66699 89.499 29s33.5 45 33.5 77c0 35.333 -11.167 62.5 -33.5 81.5s-53.5 28.5 -93.5 28.5h-104v-216zM169.003 84.9971l134.998 -0.000976562
c42.667 0 76.334 10.333 101.001 31s37 49.334 37 86.001c0 35.333 -12.167 63 -36.5 83s-58.166 30 -101.499 30h-135v-230z" />
    <glyph glyph-name="C" unicode="C" horiz-adv-x="728" 
d="M586.5 655c53.667 -38.667 90.498 -93.0029 110.498 -163.003h-101c-32.667 90.667 -102.667 136 -210 136c-74 0 -134.333 -26.333 -181 -79c-46.667 -51.333 -70 -117.666 -70 -198.999c0 -80 23.333 -146.333 70 -199s107.334 -79 182.001 -79
c54 0 99.333 12.333 136 37s62.334 58.667 77.001 102h98c-20 -72 -56.667 -127.333 -110 -166s-120.333 -58 -201 -58c-102 0 -185.333 34.333 -250 103s-97 155.334 -97 260.001s32.333 191.334 97 260.001s147.667 103 249 103c80 0 146.833 -19.333 200.5 -58z" />
    <glyph glyph-name="D" unicode="D" horiz-adv-x="729" 
d="M588 604c64.667 -64 97 -148.667 97 -254s-32.333 -190 -97 -254c-64 -64 -150 -96 -258 -96h-252v700h252c108 0 194 -32 258 -96zM169 85h161c80.667 0 144.5 23.667 191.5 71s70.5 112 70.5 194c0 82.667 -23.333 147.5 -70 194.5s-110.667 70.5 -192 70.5h-161v-530z
" />
    <glyph glyph-name="E" unicode="E" horiz-adv-x="510" 
d="M463 615h-294v-212h259v-85h-259v-233h294v-85h-385v700h385v-85z" />
    <glyph glyph-name="F" unicode="F" horiz-adv-x="481" 
d="M455 615h-286v-221h243v-86h-243v-308h-91v700h377v-85z" />
    <glyph glyph-name="G" unicode="G" horiz-adv-x="753" 
d="M586.5 655c53.667 -38.667 90.501 -93.002 110.501 -163.002h-101c-32.667 90.667 -103 136 -211 136c-73.333 0 -133.333 -26.333 -180 -79c-46.667 -51.333 -70 -117.666 -70 -198.999c0 -80 23.333 -146.333 70 -199s107.667 -79 183 -79
c67.333 0 120.666 17.333 159.999 52s60 84.667 62 150h-210v85h306v-47c0 -102 -28.333 -181.667 -85 -239c-57.333 -57.333 -135 -86 -233 -86c-102 0 -185.333 34.333 -250 103c-65.333 69.333 -98 156 -98 260c0 104.667 32.333 191.334 97 260.001s147.667 103 249 103
c80 0 146.833 -19.333 200.5 -58z" />
    <glyph glyph-name="H" unicode="H" horiz-adv-x="708" 
d="M630 0h-91v319h-370v-319h-91v700h91v-295h370v295h91v-700z" />
    <glyph glyph-name="I" unicode="I" horiz-adv-x="247" 
d="M169 0h-91v700h91v-700z" />
    <glyph glyph-name="J" unicode="J" horiz-adv-x="500" 
d="M431 201c0 -68.667 -16.8311 -120.999 -50.498 -156.999s-82.167 -54 -145.5 -54c-66.667 0 -117.334 19.167 -152.001 57.5s-53.334 93.166 -56.001 164.499h91c4 -91.333 43 -137 117 -137c34 0 60 11.167 78 33.5s27 54.5 27 96.5v495h91v-499z" />
    <glyph glyph-name="K" unicode="K" horiz-adv-x="670" 
d="M354 391l297 -391h-111l-247 318l-118 -148v-170h-91v700h91v-396l301 396h112z" />
    <glyph glyph-name="L" unicode="L" horiz-adv-x="503" 
d="M168 85h312v-85h-403v700h91v-615z" />
    <glyph glyph-name="M" unicode="M" horiz-adv-x="875" 
d="M798 0h-91v521l-19 -52l-214 -469h-73l-213 469l-19 52v-521h-91v700h100l240 -514l19 -45l20 45l241 514h100v-700z" />
    <glyph glyph-name="N" unicode="N" horiz-adv-x="711" 
d="M634 0h-90l-348 502l-27 43v-545h-91v700h89l346 -500l30 -46v546h91v-700z" />
    <glyph glyph-name="O" unicode="O" horiz-adv-x="795" 
d="M654 610c67.333 -69.333 101 -155.666 101 -258.999c0 -104.667 -33.667 -191.667 -101 -261c-66.667 -68.667 -152 -103 -256 -103c-104.667 0 -190.334 34.333 -257.001 103c-67.333 69.333 -101 156.333 -101 261c0 103.333 33.667 189.666 101 258.999
c66.667 68.667 152.334 103 257.001 103c104 0 189.333 -34.333 256 -103zM208 549c-48.667 -51.333 -73 -117.332 -73 -197.999s24.333 -147.334 73 -200.001s112 -79 190 -79c76.667 0 139.334 26.333 188.001 79c49.333 53.333 74 120 74 200
c0 79.333 -24.667 145.333 -74 198c-48.667 52.667 -111.334 79 -188.001 79c-78 0 -141.333 -26.333 -190 -79z" />
    <glyph glyph-name="P" unicode="P" horiz-adv-x="538" 
d="M452 640c41.333 -39.333 62 -91.001 62 -155.001c0 -63.333 -20.667 -114.666 -62 -153.999c-40.667 -38.667 -96.334 -58 -167.001 -58h-116v-273h-91v700h207c70.667 0 126.334 -20 167.001 -60zM169 357.999h116c42 0 75.333 11.333 100 34s37 53.667 37 93
c0 40 -12.5 71.667 -37.5 95s-58.167 35 -99.5 35h-116v-257z" />
    <glyph glyph-name="Q" unicode="Q" horiz-adv-x="792" 
d="M654 610c67.333 -69.333 101 -155.666 101 -258.999c0 -118 -41.333 -212 -124 -282l172 -173h-127l-124 123c-50 -21.333 -101.333 -32 -154 -32c-104.667 0 -190.334 34.333 -257.001 103c-67.333 69.333 -101 156.333 -101 261c0 103.333 33.667 189.666 101 258.999
c66.667 68.667 152.334 103 257.001 103c104 0 189.333 -34.333 256 -103zM208 549c-48.667 -51.333 -72.999 -117.332 -72.999 -197.999s24.333 -147.334 73 -200.001s112 -79 190 -79c32.667 0 61.667 4.33301 87 13l-132 130h128l86 -83c62 53.333 93 126.333 93 219
c0 79.333 -24.667 145.333 -74 198c-48.667 52.667 -111.334 79 -188.001 79c-78 0 -141.333 -26.333 -190 -79z" />
    <glyph glyph-name="R" unicode="R" horiz-adv-x="548" 
d="M436 642.5c41.333 -38.333 62 -89.5 62 -153.5c0 -46 -11.667 -85.5 -35 -118.5s-56 -56.833 -98 -71.5l163 -299h-104l-153 284h-102v-284h-91v700h191c70 0 125.667 -19.167 167 -57.5zM169 366l100 0.000976562c42 0 75.333 11 100 33s37 52 37 90
c0 39.333 -12.333 70.166 -37 92.499s-58 33.5 -100 33.5h-100v-249z" />
    <glyph glyph-name="S" unicode="S" horiz-adv-x="528" 
d="M411.5 661.5c36.333 -34.333 55.166 -83.167 56.499 -146.5h-92c-0.666992 36 -11.334 64.333 -32.001 85s-48.334 31 -83.001 31c-33.333 0 -59.666 -9.33301 -78.999 -28s-29 -44.667 -29 -78c0 -31.333 9.66699 -55.666 29 -72.999
c20.667 -16.667 57.334 -35.334 110.001 -56.001c72.667 -27.333 123.667 -55.666 153 -84.999c30 -30 45 -70.333 45 -121c0 -62 -19.833 -111.333 -59.5 -148s-92.167 -55 -157.5 -55c-71.333 0 -127.5 19.667 -168.5 59s-62.167 92.666 -63.5 159.999h92
c0.666992 -44 13.334 -78 38.001 -102s59 -36 103 -36c39.333 0 69.833 10.5 91.5 31.5s32.5 49.167 32.5 84.5c0 29.333 -11 53.5 -33 72.5s-60 37.833 -114 56.5c-64.667 24 -112.667 50.667 -144 80c-30.667 30 -46 71.667 -46 125c0 56 17.667 102.667 53 140
c36 36.667 85.667 55 149 55c62.667 0 112.167 -17.167 148.5 -51.5z" />
    <glyph glyph-name="T" unicode="T" horiz-adv-x="607" 
d="M597 615h-248v-615h-91v615h-248v85h587v-85z" />
    <glyph glyph-name="U" unicode="U" horiz-adv-x="687" 
d="M618 277c0 -93.333 -23.667 -165 -71 -215s-115 -75 -203 -75s-155.833 25 -203.5 75s-71.5 121.667 -71.5 215v423h91v-423c0 -136.667 61.333 -205 184 -205c60 0 105.5 17.333 136.5 52s46.5 85.667 46.5 153v423h91v-423z" />
    <glyph glyph-name="V" unicode="V" horiz-adv-x="680" 
d="M382 0h-83l-283 700h98l212 -529l14 -45l14 45l212 529h98z" />
    <glyph glyph-name="W" unicode="W" horiz-adv-x="988" 
d="M746 0h-90l-151 486l-11 47l-11 -47l-151 -486h-90l-223 700h96l162 -509l12 -50l10 50l156 509h78l156 -509l10 -50l12 50l162 509h96z" />
    <glyph glyph-name="X" unicode="X" horiz-adv-x="682" 
d="M402 357l253 -357h-108l-206 288l-205 -288h-108l252 357l-242 343h109l194 -273l195 273h108z" />
    <glyph glyph-name="Y" unicode="Y" horiz-adv-x="674" 
d="M383 265v-265h-92v265l-277 435h107l189 -294l26 -47l27 47l190 294h107z" />
    <glyph glyph-name="Z" unicode="Z" horiz-adv-x="590" 
d="M542 627l-387 -542h399v-85h-517v73l389 542h-385v85h501v-73z" />
    <glyph glyph-name="bracketleft" unicode="[" horiz-adv-x="287" 
d="M262 637h-109v-635h109v-79h-192v793h192v-79z" />
    <glyph glyph-name="backslash" unicode="\" horiz-adv-x="390" 
d="M385 0h-85l-295 700h85z" />
    <glyph glyph-name="bracketright" unicode="]" horiz-adv-x="287" 
d="M217 -77h-192v79h109v635h-109v79h192v-793z" />
    <glyph glyph-name="asciicircum" unicode="^" horiz-adv-x="539" 
d="M520 462h-92l-159 190l-157 -190h-93l250 299z" />
    <glyph glyph-name="underscore" unicode="_" horiz-adv-x="635" 
d="M610 -78h-585v78h585v-78z" />
    <glyph glyph-name="grave" unicode="`" horiz-adv-x="245" 
d="M235 574h-82l-143 158h113z" />
    <glyph glyph-name="a" unicode="a" horiz-adv-x="494" 
d="M380.5 468c31.667 -31.333 47.5 -76 47.5 -134v-334h-78l-4 69c-14 -24.667 -34.333 -44.167 -61 -58.5s-57.334 -21.5 -92.001 -21.5c-44.667 0 -80.334 12.833 -107.001 38.5s-40 60.167 -40 103.5c0 79.333 47 128 141 146l154 29v25c0 69.333 -31 104 -93 104
c-30.667 0 -55.5 -8.16699 -74.5 -24.5s-28.5 -38.833 -28.5 -67.5h-85c0.666992 49.333 18.667 90.333 54 123c34.667 32.667 79.334 49 134.001 49c56.667 0 100.834 -15.667 132.501 -47zM203 201c-23.333 -6 -40.833 -14.168 -52.5 -24.501s-17.5 -25.166 -17.5 -44.499
c0 -20 6.66699 -35.5 20 -46.5s32.333 -16.5 57 -16.5c44 0 78 16.667 102 50c19.333 26.667 29 57.667 29 93v19z" />
    <glyph glyph-name="b" unicode="b" horiz-adv-x="601" 
d="M162 435c35.333 53.333 91.333 80 168 80c70.667 0 127.334 -25 170.001 -75c44 -50 66 -112.667 66 -188s-21.667 -138.333 -65 -189c-43.333 -49.333 -100 -74 -170 -74c-76.667 0 -134.334 28.333 -173.001 85l-5 -74h-77v730h86v-295zM207 383
c-30.667 -32.667 -46 -76.332 -46 -130.999v-5c0 -52.667 15.333 -95.334 46 -128.001s67.667 -49 111 -49c48 0 86.5 16.833 115.5 50.5s43.5 77.5 43.5 131.5s-15 97.333 -45 130c-30 34 -68.333 51 -115 51c-42 0 -78.667 -16.667 -110 -50z" />
    <glyph glyph-name="c" unicode="c" horiz-adv-x="544" 
d="M426 471c40 -29.333 65.999 -70.6689 77.999 -124.002h-86c-10 28 -27.167 49.667 -51.5 65s-52.833 23 -85.5 23c-45.333 0 -83 -17.333 -113 -52c-29.333 -35.333 -44 -79.333 -44 -132c0 -51.333 15 -94.666 45 -129.999c30 -34.667 68 -52 114 -52
c32 0 60.333 8 85 24s41.334 37.333 50.001 64h87c-13.333 -53.333 -40 -94.666 -80 -123.999s-88.333 -44 -145 -44c-71.333 0 -130 24.667 -176 74s-69 112 -69 188s23 139 69 189c47.333 50 106 75 176 75c57.333 0 106 -14.667 146 -44z" />
    <glyph glyph-name="d" unicode="d" horiz-adv-x="601" 
d="M525 0l-76.999 -0.000976562l-5 74c-38.667 -56.667 -96.334 -85 -173.001 -85c-70 0 -126.667 24.667 -170 74c-43.333 50.667 -65 113.667 -65 189c0 74.667 21.667 137.334 65 188.001c44 50 101 75 171 75c76.667 0 132.667 -26.667 168 -80v295h86v-730z
M169.001 381.999c-30 -32.667 -45.002 -76 -45.002 -130s14.5 -97.833 43.5 -131.5s67.5 -50.5 115.5 -50.5c42.667 0 79.334 16.333 110.001 49c31.333 33.333 47 76 47 128v5c0 54 -15.667 97.667 -47 131s-67.666 50 -108.999 50c-46.667 0 -85 -17 -115 -51z" />
    <glyph glyph-name="e" unicode="e" horiz-adv-x="553" 
d="M445 448c41.333 -44.667 62 -107.668 62 -189.001v-41h-383c3.33301 -46 19.166 -82.333 47.499 -109s64.5 -40 108.5 -40c70 0 115.333 27.333 136 82h86c-16 -51.333 -43.167 -91.166 -81.5 -119.499s-85.833 -42.5 -142.5 -42.5c-71.333 0 -129.666 24 -174.999 72
c-45.333 48.667 -68 112 -68 190c0 77.333 22.333 140.333 67 189c45.333 50 104 75 176 75c70 0 125.667 -22.333 167 -67zM174 396.499c-27.333 -25.667 -43.667 -59.5 -49 -101.5h295c-0.666992 42.667 -14 76.667 -40 102s-60 38 -102 38s-76.667 -12.833 -104 -38.5z
" />
    <glyph glyph-name="f" unicode="f" horiz-adv-x="332" 
d="M324 727l-0.000976562 -78c-18.667 8 -39 12 -61 12c-47.333 0 -71 -27.333 -71 -82v-75h125v-79h-125v-425h-87v425h-91v79h91v77c0 50 13.167 88.833 39.5 116.5s63.5 41.5 111.5 41.5c26.667 0 49.334 -4 68.001 -12z" />
    <glyph glyph-name="g" unicode="g" horiz-adv-x="501" 
d="M506 428l-87.999 -0.00195312c16.667 -27.333 25 -58.666 25 -93.999c0 -51.333 -17.667 -94 -53 -128c-34.667 -34 -81 -51 -139 -51c-40.667 0 -77 9 -109 27c-13.333 -13.333 -20 -30 -20 -50c0 -16 5.83301 -28.5 17.5 -37.5s27.167 -13.5 46.5 -13.5h134
c52 0 91.5 -11.833 118.5 -35.5s40.5 -57.5 40.5 -101.5c0 -53.333 -18.833 -95 -56.5 -125s-88.834 -45 -153.501 -45c-70.667 0 -125 13.667 -163 41s-57 66 -57 116c0 40.667 18.333 71 55 91c-19.333 10 -35.333 24.333 -48 43s-19 39.334 -19 62.001
c0 44 17.333 78.333 52 103c-21.333 29.333 -32 64 -32 104c0 52.667 17.667 96 53 130c36 34 83 51 141 51c24 0 48 -3.66699 72 -11h183v-76zM172.001 259.998c20 -19.333 46 -29 78 -29s58 9.66699 78 29s30 44 30 74c0 30.667 -10 55.834 -30 75.501s-46 29.5 -78 29.5
s-58 -9.83301 -78 -29.5s-30 -44.834 -30 -75.501c0 -30 10 -54.667 30 -74zM153.501 -15.002c-13 -12 -19.501 -29 -19.501 -51c0 -27.333 11.833 -48.166 35.5 -62.499s56.834 -21.5 99.501 -21.5c40 0 70.833 7.66699 92.5 23s32.5 37.666 32.5 66.999
c0 43.333 -30.333 65 -91 65h-96c-22.667 -1.33301 -40.5 -8 -53.5 -20z" />
    <glyph glyph-name="h" unicode="h" horiz-adv-x="532" 
d="M162 441c10.667 22 28.168 39.833 52.501 53.5s52.833 20.5 85.5 20.5c52 0 92.333 -17 121 -51s43 -80 43 -138v-326h-87v312c0 38 -8.66699 67.333 -26 88s-41.333 31 -72 31c-34.667 0 -62.834 -14.5 -84.501 -43.5s-32.5 -68.167 -32.5 -117.5v-270h-86v730h86v-289z
" />
    <glyph glyph-name="i" unicode="i" 
d="M164.5 618c-11.667 -11.333 -25.834 -17 -42.501 -17s-30.667 5.66699 -42 17s-17 25 -17 41c0 16.667 5.66699 30.667 17 42s25.333 17 42 17s30.834 -5.66699 42.501 -17s17.5 -25.333 17.5 -42c0 -16 -5.83301 -29.667 -17.5 -41zM165 0h-86v504h86v-504z" />
    <glyph glyph-name="j" unicode="j" 
d="M164.5 618c-11.667 -11.333 -25.834 -17 -42.501 -17s-30.667 5.66699 -42 17s-17 25 -17 41c0 16.667 5.66699 30.667 17 42s25.333 17 42 17s30.834 -5.66699 42.501 -17s17.5 -25.333 17.5 -42c0 -16 -5.83301 -29.667 -17.5 -41zM165 -55c0 -114 -50 -171 -150 -171
c-26 0 -48 2.66699 -66 8v79c17.333 -5.33301 35 -8 53 -8c28 0 47.833 7.5 59.5 22.5s17.5 38.833 17.5 71.5v557h86v-559z" />
    <glyph glyph-name="k" unicode="k" horiz-adv-x="500" 
d="M168 268l189 236h105l-163 -209l189 -295h-99l-150 229l-71 -86v-143h-86v730h86v-462z" />
    <glyph glyph-name="l" unicode="l" 
d="M165 0h-86v730h86v-730z" />
    <glyph glyph-name="m" unicode="m" horiz-adv-x="828" 
d="M717.5 464c28.333 -34 42.5 -80 42.5 -138v-326h-86v312c0 38 -8.5 67.333 -25.5 88s-40.833 31 -71.5 31c-34 0 -61.667 -13.833 -83 -41.5s-32.333 -65.167 -33 -112.5v-277h-86v312c0 38 -8.5 67.333 -25.5 88s-40.833 31 -71.5 31c-34.667 0 -62.667 -14.5 -84 -43.5
s-32 -68.167 -32 -117.5v-270h-86v504h77l5 -69c12.667 24 31.167 43.333 55.5 58s52.5 22 84.5 22c72 0 121 -32 147 -96c33.333 64 84 96 152 96c52 0 92.167 -17 120.5 -51z" />
    <glyph glyph-name="n" unicode="n" horiz-adv-x="532" 
d="M421 464c28.667 -34 43.001 -80 43.001 -138v-326h-87v312c0 38 -8.66699 67.333 -26 88s-41.333 31 -72 31c-34.667 0 -62.834 -14.5 -84.501 -43.5s-32.5 -68.167 -32.5 -117.5v-270h-86v504h77l5 -69c28 53.333 75.333 80 142 80c52 0 92.333 -17 121 -51z" />
    <glyph glyph-name="o" unicode="o" horiz-adv-x="582" 
d="M474 441c48 -48.667 72 -111.667 72 -189c0 -76.667 -24 -139.667 -72 -189c-47.333 -49.333 -108.333 -74 -183 -74c-75.333 0 -137 24.667 -185 74c-47.333 49.333 -71 112.333 -71 189s23.667 139.667 71 189c48 49.333 109.667 74 185 74
c74.667 0 135.667 -24.667 183 -74zM170 383c-30.667 -33.333 -46 -77 -46 -131c0 -52.667 15.333 -96.334 46 -131.001s71.334 -52 122.001 -52c49.333 0 89 17.333 119 52c30.667 34.667 46 78.334 46 131.001c0 54 -15.333 97.667 -46 131c-30 34.667 -69.667 52 -119 52
c-50.667 0 -91.334 -17.333 -122.001 -52z" />
    <glyph glyph-name="p" unicode="p" horiz-adv-x="609" 
d="M508 440c43.333 -49.333 64.998 -112 64.998 -188c0 -75.333 -22 -138 -66 -188c-43.333 -50 -100 -75 -170 -75c-38 0 -71.5 7.16699 -100.5 21.5s-51.167 33.833 -66.5 58.5v-284h-87v719h78l4 -74c38.667 56.667 96.334 85 173.001 85
c70.667 0 127.334 -25 170.001 -75zM213.998 385c-30.667 -32.667 -46 -75.332 -46 -127.999v-5c0 -54.667 15.333 -98.334 46 -131.001c31.333 -33.333 68 -50 110 -50c46.667 0 85 16.667 115 50c30 34 45 77.667 45 131c0 54 -14.5 97.833 -43.5 131.5
s-67.5 50.5 -115.5 50.5c-43.333 0 -80.333 -16.333 -111 -49z" />
    <glyph glyph-name="q" unicode="q" horiz-adv-x="609" 
d="M443 430l4.99902 73.999h77v-719h-86v284c-35.333 -53.333 -91.333 -80 -168 -80c-70 0 -127 25 -171 75c-43.333 50.667 -65 113.334 -65 188.001c0 76 21.667 138.667 65 188c43.333 50 100 75 170 75c76.667 0 134.334 -28.333 173.001 -85zM167.499 383.499
c-29 -33.667 -43.498 -77.5 -43.498 -131.5c0 -53.333 15 -97 45 -131c30 -33.333 68.333 -50 115 -50c41.333 0 77.666 16.667 108.999 50s47 77 47 131v5c0 52 -15.667 94.667 -47 128c-30.667 32.667 -67.334 49 -110.001 49c-48 0 -86.5 -16.833 -115.5 -50.5z" />
    <glyph glyph-name="r" unicode="r" horiz-adv-x="340" 
d="M316 423c-41.333 0 -75.334 -12.3311 -102.001 -36.998c-29.333 -26.667 -44.666 -66.334 -45.999 -119.001v-267h-86v504h77l6 -88c10 27.333 28.167 49.666 54.5 66.999s58.5 26 96.5 26v-86z" />
    <glyph glyph-name="s" unicode="s" horiz-adv-x="441" 
d="M337 471c30.667 -28.667 46.6699 -67 48.0029 -115h-88c-0.666992 52.667 -27.334 79 -80.001 79c-24.667 0 -43.667 -6.16699 -57 -18.5s-20 -28.833 -20 -49.5c0 -20 6.5 -35 19.5 -45s38.167 -19.333 75.5 -28c60 -14 102.5 -32.5 127.5 -55.5
s37.5 -54.833 37.5 -95.5c0 -47.333 -16.333 -84.833 -49 -112.5s-75.334 -41.5 -128.001 -41.5c-56.667 0 -101.167 14.667 -133.5 44s-49.166 69.333 -50.499 120h88c1.33301 -56 34 -84 98 -84c27.333 0 48.666 6.16699 63.999 18.5s23 28.833 23 49.5
c0 21.333 -7.33301 37.833 -22 49.5s-42.334 22.167 -83.001 31.5c-54.667 12.667 -94.167 30 -118.5 52s-36.5 52.667 -36.5 92c0 42.667 14.667 78.667 44 108c30 30 71 45 123 45c48 0 87.333 -14.667 118 -44z" />
    <glyph glyph-name="t" unicode="t" horiz-adv-x="350" 
d="M190 504h129.002v-80h-130l-2 -270c0 -30 5.16699 -51.167 15.5 -63.5s29.166 -18.5 56.499 -18.5c22 0 42 3 60 9v-77c-18.667 -7.33301 -43.667 -11 -75 -11c-48.667 0 -84.834 11.667 -108.501 35s-35.167 60 -34.5 110l2 286h-94v80h94l1 126h87z" />
    <glyph glyph-name="u" unicode="u" horiz-adv-x="528" 
d="M452 0l-77.002 -0.00195312l-5 69c-25.333 -53.333 -71.666 -80 -138.999 -80c-52 0 -92 16.833 -120 50.5s-42 79.834 -42 138.501v326h86v-312c0 -39.333 8.33301 -69.166 25 -89.499s40.334 -30.5 71.001 -30.5c34 0 61.667 13.667 83 41s32 64.333 32 111v280h86
v-504z" />
    <glyph glyph-name="v" unicode="v" horiz-adv-x="502" 
d="M294 0h-86l-192 504h92l133 -362l10 -38l10 38l133 362h93z" />
    <glyph glyph-name="w" unicode="w" horiz-adv-x="768" 
d="M592 0h-87l-122 360l-123 -360h-84l-160 504h92l105 -352l10 -46l11 46l113 352h74l113 -352l11 -46l10 46l105 352h92z" />
    <glyph glyph-name="x" unicode="x" horiz-adv-x="511" 
d="M313 260l175 -260h-102l-131 192l-130 -192h-102l174 260l-163 244h102l119 -176l120 176h102z" />
    <glyph glyph-name="y" unicode="y" horiz-adv-x="504" 
d="M212 -215h-91l84 222l-189 497h92l133 -362l10 -38l10 38l133 362h93z" />
    <glyph glyph-name="z" unicode="z" horiz-adv-x="459" 
d="M418 438l-268 -361h284v-77h-399v66l268 361h-266v77h381v-66z" />
    <glyph glyph-name="braceleft" unicode="{" horiz-adv-x="290" 
d="M265 637h-26c-43.333 0 -65 -24 -65 -72v-146c0 -52 -19.333 -85.333 -58 -100c38.667 -14.667 58 -47.667 58 -99v-146c0 -48 21.667 -72 65 -72h26v-79h-28c-46.667 0 -82.334 13 -107.001 39s-37 62.667 -37 110v137c0 48 -21.667 72 -65 72h-16v77h16
c43.333 0 65 24 65 72v137c0 47.333 12.333 84 37 110s60.334 39 107.001 39h28v-79z" />
    <glyph glyph-name="bar" unicode="|" horiz-adv-x="217" 
d="M150 -67h-82v793h82v-793z" />
    <glyph glyph-name="braceright" unicode="}" horiz-adv-x="290" 
d="M160 677c24.667 -26 37 -62.667 37 -110v-137c0 -48 21.667 -72 65 -72h16v-77h-16c-43.333 0 -65 -24 -65 -72v-137c0 -47.333 -12.333 -84 -37 -110s-60.334 -39 -107.001 -39h-28v79h26c43.333 0 65 24 65 72v146c0 51.333 19.333 84.333 58 99
c-38.667 14.667 -58 48 -58 100v146c0 48 -21.667 72 -65 72h-26v79h28c46.667 0 82.334 -13 107.001 -39z" />
    <glyph glyph-name="asciitilde" unicode="~" horiz-adv-x="570" 
d="M245.5 425.5c19.667 -9 35.833 -20.167 48.5 -33.5c32 -30.667 63.333 -46 94 -46c46.667 0 78.334 28 95.001 84l61 -30c-26.667 -88 -79 -132 -157 -132c-22 0 -43 4.5 -63 13.5s-36.333 19.833 -49 32.5c-12.667 13.333 -27.167 24.5 -43.5 33.5
s-32.833 13.5 -49.5 13.5c-46 0 -77.667 -28 -95 -84l-61 30c27.333 88 79.666 132 156.999 132c22 0 42.833 -4.5 62.5 -13.5z" />
    <glyph glyph-name="exclamdown" unicode="&#xa1;" 
d="M76.5 496c12.333 12 27.501 18 45.501 18c17.333 0 32.166 -6 44.499 -18s18.5 -26.667 18.5 -44c0 -18 -6 -32.833 -18 -44.5s-27 -17.5 -45 -17.5s-33.167 5.83301 -45.5 17.5s-18.5 26.5 -18.5 44.5c0 17.333 6.16699 32 18.5 44zM79.001 303h86v-500h-86v500z" />
    <glyph glyph-name="cent" unicode="&#xa2;" horiz-adv-x="544" 
d="M317 513c48 -6 88.499 -23.501 121.499 -52.501s54.833 -66.833 65.5 -113.5h-86c-17.333 47.333 -51 75.333 -101 84v-359c24.667 5.33301 45.834 15.5 63.501 30.5s30.167 33.167 37.5 54.5h87c-12 -48 -34.333 -86.333 -67 -115s-73 -45.667 -121 -51v-92h-70v92
c-62.667 6.66699 -113.667 34.334 -153 83.001s-59 107.667 -59 177s19.667 128.333 59 177c38.667 48.667 89.667 77 153 85v91h70v-91zM157.999 134.999c22.667 -32.667 52.334 -53.3311 89.001 -61.998v358c-36.667 -8.66699 -66.334 -29.334 -89.001 -62.001
s-34 -72 -34 -118c0 -44.667 11.333 -83.334 34 -116.001z" />
    <glyph glyph-name="sterling" unicode="&#xa3;" horiz-adv-x="508" 
d="M342 300l-135.001 -0.00195312c2.66699 -18.667 4 -35.334 4 -50.001c0 -48.667 -13.667 -94.667 -41 -138l-16 -26h174c30 0 52.167 7.33301 66.5 22s21.5 37.334 21.5 68.001h82c-0.666992 -56.667 -16 -100.167 -46 -130.5s-72.333 -45.5 -127 -45.5h-297v34l41 57
c36 50 54 103.667 54 161c0 13.333 -1.66699 29.333 -5 48h-101v69h80l-9 21l-16 44c-4 16.667 -7 30.334 -9 41.001s-3 23 -3 37c0 60.667 18.333 109.334 55 146.001s83.667 55 141 55c60 0 107 -16.667 141 -50s51.667 -81 53 -143h-84c0 34.667 -9.66699 62 -29 82
s-45.333 30 -78 30c-34 0 -60.667 -10.667 -80 -32s-29 -51.333 -29 -90c0 -23.333 2.66699 -44 8 -62c4.66699 -13.333 7.33398 -21.333 8.00098 -24l12 -29l10 -26h154v-69z" />
    <glyph glyph-name="currency" unicode="&#xa4;" horiz-adv-x="629" 
d="M600 494l-122 -121c22.667 -32.667 34 -69.667 34 -111s-11.667 -78.666 -35 -111.999l123 -121l-55 -55l-124 121c-34.667 -21.333 -70.334 -32 -107.001 -32c-36 0 -71.333 10.667 -106 32l-123 -121l-56 55l122 121c-22 33.333 -33 70.666 -33 111.999
s11 78.333 33 111l-122 121l56 56l122 -122c32.667 22.667 68.334 34 107.001 34c36.667 0 72.667 -11.333 108 -34l123 122zM402 169c23.333 25.333 35 56.333 35 93c0 38 -12 69.333 -36 94c-23.333 25.333 -52.333 38 -87 38s-63.667 -12.667 -87 -38
c-22.667 -24.667 -34 -56 -34 -94c0 -37.333 11.5 -68.333 34.5 -93s51.833 -37 86.5 -37c36 0 65.333 12.333 88 37z" />
    <glyph glyph-name="yen" unicode="&#xa5;" horiz-adv-x="663" 
d="M509 248h-131v-74h131v-69h-131v-105h-92v105h-133v69h133v74h-133v69h100l-244 383h107l189 -294l26 -47l27 47l190 294h107l-244 -383h98v-69z" />
    <glyph glyph-name="brokenbar" unicode="&#xa6;" horiz-adv-x="217" 
d="M150 446h-82v280h82v-280zM150 -67h-82v280h82v-280z" />
    <glyph glyph-name="section" unicode="&#xa7;" horiz-adv-x="508" 
d="M391.5 677.5c33.667 -28.333 51.165 -66.498 52.498 -114.498h-88c-0.666992 28 -9.83398 49.667 -27.501 65s-42.167 23 -73.5 23c-29.333 0 -52.166 -7.33301 -68.499 -22s-24.5 -33.667 -24.5 -57s9 -41.833 27 -55.5s48.333 -24.5 91 -32.5
c68 -12 116.833 -29.5 146.5 -52.5s44.5 -56.167 44.5 -99.5c0 -49.333 -26.333 -89.333 -79 -120c40 -24.667 60 -61.334 60 -110.001c0 -48 -18 -85.667 -54 -113c-34.667 -26.667 -80 -40 -136 -40c-60 0 -107.833 14.167 -143.5 42.5s-54.167 66.5 -55.5 114.5h89
c0 -28 9.83301 -49.667 29.5 -65s46.834 -23 81.501 -23c32.667 0 57.667 7.16699 75 21.5s26 33.5 26 57.5c0 22.667 -10.167 41 -30.5 55s-55.833 25.667 -106.5 35c-64 12 -111.333 29.833 -142 53.5s-46 55.834 -46 96.501c0 53.333 27.667 95.666 83 126.999
c-32 24 -48 58.333 -48 103c0 47.333 16.833 84.666 50.5 111.999s77.5 41 131.5 41c56.667 0 101.834 -14.167 135.501 -42.5zM317.998 242.002c44 19.333 66.001 46.667 66.001 82c0 26 -9.83301 45.667 -29.5 59s-56.167 25 -109.5 35
c-24.667 4.66699 -43.334 9 -56.001 13c-41.333 -18 -62 -45.667 -62 -83c0 -26.667 10 -47 30 -61c22 -13.333 60.333 -25 115 -35c14.667 -2.66699 30 -6 46 -10z" />
    <glyph glyph-name="dieresis" unicode="&#xa8;" horiz-adv-x="317" 
d="M291 673.5c10.667 -10.333 15.998 -23.166 15.998 -38.499s-5.33301 -28.166 -16 -38.499s-23.667 -15.5 -39 -15.5s-28.166 5.16699 -38.499 15.5s-15.5 23.166 -15.5 38.499s5.33301 28.166 16 38.499s23.334 15.5 38.001 15.5c15.333 0 28.333 -5.16699 39 -15.5z
M64.998 689c15.333 0 28 -5.33398 38 -16.001c10.667 -10 16 -22.667 16 -38s-5.33301 -28.333 -16 -39c-10 -10 -22.667 -15 -38 -15s-28.333 5 -39 15c-10.667 12 -16 25 -16 39c0 14.667 5.33301 27.334 16 38.001s23.667 16 39 16z" />
    <glyph glyph-name="copyright" unicode="&#xa9;" horiz-adv-x="588" 
d="M485 669c48.667 -50.667 73 -115 73 -193s-24.333 -142.333 -73 -193c-48 -50.667 -111.333 -76 -190 -76c-79.333 0 -143.333 25.333 -192 76s-73 115 -73 193s24.333 142.333 73 193s112.667 76 192 76c78.667 0 142 -25.333 190 -76zM146 323
c38 -40.667 87.667 -61 149 -61s110.333 20.333 147 61c38 41.333 57 92.333 57 153c0 61.333 -18.667 112.333 -56 153c-36.667 40.667 -86 61 -148 61c-61.333 0 -111 -20.333 -149 -61c-38 -40 -57 -91 -57 -153c0 -60.667 19 -111.667 57 -153zM426 523h-68
c-10.667 26 -30.667 39 -60 39c-23.333 0 -42 -7.83301 -56 -23.5s-21 -36.5 -21 -62.5s7 -47 21 -63s32.667 -24 56 -24c32.667 0 54 14.333 64 43h65c-15.333 -67.333 -58.333 -101 -129 -101c-42 0 -76.333 13.667 -103 41s-40 62 -40 104s13.333 76.667 40 104
s61 41 103 41c68 0 110.667 -32.667 128 -98z" />
    <glyph glyph-name="ordfeminine" unicode="&#xaa;" horiz-adv-x="381" 
d="M288 678c23.333 -21.333 35.002 -52 35.002 -92v-227h-61l-3 42c-26 -32.667 -62 -49 -108 -49c-32 0 -57.5 8.5 -76.5 25.5s-28.5 40.167 -28.5 69.5c0 54.667 34.667 88.667 104 102l104 20v15c0 42 -21.667 63 -65 63c-20 0 -36 -4.83301 -48 -14.5
s-18 -23.5 -18 -41.5h-68c1.33301 35.333 14.166 64 38.499 86s56.166 33 95.499 33c42.667 0 75.667 -10.667 99 -32zM162.002 494c-31.333 -6 -47.001 -20.333 -47.001 -43c0 -11.333 4.33301 -20.5 13 -27.5s20.334 -10.5 35.001 -10.5c32.667 0 57 10.333 73 31
c12 15.333 18 32 18 50v18z" />
    <glyph glyph-name="guillemotleft" unicode="&#xab;" horiz-adv-x="457" 
d="M94 250l140 -195h-87l-134 187v17l134 187h87zM304 250l140 -195h-87l-134 187v17l134 187h87z" />
    <glyph glyph-name="logicalnot" unicode="&#xac;" horiz-adv-x="581" 
d="M544 157h-64v209h-441v66h505v-275z" />
    <glyph glyph-name="registered" unicode="&#xae;" horiz-adv-x="588" 
d="M485 669c48.667 -50.667 73 -115 73 -193s-24.333 -142.333 -73 -193c-48 -50.667 -111.333 -76 -190 -76c-79.333 0 -143.333 25.333 -192 76s-73 115 -73 193s24.333 142.333 73 193s112.667 76 192 76c78.667 0 142 -25.333 190 -76zM146 323
c38 -40.667 87.667 -61 149 -61s110.333 20.333 147 61c38 41.333 57 92.333 57 153c0 61.333 -18.667 112.333 -56 153c-36.667 40.667 -86 61 -148 61c-61.333 0 -111 -20.333 -149 -61c-38 -40 -57 -91 -57 -153c0 -60.667 19 -111.667 57 -153zM372.5 590
c18.333 -16.667 27.5 -38.668 27.5 -66.001c0 -35.333 -16 -60.666 -48 -75.999l60 -113h-72l-50 102h-30v-102h-63v280h102c30.667 0 55.167 -8.33301 73.5 -25zM260 484.999h35c28 0 42 12.667 42 38c0 26 -14 39 -42 39h-35v-77z" />
    <glyph glyph-name="overscore" unicode="&#xaf;" horiz-adv-x="282" 
d="M272 595h-262v71h262v-71z" />
    <glyph glyph-name="degree" unicode="&#xb0;" horiz-adv-x="343" 
d="M278 681c28 -27.333 42 -62.667 42 -106c0 -44 -14 -79.5 -42 -106.5s-64 -40.5 -108 -40.5c-41.333 0 -76.666 13.667 -105.999 41c-28 26.667 -42 62 -42 106s14 79.333 42 106c29.333 27.333 64.666 41 105.999 41c44 0 80 -13.667 108 -41zM110.5 636.499
c-15.667 -15.667 -23.5 -36.167 -23.5 -61.5s7.83301 -45.833 23.5 -61.5s35.5 -23.5 59.5 -23.5c24.667 0 45.167 7.83301 61.5 23.5s24.5 36.167 24.5 61.5s-8.16699 45.833 -24.5 61.5s-36.833 23.5 -61.5 23.5c-24 0 -43.833 -7.83301 -59.5 -23.5z" />
    <glyph glyph-name="plusminus" unicode="&#xb1;" horiz-adv-x="472" 
d="M276 477h166v-78h-166v-167h-80v167h-166v78h166v167h80v-167zM442 87h-412v78h412v-78z" />
    <glyph glyph-name="two.sups" unicode="&#xb2;" horiz-adv-x="322" 
d="M253.5 777c21.667 -20 32.5 -47.333 32.5 -82c0 -38.667 -17.333 -76.667 -52 -114l-96 -107h151v-66h-248v51l131 147c28.667 30.667 43 58.667 43 84c0 34.667 -18 52 -54 52c-16.667 0 -30.167 -5.33301 -40.5 -16s-15.5 -25.667 -15.5 -45h-70
c0 38 11.667 68.5 35 91.5s54 34.5 92 34.5c39.333 0 69.833 -10 91.5 -30z" />
    <glyph glyph-name="three.sups" unicode="&#xb3;" horiz-adv-x="350" 
d="M281 642c-10 -14 -23.335 -23.998 -40.002 -29.998c20.667 -6.66699 37.334 -17.834 50.001 -33.501s19 -35.5 19 -59.5c0 -36 -12.333 -64.667 -37 -86s-57 -32 -97 -32c-43.333 0 -77.166 10.833 -101.499 32.5s-36.5 52.167 -36.5 91.5h70
c0 -19.333 6.16699 -34.166 18.5 -44.499s29.166 -15.5 50.499 -15.5c18.667 0 33.834 5.16699 45.501 15.5s17.5 24.166 17.5 41.499c0 40 -28 60 -84 60h-20v57h19c47.333 0 71 17.667 71 53c0 15.333 -4.66699 27.666 -14 36.999s-22.333 14 -39 14
s-30.334 -5 -41.001 -15s-16 -24 -16 -42h-70c0 38 11.333 67.667 34 89s53.334 32 92.001 32c38 0 68.167 -10.5 90.5 -31.5s33.5 -48.167 33.5 -81.5c0 -20.667 -5 -38 -15 -52z" />
    <glyph glyph-name="acute" unicode="&#xb4;" horiz-adv-x="245" 
d="M92 574h-82l111 158h114z" />
    <glyph glyph-name="mu" unicode="&#xb5;" horiz-adv-x="535" 
d="M459 0h-77.001l-5 69c-25.333 -53.333 -71.666 -80 -138.999 -80c-28.667 0 -54 5.33301 -76 16v-220h-86v719h86v-318c1.33301 -76 33.333 -114 96 -114c34 0 61.667 13.667 83 41s32 64.333 32 111v280h86v-504z" />
    <glyph glyph-name="paragraph" unicode="&#xb6;" horiz-adv-x="597" 
d="M576 639h-88v-719h-62v719h-118v-719h-62v393h-18c-59.333 0 -108.333 17.667 -147 53c-37.333 36 -56 82.333 -56 139c0 57.333 18.667 104 56 140c37.333 36.667 86.333 55 147 55h348v-61z" />
    <glyph glyph-name="middot" unicode="&#xb7;" horiz-adv-x="202" 
d="M145.5 304c12.333 -12 18.5 -26.667 18.5 -44c0 -18 -6.16699 -33 -18.5 -45s-27.166 -18 -44.499 -18c-18 0 -33 6 -45 18s-18 27 -18 45c0 17.333 6 32 18 44s27 18 45 18c17.333 0 32.166 -6 44.499 -18z" />
    <glyph glyph-name="cedilla" unicode="&#xb8;" horiz-adv-x="216" 
d="M115 -58h3.00098c26 0 47.167 -7.5 63.5 -22.5s24.5 -35.167 24.5 -60.5c0 -28 -9.5 -49.833 -28.5 -65.5s-44.5 -23.5 -76.5 -23.5c-38.667 0 -69 12 -91 36l32 44c15.333 -17.333 35.666 -26 60.999 -26c30 0 45 11.333 45 34c0 23.333 -14 35 -42 35
c-7.33301 0 -18.333 -1.66699 -33 -5l-22 9l27 109h52z" />
    <glyph glyph-name="one.sups" unicode="&#xb9;" horiz-adv-x="246" 
d="M189 408h-70v288h-88v51c32 0 56.5 4 73.5 12s27.833 21.667 32.5 41h52v-392z" />
    <glyph glyph-name="ordmasculine" unicode="&#xba;" horiz-adv-x="437" 
d="M348 402c-34.667 -33.333 -77.999 -50 -129.999 -50s-95.333 16.667 -130 50c-34 33.333 -51 76 -51 128c0 52.667 16.667 95.667 50 129c34 34 77.667 51 131 51s96.666 -17 129.999 -51c34 -32.667 51 -75.667 51 -129c0 -52 -17 -94.667 -51 -128zM140.001 614.5
c-20.667 -21.667 -31 -49.5 -31 -83.5s10.333 -61.833 31 -83.5s47 -32.5 79 -32.5s58.167 11 78.5 33s30.5 49.667 30.5 83s-10.167 61 -30.5 83s-46.5 33 -78.5 33s-58.333 -10.833 -79 -32.5z" />
    <glyph glyph-name="guillemotright" unicode="&#xbb;" horiz-adv-x="457" 
d="M234 259v-17l-134 -187h-87l140 195l-140 196h87zM444 259v-17l-134 -187h-87l140 195l-140 196h87z" />
    <glyph glyph-name="onequarter" unicode="&#xbc;" horiz-adv-x="699" 
d="M189 308h-70v288h-88v51c32 0 56.5 4 73.5 12s27.833 21.667 32.5 41h52v-392zM168 0h-95l420 700h95zM611 135h56v-62h-56v-73h-70v73h-177v56l162 263h85v-257zM530 280l-91 -145h103v168z" />
    <glyph glyph-name="onehalf" unicode="&#xbd;" horiz-adv-x="714" 
d="M189 308h-70v288h-88v51c32 0 56.5 4 73.5 12s27.833 21.667 32.5 41h52v-392zM168 0h-95l420 700h95zM645.5 369c21.667 -20 32.5 -47.333 32.5 -82c0 -38.667 -17.333 -76.667 -52 -114l-96 -107h151v-66h-248v51l131 147c28.667 30.667 43 58.667 43 84
c0 34.667 -18 52 -54 52c-16.667 0 -30.167 -5.33301 -40.5 -16s-15.5 -25.667 -15.5 -45h-70c0 38 11.667 68.5 35 91.5s54 34.5 92 34.5c39.333 0 69.833 -10 91.5 -30z" />
    <glyph glyph-name="threequarters" unicode="&#xbe;" horiz-adv-x="781" 
d="M281 542c-10 -14 -23.335 -23.998 -40.002 -29.998c20.667 -6.66699 37.334 -17.834 50.001 -33.501s19 -35.5 19 -59.5c0 -36 -12.333 -64.667 -37 -86s-57 -32 -97 -32c-43.333 0 -77.166 10.833 -101.499 32.5s-36.5 52.167 -36.5 91.5h70
c0 -19.333 6.16699 -34.166 18.5 -44.499s29.166 -15.5 50.499 -15.5c18.667 0 33.834 5.16699 45.501 15.5s17.5 24.166 17.5 41.499c0 40 -28 60 -84 60h-20v57h19c47.333 0 71 17.667 71 53c0 15.333 -4.66699 27.666 -14 36.999s-22.333 14 -39 14
s-30.334 -5 -41.001 -15s-16 -24 -16 -42h-70c0 38 11.333 67.667 34 89s53.334 32 92.001 32c38 0 68.167 -10.5 90.5 -31.5s33.5 -48.167 33.5 -81.5c0 -20.667 -5 -38 -15 -52zM248.998 0.00195312h-95l420 700h95zM692.998 135.002h56v-62h-56v-73h-70v73h-177v56
l162 263h85v-257zM611.998 280.002l-91 -145h103v168z" />
    <glyph glyph-name="questiondown" unicode="&#xbf;" horiz-adv-x="415" 
d="M172.5 496c12.333 12 27.167 18 44.5 18c18 0 33 -6 45 -18s18 -26.667 18 -44c0 -18 -6 -32.833 -18 -44.5s-27 -17.5 -45 -17.5s-33 5.83301 -45 17.5s-18 26.5 -18 44.5c0 17.333 6.16699 32 18.5 44zM70.001 -162c-38 34 -57.0029 80.667 -57.0029 140
c0 30.667 5.16699 59.167 15.5 85.5s23.833 48.166 40.5 65.499l36 34c24 22.667 41.5 41.334 52.5 56.001s16.5 31 16.5 49v35h87v-38c0 -22.667 -5.33301 -44 -16 -64s-24.667 -38 -42 -54l-38 -32.5c-21.333 -18.333 -38 -38.833 -50 -61.5s-18 -46.667 -18 -72
c0 -38.667 10.333 -68.5 31 -89.5s48.334 -31.5 83.001 -31.5c37.333 0 66.5 11 87.5 33s31.5 53.333 31.5 94h83c-1.33301 -63.333 -20.666 -112.333 -57.999 -147c-37.333 -35.333 -85 -53 -143 -53c-55.333 0 -102.666 17 -141.999 51z" />
    <glyph glyph-name="Agrave" unicode="&#xc0;" horiz-adv-x="692" 
d="M398 732h-96l-132 109h132zM674 0h-100l-74 185h-309l-73 -185h-100l281 700h94zM332 545l-110 -275h247l-111 275l-13 38z" />
    <glyph glyph-name="Aacute" unicode="&#xc1;" horiz-adv-x="692" 
d="M383 732h-97l97 109h131zM674 0h-100l-74 185h-309l-73 -185h-100l281 700h94zM332 545l-110 -275h247l-111 275l-13 38z" />
    <glyph glyph-name="Acircumflex" unicode="&#xc2;" horiz-adv-x="692" 
d="M517 731h-109l-63 55l-62 -55h-108l143 113h56zM674 0h-100l-74 185h-309l-73 -185h-100l281 700h94zM332 545l-110 -275h247l-111 275l-13 38z" />
    <glyph glyph-name="Atilde" unicode="&#xc3;" horiz-adv-x="692" 
d="M334.5 846c12.333 -7.33301 24.167 -17.332 35.5 -29.999c8.66699 -9.33301 15.834 -16 21.501 -20s12.834 -6 21.501 -6c26 0 39 19.333 39 58h58c0 -37.333 -9 -67 -27 -89s-43.667 -33 -77 -33c-20.667 0 -37 3.66699 -49 11s-24 17.666 -36 30.999
c-8.66699 9.33301 -15.834 16 -21.501 20s-12.834 6 -21.501 6c-26 0 -39 -19.667 -39 -59h-58c0 38 9 67.833 27 89.5s43.667 32.5 77 32.5c20.667 0 37.167 -3.66699 49.5 -11zM674.001 0.000976562h-100l-74 185h-309l-73 -185h-100l281 700h94zM332.001 545.001
l-110 -275h247l-111 275l-13 38z" />
    <glyph glyph-name="Adieresis" unicode="&#xc4;" horiz-adv-x="692" 
d="M400 748c-10.667 10.667 -15.998 23.335 -15.998 38.002c-1.33301 15.333 3.66699 28.166 15 38.499s24.666 15.5 39.999 15.5s28 -5.33301 38 -16c10.667 -8.66699 16 -20.667 16 -36s-5.33301 -28.833 -16 -40.5s-23.667 -16.834 -39 -15.501
c-14.667 0 -27.334 5.33301 -38.001 16zM289.502 748.001c-10.333 -10.667 -23.166 -15.998 -38.499 -15.998s-28.333 5.16699 -39 15.5s-16 23.166 -16 38.499s5.33301 28.166 16 38.499s23.667 15.5 39 15.5s28.166 -5.16699 38.499 -15.5s15.5 -23.166 15.5 -38.499
c0 -14.667 -5.16699 -27.334 -15.5 -38.001zM674.002 0.00292969h-100l-74 185h-309l-73 -185h-100l281 700h94zM332.002 545.003l-110 -275h247l-111 275l-13 38z" />
    <glyph glyph-name="Aring" unicode="&#xc5;" horiz-adv-x="692" 
d="M345 912c28 0 51 -9 69 -27c18 -16.667 27 -38.667 27 -66c0 -26.667 -9 -49 -27 -67s-41 -27 -69 -27s-51 9 -69 27s-27 40.333 -27 67s9 48.667 27 66c18 18 41 27 69 27zM317.5 848c-6.33301 -8 -9.5 -17.667 -9.5 -29s3.16699 -21 9.5 -29s15.5 -11.667 27.5 -11
c12 -0.666992 21.5 3 28.5 11s10.5 17.667 10.5 29s-3.5 21 -10.5 29s-16.5 11.667 -28.5 11c-12 0.666992 -21.167 -3 -27.5 -11zM674 0h-100l-74 185h-309l-73 -185h-100l281 700h94zM332 545l-110 -275h247l-111 275l-13 38z" />
    <glyph glyph-name="AE" unicode="&#xc6;" horiz-adv-x="931" 
d="M884 615h-295v-212h259v-85h-259v-233h295v-85h-386v188h-253l-127 -188h-107l460 700h413v-85zM477 545l-182 -277h203v315z" />
    <glyph glyph-name="Ccedilla" unicode="&#xc7;" horiz-adv-x="728" 
d="M586.5 655c53.667 -38.667 90.498 -93.002 110.498 -163.002h-101c-32.667 90.667 -102.667 136 -210 136c-74 0 -134.333 -26.333 -181 -79c-46.667 -51.333 -70 -117.666 -70 -198.999c0 -80 23.333 -146.333 70 -199s107.334 -79 182.001 -79
c54 0 99.333 12.333 136 37s62.334 58.667 77.001 102h98c-20 -69.333 -54.667 -123.166 -104 -161.499s-111.666 -58.833 -186.999 -61.5l-10 -46h3c26 0 47.167 -7.5 63.5 -22.5s24.5 -35.167 24.5 -60.5c0 -28 -9.5 -49.833 -28.5 -65.5s-44.5 -23.5 -76.5 -23.5
c-38.667 0 -69 12 -91 36l32 44c15.333 -17.333 35.666 -26 60.999 -26c30 0 45 11.333 45 34c0 23.333 -14 35 -42 35c-7.33301 0 -18.333 -1.66699 -33 -5l-22 9l22 91c-91.333 6.66699 -167 44 -227 112c-58.667 67.333 -88 150.666 -88 249.999
c0 104.667 32.333 191.334 97 260.001s147.667 103 249 103c80 0 146.833 -19.333 200.5 -58z" />
    <glyph glyph-name="Egrave" unicode="&#xc8;" horiz-adv-x="510" 
d="M332 732h-96l-132 109h132zM463 615h-294v-212h259v-85h-259v-233h294v-85h-385v700h385v-85z" />
    <glyph glyph-name="Eacute" unicode="&#xc9;" horiz-adv-x="510" 
d="M316 732h-97l97 109h131zM463 615h-294v-212h259v-85h-259v-233h294v-85h-385v700h385v-85z" />
    <glyph glyph-name="Ecircumflex" unicode="&#xca;" horiz-adv-x="510" 
d="M450 731h-109l-63 55l-62 -55h-108l143 113h56zM463 615h-294v-212h259v-85h-259v-233h294v-85h-385v700h385v-85z" />
    <glyph glyph-name="Edieresis" unicode="&#xcb;" horiz-adv-x="510" 
d="M334 748c-10.667 10.667 -15.998 23.335 -15.998 38.002c-1.33301 15.333 3.66699 28.166 15 38.499s24.666 15.5 39.999 15.5s28 -5.33301 38 -16c10.667 -8.66699 16 -20.667 16 -36s-5.33301 -28.833 -16 -40.5s-23.667 -16.834 -39 -15.501
c-14.667 0 -27.334 5.33301 -38.001 16zM223.502 748.001c-10.333 -10.667 -23.166 -15.998 -38.499 -15.998s-28.333 5.16699 -39 15.5s-16 23.166 -16 38.499s5.33301 28.166 16 38.499s23.667 15.5 39 15.5s28.166 -5.16699 38.499 -15.5s15.5 -23.166 15.5 -38.499
c0 -14.667 -5.16699 -27.334 -15.5 -38.001zM463.002 615.003h-294v-212h259v-85h-259v-233h294v-85h-385v700h385v-85z" />
    <glyph glyph-name="Igrave" unicode="&#xcc;" horiz-adv-x="247" 
d="M176 732h-96l-132 109h132zM169 0h-91v700h91v-700z" />
    <glyph glyph-name="Iacute" unicode="&#xcd;" horiz-adv-x="247" 
d="M160 732h-97l97 109h131zM169 0h-91v700h91v-700z" />
    <glyph glyph-name="Icircumflex" unicode="&#xce;" horiz-adv-x="247" 
d="M295 731h-109l-63 55l-62 -55h-108l143 113h56zM169 0h-91v700h91v-700z" />
    <glyph glyph-name="Idieresis" unicode="&#xcf;" horiz-adv-x="247" 
d="M68 748c-10.667 -10.667 -23.3311 -16.001 -37.998 -16.001c-16 -1.33301 -29.167 3.83398 -39.5 15.501s-15.5 25.167 -15.5 40.5c0 14 5.33301 26 16 36c10 10.667 22.333 16 37 16c15.333 0 28.666 -5.16699 39.999 -15.5s16.666 -23.166 15.999 -38.499
c0 -14.667 -5.33301 -27.334 -16 -38.001zM178.503 824.499c10.333 10.333 23.166 15.498 38.499 15.498s28.333 -5.16699 39 -15.5s16 -23.166 16 -38.499s-5.33301 -28.166 -16 -38.499s-23.667 -15.5 -39 -15.5s-28.166 5.33301 -38.499 16s-15.5 23.334 -15.5 38.001
c0 15.333 5.16699 28.166 15.5 38.499zM169.003 -0.00292969h-91v700h91v-700z" />
    <glyph glyph-name="Eth" unicode="&#xd0;" horiz-adv-x="738" 
d="M597 604c64.667 -64 97 -148.667 97 -254s-32.333 -190 -97 -254c-64 -64 -150 -96 -258 -96h-252v318h-86v70h86v312h252c108 0 194 -32 258 -96zM178 388h131v-70h-131v-233h161c80.667 0 144.5 23.667 191.5 71s70.5 112 70.5 194c0 82.667 -23.333 147.5 -70 194.5
s-110.667 70.5 -192 70.5h-161v-227z" />
    <glyph glyph-name="Ntilde" unicode="&#xd1;" horiz-adv-x="711" 
d="M344.5 846c12.333 -7.33301 24.167 -17.332 35.5 -29.999c8.66699 -9.33301 15.834 -16 21.501 -20s12.834 -6 21.501 -6c26 0 39 19.333 39 58h58c0 -37.333 -9 -67 -27 -89s-43.667 -33 -77 -33c-20.667 0 -37 3.66699 -49 11s-24 17.666 -36 30.999
c-8.66699 9.33301 -15.834 16 -21.501 20s-12.834 6 -21.501 6c-26 0 -39 -19.667 -39 -59h-58c0 38 9 67.833 27 89.5s43.667 32.5 77 32.5c20.667 0 37.167 -3.66699 49.5 -11zM634.001 0.000976562h-90l-348 502l-27 43v-545h-91v700h89l346 -500l30 -46v546h91v-700z
" />
    <glyph glyph-name="Ograve" unicode="&#xd2;" horiz-adv-x="795" 
d="M450 742h-96l-132 109h132zM654 610c67.333 -69.333 101 -155.666 101 -258.999c0 -104.667 -33.667 -191.667 -101 -261c-66.667 -68.667 -152 -103 -256 -103c-104.667 0 -190.334 34.333 -257.001 103c-67.333 69.333 -101 156.333 -101 261
c0 103.333 33.667 189.666 101 258.999c66.667 68.667 152.334 103 257.001 103c104 0 189.333 -34.333 256 -103zM208 549c-48.667 -51.333 -73 -117.332 -73 -197.999s24.333 -147.334 73 -200.001s112 -79 190 -79c76.667 0 139.334 26.333 188.001 79
c49.333 53.333 74 120 74 200c0 79.333 -24.667 145.333 -74 198c-48.667 52.667 -111.334 79 -188.001 79c-78 0 -141.333 -26.333 -190 -79z" />
    <glyph glyph-name="Oacute" unicode="&#xd3;" horiz-adv-x="795" 
d="M435 742h-97l97 109h131zM654 610c67.333 -69.333 101 -155.666 101 -258.999c0 -104.667 -33.667 -191.667 -101 -261c-66.667 -68.667 -152 -103 -256 -103c-104.667 0 -190.334 34.333 -257.001 103c-67.333 69.333 -101 156.333 -101 261
c0 103.333 33.667 189.666 101 258.999c66.667 68.667 152.334 103 257.001 103c104 0 189.333 -34.333 256 -103zM208 549c-48.667 -51.333 -73 -117.332 -73 -197.999s24.333 -147.334 73 -200.001s112 -79 190 -79c76.667 0 139.334 26.333 188.001 79
c49.333 53.333 74 120 74 200c0 79.333 -24.667 145.333 -74 198c-48.667 52.667 -111.334 79 -188.001 79c-78 0 -141.333 -26.333 -190 -79z" />
    <glyph glyph-name="Ocircumflex" unicode="&#xd4;" horiz-adv-x="795" 
d="M569 741h-109l-63 55l-62 -55h-108l143 113h56zM654 610c67.333 -69.333 101 -155.666 101 -258.999c0 -104.667 -33.667 -191.667 -101 -261c-66.667 -68.667 -152 -103 -256 -103c-104.667 0 -190.334 34.333 -257.001 103c-67.333 69.333 -101 156.333 -101 261
c0 103.333 33.667 189.666 101 258.999c66.667 68.667 152.334 103 257.001 103c104 0 189.333 -34.333 256 -103zM208 549c-48.667 -51.333 -73 -117.332 -73 -197.999s24.333 -147.334 73 -200.001s112 -79 190 -79c76.667 0 139.334 26.333 188.001 79
c49.333 53.333 74 120 74 200c0 79.333 -24.667 145.333 -74 198c-48.667 52.667 -111.334 79 -188.001 79c-78 0 -141.333 -26.333 -190 -79z" />
    <glyph glyph-name="Otilde" unicode="&#xd5;" horiz-adv-x="795" 
d="M386.5 856c12.333 -7.33301 24.167 -17.332 35.5 -29.999c8.66699 -9.33301 15.834 -16 21.501 -20s12.834 -6 21.501 -6c26 0 39 19.333 39 58h58c0 -37.333 -9 -67 -27 -89s-43.667 -33 -77 -33c-20.667 0 -37 3.66699 -49 11s-24 17.666 -36 30.999
c-8.66699 9.33301 -15.834 16 -21.501 20s-12.834 6 -21.501 6c-26 0 -39 -19.667 -39 -59h-58c0 38 9 67.833 27 89.5s43.667 32.5 77 32.5c20.667 0 37.167 -3.66699 49.5 -11zM654.001 610.001c67.333 -69.333 101 -155.666 101 -258.999
c0 -104.667 -33.667 -191.667 -101 -261c-66.667 -68.667 -152 -103 -256 -103c-104.667 0 -190.334 34.333 -257.001 103c-67.333 69.333 -101 156.333 -101 261c0 103.333 33.667 189.666 101 258.999c66.667 68.667 152.334 103 257.001 103
c104 0 189.333 -34.333 256 -103zM208.001 549.001c-48.667 -51.333 -73 -117.332 -73 -197.999s24.333 -147.334 73 -200.001s112 -79 190 -79c76.667 0 139.334 26.333 188.001 79c49.333 53.333 74 120 74 200c0 79.333 -24.667 145.333 -74 198
c-48.667 52.667 -111.334 79 -188.001 79c-78 0 -141.333 -26.333 -190 -79z" />
    <glyph glyph-name="Odieresis" unicode="&#xd6;" horiz-adv-x="795" 
d="M452 758c-10.667 10.667 -15.998 23.335 -15.998 38.002c-1.33301 15.333 3.66699 28.166 15 38.499s24.666 15.5 39.999 15.5s28 -5.33301 38 -16c10.667 -8.66699 16 -20.667 16 -36s-5.33301 -28.833 -16 -40.5s-23.667 -16.834 -39 -15.501
c-14.667 0 -27.334 5.33301 -38.001 16zM341.502 758.001c-10.333 -10.667 -23.166 -15.998 -38.499 -15.998s-28.333 5.16699 -39 15.5s-16 23.166 -16 38.499s5.33301 28.166 16 38.499s23.667 15.5 39 15.5s28.166 -5.16699 38.499 -15.5s15.5 -23.166 15.5 -38.499
c0 -14.667 -5.16699 -27.334 -15.5 -38.001zM654.002 610.003c67.333 -69.333 101 -155.666 101 -258.999c0 -104.667 -33.667 -191.667 -101 -261c-66.667 -68.667 -152 -103 -256 -103c-104.667 0 -190.334 34.333 -257.001 103c-67.333 69.333 -101 156.333 -101 261
c0 103.333 33.667 189.666 101 258.999c66.667 68.667 152.334 103 257.001 103c104 0 189.333 -34.333 256 -103zM208.002 549.003c-48.667 -51.333 -73 -117.332 -73 -197.999s24.333 -147.334 73 -200.001s112 -79 190 -79c76.667 0 139.334 26.333 188.001 79
c49.333 53.333 74 120 74 200c0 79.333 -24.667 145.333 -74 198c-48.667 52.667 -111.334 79 -188.001 79c-78 0 -141.333 -26.333 -190 -79z" />
    <glyph glyph-name="multiply" unicode="&#xd7;" horiz-adv-x="419" 
d="M392 476l-127 -127l127 -127l-56 -55l-126 127l-127 -127l-56 56l127 127l-127 127l55 55l127 -126l127 126z" />
    <glyph glyph-name="Oslash" unicode="&#xd8;" horiz-adv-x="795" 
d="M540 686l44.999 80.001l71 -34l-47 -84c46 -32.667 81.833 -75 107.5 -127s38.5 -108.667 38.5 -170c0 -104.667 -33.667 -191.667 -101 -261c-66.667 -68.667 -152 -103 -256 -103c-50.667 0 -98.667 9 -144 27l-47 -83l-71 34l49 87
c-46 32.667 -81.667 75.167 -107 127.5s-38 109.5 -38 171.5c0 103.333 33.667 189.666 101 258.999c66.667 68.667 152.334 103 257.001 103c50 0 97.333 -9 142 -27zM207.999 549.001c-48.667 -51.333 -73 -117.333 -73 -198c0 -94 31.333 -167.333 94 -220l268 479
c-30 12 -63 18 -99 18c-78 0 -141.333 -26.333 -190 -79zM564.999 570.001l-269.001 -480c30.667 -12 64.667 -18 102 -18c76.667 0 139.334 26.333 188.001 79c49.333 53.333 74 120 74 200c0 92 -31.667 165 -95 219z" />
    <glyph glyph-name="Ugrave" unicode="&#xd9;" horiz-adv-x="687" 
d="M396 732h-96l-132 109h132zM618 277c0 -93.333 -23.667 -165 -71 -215s-115 -75 -203 -75s-155.833 25 -203.5 75s-71.5 121.667 -71.5 215v423h91v-423c0 -136.667 61.333 -205 184 -205c60 0 105.5 17.333 136.5 52s46.5 85.667 46.5 153v423h91v-423z" />
    <glyph glyph-name="Uacute" unicode="&#xda;" horiz-adv-x="687" 
d="M381 732h-97l97 109h131zM618 277c0 -93.333 -23.667 -165 -71 -215s-115 -75 -203 -75s-155.833 25 -203.5 75s-71.5 121.667 -71.5 215v423h91v-423c0 -136.667 61.333 -205 184 -205c60 0 105.5 17.333 136.5 52s46.5 85.667 46.5 153v423h91v-423z" />
    <glyph glyph-name="Ucircumflex" unicode="&#xdb;" horiz-adv-x="687" 
d="M515 731h-109l-63 55l-62 -55h-108l143 113h56zM618 277c0 -93.333 -23.667 -165 -71 -215s-115 -75 -203 -75s-155.833 25 -203.5 75s-71.5 121.667 -71.5 215v423h91v-423c0 -136.667 61.333 -205 184 -205c60 0 105.5 17.333 136.5 52s46.5 85.667 46.5 153v423h91
v-423z" />
    <glyph glyph-name="Udieresis" unicode="&#xdc;" horiz-adv-x="687" 
d="M398 748c-10.667 10.667 -15.998 23.335 -15.998 38.002c-1.33301 15.333 3.66699 28.166 15 38.499s24.666 15.5 39.999 15.5s28 -5.33301 38 -16c10.667 -8.66699 16 -20.667 16 -36s-5.33301 -28.833 -16 -40.5s-23.667 -16.834 -39 -15.501
c-14.667 0 -27.334 5.33301 -38.001 16zM287.502 748.001c-10.333 -10.667 -23.166 -15.998 -38.499 -15.998s-28.333 5.16699 -39 15.5s-16 23.166 -16 38.499s5.33301 28.166 16 38.499s23.667 15.5 39 15.5s28.166 -5.16699 38.499 -15.5s15.5 -23.166 15.5 -38.499
c0 -14.667 -5.16699 -27.334 -15.5 -38.001zM618.002 277.003c0 -93.333 -23.667 -165 -71 -215s-115 -75 -203 -75s-155.833 25 -203.5 75s-71.5 121.667 -71.5 215v423h91v-423c0 -136.667 61.333 -205 184 -205c60 0 105.5 17.333 136.5 52s46.5 85.667 46.5 153v423h91
v-423z" />
    <glyph glyph-name="Yacute" unicode="&#xdd;" horiz-adv-x="674" 
d="M374 732h-97l97 109h131zM383 265v-265h-92v265l-277 435h107l189 -294l26 -47l27 47l190 294h107z" />
    <glyph glyph-name="Thorn" unicode="&#xde;" horiz-adv-x="563" 
d="M169 589h131.999c45.333 0 84.833 -8.33301 118.5 -25s59.667 -40.167 78 -70.5s27.5 -65.5 27.5 -105.5c0 -60 -20.333 -108.333 -61 -145c-39.333 -36.667 -93.666 -55 -162.999 -55h-132v-188h-91v700h91v-111zM168.999 274h132c40.667 0 72.834 10 96.501 30
s35.5 48 35.5 84s-11.833 64.167 -35.5 84.5s-55.834 30.5 -96.501 30.5h-132v-229z" />
    <glyph glyph-name="germandbls" unicode="&#xdf;" horiz-adv-x="554" 
d="M276 652c-72.667 0 -109 -39.6689 -109 -119.002v-29h330v-69l-147 -221c61.333 -7.33301 109.333 -30.666 144 -69.999c35.333 -40.667 53 -87.667 53 -141c0 -70 -20.167 -124.667 -60.5 -164s-98.5 -59 -174.5 -59c-25.333 0 -53 2.66699 -83 8l4 87
c30.667 -7.33301 54.667 -11 72 -11c48 0 85.167 11.833 111.5 35.5s39.5 57.834 39.5 102.501c0 42 -14.667 75.167 -44 99.5s-68.333 36.5 -117 36.5h-47v59l149 227h-230v-424h-90v531c0 136 66.333 204 199 204v-83z" />
    <glyph glyph-name="agrave" unicode="&#xe0;" horiz-adv-x="494" 
d="M293 574h-82l-143 158h113zM380.5 468c31.667 -31.333 47.5 -76 47.5 -134v-334h-78l-4 69c-14 -24.667 -34.333 -44.167 -61 -58.5s-57.334 -21.5 -92.001 -21.5c-44.667 0 -80.334 12.833 -107.001 38.5s-40 60.167 -40 103.5c0 79.333 47 128 141 146l154 29v25
c0 69.333 -31 104 -93 104c-30.667 0 -55.5 -8.16699 -74.5 -24.5s-28.5 -38.833 -28.5 -67.5h-85c0.666992 49.333 18.667 90.333 54 123c34.667 32.667 79.334 49 134.001 49c56.667 0 100.834 -15.667 132.501 -47zM203 201c-23.333 -6 -40.833 -14.168 -52.5 -24.501
s-17.5 -25.166 -17.5 -44.499c0 -20 6.66699 -35.5 20 -46.5s32.333 -16.5 57 -16.5c44 0 78 16.667 102 50c19.333 26.667 29 57.667 29 93v19z" />
    <glyph glyph-name="aacute" unicode="&#xe1;" horiz-adv-x="494" 
d="M283 574h-82l111 158h114zM380.5 468c31.667 -31.333 47.5 -76 47.5 -134v-334h-78l-4 69c-14 -24.667 -34.333 -44.167 -61 -58.5s-57.334 -21.5 -92.001 -21.5c-44.667 0 -80.334 12.833 -107.001 38.5s-40 60.167 -40 103.5c0 79.333 47 128 141 146l154 29v25
c0 69.333 -31 104 -93 104c-30.667 0 -55.5 -8.16699 -74.5 -24.5s-28.5 -38.833 -28.5 -67.5h-85c0.666992 49.333 18.667 90.333 54 123c34.667 32.667 79.334 49 134.001 49c56.667 0 100.834 -15.667 132.501 -47zM203 201c-23.333 -6 -40.833 -14.168 -52.5 -24.501
s-17.5 -25.166 -17.5 -44.499c0 -20 6.66699 -35.5 20 -46.5s32.333 -16.5 57 -16.5c44 0 78 16.667 102 50c19.333 26.667 29 57.667 29 93v19z" />
    <glyph glyph-name="acircumflex" unicode="&#xe2;" horiz-adv-x="494" 
d="M413 574h-96l-68 92l-68 -92h-96l136 158h56zM380.5 468c31.667 -31.333 47.5 -76 47.5 -134v-334h-78l-4 69c-14 -24.667 -34.333 -44.167 -61 -58.5s-57.334 -21.5 -92.001 -21.5c-44.667 0 -80.334 12.833 -107.001 38.5s-40 60.167 -40 103.5
c0 79.333 47 128 141 146l154 29v25c0 69.333 -31 104 -93 104c-30.667 0 -55.5 -8.16699 -74.5 -24.5s-28.5 -38.833 -28.5 -67.5h-85c0.666992 49.333 18.667 90.333 54 123c34.667 32.667 79.334 49 134.001 49c56.667 0 100.834 -15.667 132.501 -47zM203 201
c-23.333 -6 -40.833 -14.168 -52.5 -24.501s-17.5 -25.166 -17.5 -44.499c0 -20 6.66699 -35.5 20 -46.5s32.333 -16.5 57 -16.5c44 0 78 16.667 102 50c19.333 26.667 29 57.667 29 93v19z" />
    <glyph glyph-name="atilde" unicode="&#xe3;" horiz-adv-x="494" 
d="M241.5 694.5c11.667 -7.66699 23.5 -18.501 35.5 -32.501c7.33301 -10 14 -17.333 20 -22s13.667 -7 23 -7c26 0 39 21.333 39 64h58c0 -39.333 -9 -70.5 -27 -93.5s-43.667 -34.5 -77 -34.5c-21.333 0 -38 3.83301 -50 11.5s-23.667 18.834 -35 33.501
c-7.33301 10 -14 17.333 -20 22s-13.667 7 -23 7c-26 0 -39 -21.667 -39 -65h-58c0 40 9 71.333 27 94s43.667 34 77 34c21.333 0 37.833 -3.83301 49.5 -11.5zM380.5 467.999c31.667 -31.333 47.5 -76 47.5 -134v-334h-78l-4 69c-14 -24.667 -34.333 -44.167 -61 -58.5
s-57.334 -21.5 -92.001 -21.5c-44.667 0 -80.334 12.833 -107.001 38.5s-40 60.167 -40 103.5c0 79.333 47 128 141 146l154 29v25c0 69.333 -31 104 -93 104c-30.667 0 -55.5 -8.16699 -74.5 -24.5s-28.5 -38.833 -28.5 -67.5h-85c0.666992 49.333 18.667 90.333 54 123
c34.667 32.667 79.334 49 134.001 49c56.667 0 100.834 -15.667 132.501 -47zM203 200.999c-23.333 -6 -40.833 -14.168 -52.5 -24.501s-17.5 -25.166 -17.5 -44.499c0 -20 6.66699 -35.5 20 -46.5s32.333 -16.5 57 -16.5c44 0 78 16.667 102 50
c19.333 26.667 29 57.667 29 93v19z" />
    <glyph glyph-name="adieresis" unicode="&#xe4;" horiz-adv-x="494" 
d="M194 673.5c10.667 -10.333 15.998 -23.166 15.998 -38.499s-5.16699 -28.166 -15.5 -38.499s-23.166 -15.5 -38.499 -15.5s-28.333 5.16699 -39 15.5s-16 23.166 -16 38.499s5.33301 28.166 16 38.499s23.667 15.5 39 15.5c14.667 0 27.334 -5.16699 38.001 -15.5z
M342.998 689c16 0 29 -5.33301 39 -16c10.667 -10 16 -22.667 16 -38s-5.33301 -28.333 -16 -39c-10 -10 -23 -15 -39 -15c-14.667 0 -27.667 5 -39 15c-10 11.333 -15 24.333 -15 39c0 15.333 5 28 15 38c10.667 10.667 23.667 16 39 16zM380.498 468
c31.667 -31.333 47.5 -76 47.5 -134v-334h-78l-4 69c-14 -24.667 -34.333 -44.167 -61 -58.5s-57.334 -21.5 -92.001 -21.5c-44.667 0 -80.334 12.833 -107.001 38.5s-40 60.167 -40 103.5c0 79.333 47 128 141 146l154 29v25c0 69.333 -31 104 -93 104
c-30.667 0 -55.5 -8.16699 -74.5 -24.5s-28.5 -38.833 -28.5 -67.5h-85c0.666992 49.333 18.667 90.333 54 123c34.667 32.667 79.334 49 134.001 49c56.667 0 100.834 -15.667 132.501 -47zM202.998 201c-23.333 -6 -40.833 -14.168 -52.5 -24.501
s-17.5 -25.166 -17.5 -44.499c0 -20 6.66699 -35.5 20 -46.5s32.333 -16.5 57 -16.5c44 0 78 16.667 102 50c19.333 26.667 29 57.667 29 93v19z" />
    <glyph glyph-name="aring" unicode="&#xe5;" horiz-adv-x="494" 
d="M327.5 732.5c19.667 -19.667 29.499 -44.5 29.499 -74.5c0 -28.667 -9.83301 -52.834 -29.5 -72.501s-45.167 -29.5 -76.5 -29.5c-30 0 -55 9.83301 -75 29.5s-30 43.834 -30 72.501c0 30 9.83301 54.833 29.5 74.5s44.834 29.5 75.501 29.5
c31.333 0 56.833 -9.83301 76.5 -29.5zM216.499 694c-9 -9.33301 -13.5 -21 -13.5 -35s4.5 -25.667 13.5 -35s20.5 -14 34.5 -14s25.667 4.66699 35 14s14 21 14 35s-4.5 25.667 -13.5 35s-20.833 14 -35.5 14c-14 0 -25.5 -4.66699 -34.5 -14zM380.499 468
c31.667 -31.333 47.5 -76 47.5 -134v-334h-78l-4 69c-14 -24.667 -34.333 -44.167 -61 -58.5s-57.334 -21.5 -92.001 -21.5c-44.667 0 -80.334 12.833 -107.001 38.5s-40 60.167 -40 103.5c0 79.333 47 128 141 146l154 29v25c0 69.333 -31 104 -93 104
c-30.667 0 -55.5 -8.16699 -74.5 -24.5s-28.5 -38.833 -28.5 -67.5h-85c0.666992 49.333 18.667 90.333 54 123c34.667 32.667 79.334 49 134.001 49c56.667 0 100.834 -15.667 132.501 -47zM202.999 201c-23.333 -6 -40.833 -14.168 -52.5 -24.501
s-17.5 -25.166 -17.5 -44.499c0 -20 6.66699 -35.5 20 -46.5s32.333 -16.5 57 -16.5c44 0 78 16.667 102 50c19.333 26.667 29 57.667 29 93v19z" />
    <glyph glyph-name="ae" unicode="&#xe6;" horiz-adv-x="859" 
d="M751 448c41.333 -44.667 62 -107.668 62 -189.001v-41h-383c3.33301 -46 19.166 -82.333 47.499 -109s64.5 -40 108.5 -40c70 0 115.333 27.333 136 82h86c-16 -51.333 -43.167 -91.166 -81.5 -119.499s-85.833 -42.5 -142.5 -42.5c-92 0 -160 36 -204 108
c-40 -72 -101 -108 -183 -108c-46.667 0 -83.5 12.667 -110.5 38s-40.5 59.333 -40.5 102c0 39.333 12.333 71.5 37 96.5s59.334 41.833 104.001 50.5l154 30v22c0 71.333 -32 107 -96 107c-30 0 -54.167 -8 -72.5 -24s-27.5 -38.667 -27.5 -68h-85
c0.666992 49.333 18 90.333 52 123c33.333 32.667 77.666 49 132.999 49c74.667 0 127.334 -26.333 158.001 -79c46 52.667 106.333 79 181 79c70 0 125.667 -22.333 167 -67zM480 396.499c-27.333 -25.667 -43.667 -59.5 -49 -101.5h295
c-0.666992 42.667 -14 76.667 -40 102s-60 38 -102 38s-76.667 -12.833 -104 -38.5zM212.999 202.999c-28.667 -6 -49.167 -14.332 -61.5 -24.999s-18.5 -26.334 -18.5 -47.001c0 -19.333 7 -34.5 21 -45.5s33 -16.5 57 -16.5c44 0 77.333 15.333 100 46
c20 26 30 54.333 30 85v31z" />
    <glyph glyph-name="ccedilla" unicode="&#xe7;" horiz-adv-x="544" 
d="M426 471c40 -29.333 66 -70.6699 78 -124.003h-86c-10 28 -27.167 49.667 -51.5 65s-52.833 23 -85.5 23c-45.333 0 -83 -17.333 -113 -52c-29.333 -35.333 -44 -79.333 -44 -132c0 -51.333 15 -94.666 45 -129.999c30 -34.667 68 -52 114 -52c32 0 60.333 8 85 24
s41.334 37.333 50.001 64h87c-12 -49.333 -36 -88.666 -72 -117.999s-79.667 -45.666 -131 -48.999l-11 -48h3c26 0 47.167 -7.5 63.5 -22.5s24.5 -35.167 24.5 -60.5c0 -28 -9.5 -49.833 -28.5 -65.5s-44.5 -23.5 -76.5 -23.5c-38.667 0 -69 12 -91 36l32 44
c15.333 -17.333 35.666 -26 60.999 -26c30 0 45 11.333 45 34c0 23.333 -14 35 -42 35c-7.33301 0 -18.333 -1.66699 -33 -5l-22 9l23 94c-63.333 7.33301 -115 35 -155 83s-60 107 -60 177c0 76 23 139 69 189c47.333 50 106 75 176 75c57.333 0 106 -14.667 146 -44z" />
    <glyph glyph-name="egrave" unicode="&#xe8;" horiz-adv-x="553" 
d="M317 574h-82l-143 158h113zM445 448c41.333 -44.667 62 -107.668 62 -189.001v-41h-383c3.33301 -46 19.166 -82.333 47.499 -109s64.5 -40 108.5 -40c70 0 115.333 27.333 136 82h86c-16 -51.333 -43.167 -91.166 -81.5 -119.499s-85.833 -42.5 -142.5 -42.5
c-71.333 0 -129.666 24 -174.999 72c-45.333 48.667 -68 112 -68 190c0 77.333 22.333 140.333 67 189c45.333 50 104 75 176 75c70 0 125.667 -22.333 167 -67zM174 396.499c-27.333 -25.667 -43.667 -59.5 -49 -101.5h295c-0.666992 42.667 -14 76.667 -40 102
s-60 38 -102 38s-76.667 -12.833 -104 -38.5z" />
    <glyph glyph-name="eacute" unicode="&#xe9;" horiz-adv-x="553" 
d="M307 574h-82l111 158h114zM445 448c41.333 -44.667 62 -107.668 62 -189.001v-41h-383c3.33301 -46 19.166 -82.333 47.499 -109s64.5 -40 108.5 -40c70 0 115.333 27.333 136 82h86c-16 -51.333 -43.167 -91.166 -81.5 -119.499s-85.833 -42.5 -142.5 -42.5
c-71.333 0 -129.666 24 -174.999 72c-45.333 48.667 -68 112 -68 190c0 77.333 22.333 140.333 67 189c45.333 50 104 75 176 75c70 0 125.667 -22.333 167 -67zM174 396.499c-27.333 -25.667 -43.667 -59.5 -49 -101.5h295c-0.666992 42.667 -14 76.667 -40 102
s-60 38 -102 38s-76.667 -12.833 -104 -38.5z" />
    <glyph glyph-name="ecircumflex" unicode="&#xea;" horiz-adv-x="553" 
d="M437 574h-96l-68 92l-68 -92h-96l136 158h56zM445 448c41.333 -44.667 62 -107.668 62 -189.001v-41h-383c3.33301 -46 19.166 -82.333 47.499 -109s64.5 -40 108.5 -40c70 0 115.333 27.333 136 82h86c-16 -51.333 -43.167 -91.166 -81.5 -119.499
s-85.833 -42.5 -142.5 -42.5c-71.333 0 -129.666 24 -174.999 72c-45.333 48.667 -68 112 -68 190c0 77.333 22.333 140.333 67 189c45.333 50 104 75 176 75c70 0 125.667 -22.333 167 -67zM174 396.499c-27.333 -25.667 -43.667 -59.5 -49 -101.5h295
c-0.666992 42.667 -14 76.667 -40 102s-60 38 -102 38s-76.667 -12.833 -104 -38.5z" />
    <glyph glyph-name="edieresis" unicode="&#xeb;" horiz-adv-x="553" 
d="M222 673.5c10.667 -10.333 15.998 -23.166 15.998 -38.499s-5.16699 -28.166 -15.5 -38.499s-23.166 -15.5 -38.499 -15.5s-28.333 5.16699 -39 15.5s-16 23.166 -16 38.499s5.33301 28.166 16 38.499s23.667 15.5 39 15.5c14.667 0 27.334 -5.16699 38.001 -15.5z
M370.998 689c16 0 29 -5.33301 39 -16c10.667 -10 16 -22.667 16 -38s-5.33301 -28.333 -16 -39c-10 -10 -23 -15 -39 -15c-15.333 0 -28.333 5 -39 15c-10 11.333 -15 24.333 -15 39c0 15.333 5 28 15 38c10.667 10.667 23.667 16 39 16zM444.998 448
c41.333 -44.667 62 -107.668 62 -189.001v-41h-383c3.33301 -46 19.166 -82.333 47.499 -109s64.5 -40 108.5 -40c70 0 115.333 27.333 136 82h86c-16 -51.333 -43.167 -91.166 -81.5 -119.499s-85.833 -42.5 -142.5 -42.5c-71.333 0 -129.666 24 -174.999 72
c-45.333 48.667 -68 112 -68 190c0 77.333 22.333 140.333 67 189c45.333 50 104 75 176 75c70 0 125.667 -22.333 167 -67zM173.998 396.499c-27.333 -25.667 -43.667 -59.5 -49 -101.5h295c-0.666992 42.667 -14 76.667 -40 102s-60 38 -102 38
s-76.667 -12.833 -104 -38.5z" />
    <glyph glyph-name="igrave" unicode="&#xec;" 
d="M166 574h-82l-143 158h113zM165 0h-86v504h86v-504z" />
    <glyph glyph-name="iacute" unicode="&#xed;" 
d="M155 574h-82l111 158h114zM165 0h-86v504h86v-504z" />
    <glyph glyph-name="icircumflex" unicode="&#xee;" 
d="M286 574h-96l-68 92l-68 -92h-96l136 158h56zM165 0h-86v504h86v-504z" />
    <glyph glyph-name="idieresis" unicode="&#xef;" 
d="M255 673.5c10.667 -10.333 15.998 -23.166 15.998 -38.499s-5.33301 -28.166 -16 -38.499s-23.667 -15.5 -39 -15.5s-28.166 5.16699 -38.499 15.5s-15.5 23.166 -15.5 38.499s5.33301 28.166 16 38.499s23.334 15.5 38.001 15.5c15.333 0 28.333 -5.16699 39 -15.5z
M28.998 689c15.333 0 28 -5.33301 38 -16c10.667 -10 16 -22.667 16 -38s-5.33301 -28.333 -16 -39c-10 -10 -22.667 -15 -38 -15s-28.333 5 -39 15c-10.667 10.667 -16 23.667 -16 39s5.33301 28 16 38c10.667 10.667 23.667 16 39 16zM164.998 0h-86v504h86v-504z" />
    <glyph glyph-name="eth" unicode="&#xf0;" horiz-adv-x="557" 
d="M426 552h-91.001l120 -151c42.667 -52.667 64 -109.334 64 -170.001c0 -70.667 -22.667 -128.667 -68 -174s-102.666 -68 -171.999 -68c-70 0 -127.667 22.667 -173 68c-44.667 44.667 -67 102.667 -67 174c0 70.667 22.333 128.334 67 173.001
c45.333 45.333 103 68 173 68h12l-63 80h-156v78h94l-79 100h107l79 -100h153v-78zM278.999 393c-45.333 0 -82.333 -15.334 -111 -46.001c-28 -30 -42 -68.667 -42 -116c0 -46.667 14 -85.667 42 -117c28.667 -30.667 65.667 -46 111 -46s82 15.333 110 46
c28.667 30.667 43 69.667 43 117c0 42.667 -14.667 82.334 -44 119.001l-4 4c-26 26 -61 39 -105 39z" />
    <glyph glyph-name="ntilde" unicode="&#xf1;" horiz-adv-x="537" 
d="M266.5 694.5c11.667 -7.66699 23.5 -18.501 35.5 -32.501c7.33301 -10 14 -17.333 20 -22s13.667 -7 23 -7c26 0 39 21.333 39 64h58c0 -39.333 -9 -70.5 -27 -93.5s-43.667 -34.5 -77 -34.5c-21.333 0 -38 3.83301 -50 11.5s-23.667 18.834 -35 33.501
c-7.33301 10 -14 17.333 -20 22s-13.667 7 -23 7c-26 0 -39 -21.667 -39 -65h-58c0 40 9 71.333 27 94s43.667 34 77 34c21.333 0 37.833 -3.83301 49.5 -11.5zM421 463.999c28.667 -34 43.001 -80 43.001 -138v-326h-87v312c0 38 -8.66699 67.333 -26 88s-41.333 31 -72 31
c-34.667 0 -62.834 -14.5 -84.501 -43.5s-32.5 -68.167 -32.5 -117.5v-270h-86v504h77l5 -69c28 53.333 75.333 80 142 80c52 0 92.333 -17 121 -51z" />
    <glyph glyph-name="ograve" unicode="&#xf2;" horiz-adv-x="582" 
d="M335 574h-82l-143 158h113zM474 441c48 -48.667 72 -111.667 72 -189c0 -76.667 -24 -139.667 -72 -189c-47.333 -49.333 -108.333 -74 -183 -74c-75.333 0 -137 24.667 -185 74c-47.333 49.333 -71 112.333 -71 189s23.667 139.667 71 189c48 49.333 109.667 74 185 74
c74.667 0 135.667 -24.667 183 -74zM170 383c-30.667 -33.333 -46 -77 -46 -131c0 -52.667 15.333 -96.334 46 -131.001s71.334 -52 122.001 -52c49.333 0 89 17.333 119 52c30.667 34.667 46 78.334 46 131.001c0 54 -15.333 97.667 -46 131c-30 34.667 -69.667 52 -119 52
c-50.667 0 -91.334 -17.333 -122.001 -52z" />
    <glyph glyph-name="oacute" unicode="&#xf3;" horiz-adv-x="582" 
d="M324 574h-82l111 158h114zM474 441c48 -48.667 72 -111.667 72 -189c0 -76.667 -24 -139.667 -72 -189c-47.333 -49.333 -108.333 -74 -183 -74c-75.333 0 -137 24.667 -185 74c-47.333 49.333 -71 112.333 -71 189s23.667 139.667 71 189c48 49.333 109.667 74 185 74
c74.667 0 135.667 -24.667 183 -74zM170 383c-30.667 -33.333 -46 -77 -46 -131c0 -52.667 15.333 -96.334 46 -131.001s71.334 -52 122.001 -52c49.333 0 89 17.333 119 52c30.667 34.667 46 78.334 46 131.001c0 54 -15.333 97.667 -46 131c-30 34.667 -69.667 52 -119 52
c-50.667 0 -91.334 -17.333 -122.001 -52z" />
    <glyph glyph-name="ocircumflex" unicode="&#xf4;" horiz-adv-x="582" 
d="M454 574h-96l-68 92l-68 -92h-96l136 158h56zM474 441c48 -48.667 72 -111.667 72 -189c0 -76.667 -24 -139.667 -72 -189c-47.333 -49.333 -108.333 -74 -183 -74c-75.333 0 -137 24.667 -185 74c-47.333 49.333 -71 112.333 -71 189s23.667 139.667 71 189
c48 49.333 109.667 74 185 74c74.667 0 135.667 -24.667 183 -74zM170 383c-30.667 -33.333 -46 -77 -46 -131c0 -52.667 15.333 -96.334 46 -131.001s71.334 -52 122.001 -52c49.333 0 89 17.333 119 52c30.667 34.667 46 78.334 46 131.001c0 54 -15.333 97.667 -46 131
c-30 34.667 -69.667 52 -119 52c-50.667 0 -91.334 -17.333 -122.001 -52z" />
    <glyph glyph-name="otilde" unicode="&#xf5;" horiz-adv-x="582" 
d="M280.5 694.5c11.667 -7.66699 23.5 -18.501 35.5 -32.501c7.33301 -10 14 -17.333 20 -22s13.667 -7 23 -7c26 0 39 21.333 39 64h58c0 -39.333 -9 -70.5 -27 -93.5s-43.667 -34.5 -77 -34.5c-21.333 0 -38 3.83301 -50 11.5s-23.667 18.834 -35 33.501
c-7.33301 10 -14 17.333 -20 22s-13.667 7 -23 7c-26 0 -39 -21.667 -39 -65h-58c0 40 9 71.333 27 94s43.667 34 77 34c21.333 0 37.833 -3.83301 49.5 -11.5zM474 440.999c48 -48.667 72 -111.667 72 -189c0 -76.667 -24 -139.667 -72 -189
c-47.333 -49.333 -108.333 -74 -183 -74c-75.333 0 -137 24.667 -185 74c-47.333 49.333 -71 112.333 -71 189s23.667 139.667 71 189c48 49.333 109.667 74 185 74c74.667 0 135.667 -24.667 183 -74zM170 382.999c-30.667 -33.333 -46 -77 -46 -131
c0 -52.667 15.333 -96.334 46 -131.001s71.334 -52 122.001 -52c49.333 0 89 17.333 119 52c30.667 34.667 46 78.334 46 131.001c0 54 -15.333 97.667 -46 131c-30 34.667 -69.667 52 -119 52c-50.667 0 -91.334 -17.333 -122.001 -52z" />
    <glyph glyph-name="odieresis" unicode="&#xf6;" horiz-adv-x="582" 
d="M423 673.5c10.667 -10.333 15.998 -23.166 15.998 -38.499s-5.33301 -28.166 -16 -38.499s-23.667 -15.5 -39 -15.5s-28.166 5.16699 -38.499 15.5s-15.5 23.166 -15.5 38.499s5.33301 28.166 16 38.499s23.334 15.5 38.001 15.5c15.333 0 28.333 -5.16699 39 -15.5z
M196.998 689c15.333 0 28 -5.33398 38 -16.001c10.667 -10 16 -22.667 16 -38s-5.33301 -28.333 -16 -39c-10 -10 -22.667 -15 -38 -15c-14.667 0 -27.667 5 -39 15c-10.667 12 -16 25 -16 39c0 14.667 5.33301 27.334 16 38.001s23.667 16 39 16zM473.998 440.999
c48 -48.667 72 -111.667 72 -189c0 -76.667 -24 -139.667 -72 -189c-47.333 -49.333 -108.333 -74 -183 -74c-75.333 0 -137 24.667 -185 74c-47.333 49.333 -71 112.333 -71 189s23.667 139.667 71 189c48 49.333 109.667 74 185 74c74.667 0 135.667 -24.667 183 -74z
M169.998 382.999c-30.667 -33.333 -46 -77 -46 -131c0 -52.667 15.333 -96.334 46 -131.001s71.334 -52 122.001 -52c49.333 0 89 17.333 119 52c30.667 34.667 46 78.334 46 131.001c0 54 -15.333 97.667 -46 131c-30 34.667 -69.667 52 -119 52
c-50.667 0 -91.334 -17.333 -122.001 -52z" />
    <glyph glyph-name="divide" unicode="&#xf7;" horiz-adv-x="472" 
d="M229 591c17.333 0 31.333 -5.66699 42 -17c12 -10.667 18 -24.667 18 -42c0 -16 -6 -30 -18 -42c-12 -10.667 -26 -16 -42 -16c-15.333 0 -29.333 5.33301 -42 16c-11.333 12.667 -17 26.667 -17 42c0 16.667 5.66699 30.667 17 42s25.333 17 42 17zM442 311h-412v78h412
v-78zM229 226c17.333 0 31.333 -5.66699 42 -17c12 -10.667 18 -24.667 18 -42c0 -16 -6 -30 -18 -42c-12 -10.667 -26 -16 -42 -16c-15.333 0 -29.333 5.33301 -42 16c-11.333 12.667 -17 26.667 -17 42c0 16.667 5.66699 30.667 17 42s25.333 17 42 17z" />
    <glyph glyph-name="oslash" unicode="&#xf8;" horiz-adv-x="582" 
d="M389 497l41 76l54 -24l-43 -80c33.333 -23.333 59.166 -53.833 77.499 -91.5s27.5 -79.5 27.5 -125.5c0 -76.667 -24 -139.667 -72 -189c-47.333 -49.333 -108.333 -74 -183 -74c-33.333 0 -66 5.66699 -98 17l-40 -76l-54 24l42 79
c-70.667 48.667 -106 121.667 -106 219c0 76.667 23.667 139.667 71 189c48 49.333 109.667 74 185 74c32.667 0 65.334 -6 98.001 -18zM170 383c-30.667 -33.333 -45.999 -76.999 -45.999 -130.999c0 -60.667 19.333 -108.334 58 -143.001l168 316
c-18 6.66699 -37.333 10 -58 10c-50.667 0 -91.334 -17.333 -122.001 -52zM401.001 394.001l-169 -315c16 -6.66699 36 -10 60 -10c49.333 0 89 17.333 119 52c30.667 34.667 46 78.334 46 131.001c0 59.333 -18.667 106.666 -56 141.999z" />
    <glyph glyph-name="ugrave" unicode="&#xf9;" horiz-adv-x="528" 
d="M307 574h-82l-143 158h113zM452 0l-77.002 -0.00195312l-5 69c-25.333 -53.333 -71.666 -80 -138.999 -80c-52 0 -92 16.833 -120 50.5s-42 79.834 -42 138.501v326h86v-312c0 -39.333 8.33301 -69.166 25 -89.499s40.334 -30.5 71.001 -30.5c34 0 61.667 13.667 83 41
s32 64.333 32 111v280h86v-504z" />
    <glyph glyph-name="uacute" unicode="&#xfa;" horiz-adv-x="528" 
d="M296 574h-82l111 158h114zM452 0l-77.002 -0.00195312l-5 69c-25.333 -53.333 -71.666 -80 -138.999 -80c-52 0 -92 16.833 -120 50.5s-42 79.834 -42 138.501v326h86v-312c0 -39.333 8.33301 -69.166 25 -89.499s40.334 -30.5 71.001 -30.5c34 0 61.667 13.667 83 41
s32 64.333 32 111v280h86v-504z" />
    <glyph glyph-name="ucircumflex" unicode="&#xfb;" horiz-adv-x="528" 
d="M425 574h-96l-68 92l-68 -92h-96l136 158h56zM452 0l-77.002 -0.00195312l-5 69c-25.333 -53.333 -71.666 -80 -138.999 -80c-52 0 -92 16.833 -120 50.5s-42 79.834 -42 138.501v326h86v-312c0 -39.333 8.33301 -69.166 25 -89.499s40.334 -30.5 71.001 -30.5
c34 0 61.667 13.667 83 41s32 64.333 32 111v280h86v-504z" />
    <glyph glyph-name="udieresis" unicode="&#xfc;" horiz-adv-x="528" 
d="M206 673.5c10.667 -10.333 15.998 -23.166 15.998 -38.499s-5.16699 -28.166 -15.5 -38.499s-23.166 -15.5 -38.499 -15.5s-28.333 5.16699 -39 15.5s-16 23.166 -16 38.499s5.33301 28.166 16 38.499s23.667 15.5 39 15.5c14.667 0 27.334 -5.16699 38.001 -15.5z
M354.998 689c16 0 29 -5.33301 39 -16c10.667 -10 16 -22.667 16 -38s-5.33301 -28.333 -16 -39c-10 -10 -23 -15 -39 -15c-14.667 0 -27.667 5 -39 15c-10 11.333 -15 24.333 -15 39c0 15.333 5 28 15 38c10.667 10.667 23.667 16 39 16zM451.998 0l-77.002 -0.00195312
l-5 69c-25.333 -53.333 -71.666 -80 -138.999 -80c-52 0 -92 16.833 -120 50.5s-42 79.834 -42 138.501v326h86v-312c0 -39.333 8.33301 -69.166 25 -89.499s40.334 -30.5 71.001 -30.5c34 0 61.667 13.667 83 41s32 64.333 32 111v280h86v-504z" />
    <glyph glyph-name="yacute" unicode="&#xfd;" horiz-adv-x="504" 
d="M284 574h-82l111 158h114zM212 -215h-91l84 222l-189 497h92l133 -362l10 -38l10 38l133 362h93z" />
    <glyph glyph-name="thorn" unicode="&#xfe;" horiz-adv-x="609" 
d="M170 436c38 52.667 94.332 79 168.999 79c70 0 126.333 -25 169 -75c43.333 -49.333 65 -112 65 -188c0 -75.333 -22 -138 -66 -188c-43.333 -50 -99.666 -75 -168.999 -75c-76 0 -132 26.667 -168 80v-284h-87v945h87v-294zM214.999 389
c-30 -28.667 -45.667 -68.999 -47 -120.999v-27c0 -52.667 15.333 -94.334 46 -125.001s67.667 -46 111 -46c47.333 0 85.333 17 114 51c30 34 45 77.667 45 131c0 54 -14.5 97.667 -43.5 131s-67.167 50 -114.5 50c-42.667 0 -79.667 -14.667 -111 -44z" />
    <glyph glyph-name="ydieresis" unicode="&#xff;" horiz-adv-x="504" 
d="M383 673.5c10.667 -10.333 15.998 -23.166 15.998 -38.499s-5.33301 -28.166 -16 -38.499s-23.667 -15.5 -39 -15.5s-28.166 5.16699 -38.499 15.5s-15.5 23.166 -15.5 38.499s5.33301 28.166 16 38.499s23.334 15.5 38.001 15.5c15.333 0 28.333 -5.16699 39 -15.5z
M156.998 689c15.333 0 28 -5.33398 38 -16.001c10.667 -10 16 -22.667 16 -38s-5.33301 -28.333 -16 -39c-10 -10 -22.667 -15 -38 -15s-28.333 5 -39 15c-10.667 12 -16 25 -16 39c0 14.667 5.33301 27.334 16 38.001s23.667 16 39 16zM211.998 -215.001h-91l84 222
l-189 497h92l133 -362l10 -38l10 38l133 362h93z" />
    <glyph glyph-name="Amacron" unicode="&#x100;" horiz-adv-x="692" 
d="M476 740h-262v71h262v-71zM674 0h-100l-74 185h-309l-73 -185h-100l281 700h94zM332 545l-110 -275h247l-111 275l-13 38z" />
    <glyph glyph-name="amacron" unicode="&#x101;" horiz-adv-x="494" 
d="M386 595h-262v71h262v-71zM380.5 468c31.667 -31.333 47.5 -76 47.5 -134v-334h-78l-4 69c-14 -24.667 -34.333 -44.167 -61 -58.5s-57.334 -21.5 -92.001 -21.5c-44.667 0 -80.334 12.833 -107.001 38.5s-40 60.167 -40 103.5c0 79.333 47 128 141 146l154 29v25
c0 69.333 -31 104 -93 104c-30.667 0 -55.5 -8.16699 -74.5 -24.5s-28.5 -38.833 -28.5 -67.5h-85c0.666992 49.333 18.667 90.333 54 123c34.667 32.667 79.334 49 134.001 49c56.667 0 100.834 -15.667 132.501 -47zM203 201c-23.333 -6 -40.833 -14.168 -52.5 -24.501
s-17.5 -25.166 -17.5 -44.499c0 -20 6.66699 -35.5 20 -46.5s32.333 -16.5 57 -16.5c44 0 78 16.667 102 50c19.333 26.667 29 57.667 29 93v19z" />
    <glyph glyph-name="Abreve" unicode="&#x102;" horiz-adv-x="692" 
d="M449 763c-26.667 -22.667 -61.333 -34 -104 -34c-43.333 0 -78.166 11.333 -104.499 34s-39.5 52.334 -39.5 89.001h74c0 -18.667 6.16699 -33.5 18.5 -44.5s29.5 -16.5 51.5 -16.5c21.333 0 38.166 5.5 50.499 16.5s18.5 25.833 18.5 44.5h75
c0 -36.667 -13.333 -66.334 -40 -89.001zM674.001 0h-100l-74 185h-309l-73 -185h-100l281 700h94zM332.001 545l-110 -275h247l-111 275l-13 38z" />
    <glyph glyph-name="abreve" unicode="&#x103;" horiz-adv-x="494" 
d="M356 608c-26.667 -26 -61.332 -38.999 -103.999 -38.999s-77.334 13 -104.001 39s-40 59.333 -40 100h74c0 -22.667 6.33301 -41.334 19 -56.001s29.667 -22 51 -22c20 0 36.667 7.5 50 22.5s20 33.5 20 55.5h74c0 -40.667 -13.333 -74 -40 -100zM380.502 468.001
c31.667 -31.333 47.5 -76 47.5 -134v-334h-78l-4 69c-14 -24.667 -34.333 -44.167 -61 -58.5s-57.334 -21.5 -92.001 -21.5c-44.667 0 -80.334 12.833 -107.001 38.5s-40 60.167 -40 103.5c0 79.333 47 128 141 146l154 29v25c0 69.333 -31 104 -93 104
c-30.667 0 -55.5 -8.16699 -74.5 -24.5s-28.5 -38.833 -28.5 -67.5h-85c0.666992 49.333 18.667 90.333 54 123c34.667 32.667 79.334 49 134.001 49c56.667 0 100.834 -15.667 132.501 -47zM203.002 201.001c-23.333 -6 -40.833 -14.168 -52.5 -24.501
s-17.5 -25.166 -17.5 -44.499c0 -20 6.66699 -35.5 20 -46.5s32.333 -16.5 57 -16.5c44 0 78 16.667 102 50c19.333 26.667 29 57.667 29 93v19z" />
    <glyph glyph-name="Aogonek" unicode="&#x104;" horiz-adv-x="692" 
d="M674 0h-23.001c-42.667 -18.667 -64 -47 -64 -85c0 -17.333 4.83301 -31 14.5 -41s22.834 -15 39.501 -15c18.667 0 33 3 43 9l14 -54c-14 -8 -33.667 -12 -59 -12c-33.333 0 -60.5 10.167 -81.5 30.5s-31.5 47.166 -31.5 80.499c0 38.667 15.333 69.334 46 92.001
l-72 180h-309l-73 -185h-100l281 700h94zM331.999 545l-110 -275h247l-111 275l-13 38z" />
    <glyph glyph-name="aogonek" unicode="&#x105;" horiz-adv-x="494" 
d="M380.5 468c31.667 -31.333 47.499 -76 47.499 -134v-334h-6c-42.667 -18.667 -64 -47 -64 -85c0 -17.333 4.83301 -31 14.5 -41s22.834 -15 39.501 -15c18.667 0 33 3 43 9l14 -54c-14 -8 -33.667 -12 -59 -12c-33.333 0 -60.5 10.167 -81.5 30.5
s-31.5 47.166 -31.5 80.499c0 40.667 17.333 73.334 52 98.001l-3 58c-14 -24.667 -34.333 -44.167 -61 -58.5s-57.334 -21.5 -92.001 -21.5c-44.667 0 -80.334 12.833 -107.001 38.5s-40 60.167 -40 103.5c0 79.333 47 128 141 146l154 29v25c0 69.333 -31 104 -93 104
c-30.667 0 -55.5 -8.16699 -74.5 -24.5s-28.5 -38.833 -28.5 -67.5h-85c0.666992 49.333 18.667 90.333 54 123c34.667 32.667 79.334 49 134.001 49c56.667 0 100.834 -15.667 132.501 -47zM202.999 201c-23.333 -6 -40.833 -14.168 -52.5 -24.501
s-17.5 -25.166 -17.5 -44.499c0 -20 6.66699 -35.5 20 -46.5s32.333 -16.5 57 -16.5c44 0 78 16.667 102 50c19.333 26.667 29 57.667 29 93v19z" />
    <glyph glyph-name="Cacute" unicode="&#x106;" horiz-adv-x="728" 
d="M423 742h-97l97 109h131zM586.5 655c53.667 -38.667 90.498 -93.0029 110.498 -163.003h-101c-32.667 90.667 -102.667 136 -210 136c-74 0 -134.333 -26.333 -181 -79c-46.667 -51.333 -70 -117.666 -70 -198.999c0 -80 23.333 -146.333 70 -199
s107.334 -79 182.001 -79c54 0 99.333 12.333 136 37s62.334 58.667 77.001 102h98c-20 -72 -56.667 -127.333 -110 -166s-120.333 -58 -201 -58c-102 0 -185.333 34.333 -250 103s-97 155.334 -97 260.001s32.333 191.334 97 260.001s147.667 103 249 103
c80 0 146.833 -19.333 200.5 -58z" />
    <glyph glyph-name="cacute" unicode="&#x107;" horiz-adv-x="544" 
d="M313 574h-82l111 158h114zM426 471c40 -29.333 65.999 -70.6689 77.999 -124.002h-86c-10 28 -27.167 49.667 -51.5 65s-52.833 23 -85.5 23c-45.333 0 -83 -17.333 -113 -52c-29.333 -35.333 -44 -79.333 -44 -132c0 -51.333 15 -94.666 45 -129.999
c30 -34.667 68 -52 114 -52c32 0 60.333 8 85 24s41.334 37.333 50.001 64h87c-13.333 -53.333 -40 -94.666 -80 -123.999s-88.333 -44 -145 -44c-71.333 0 -130 24.667 -176 74s-69 112 -69 188s23 139 69 189c47.333 50 106 75 176 75c57.333 0 106 -14.667 146 -44z" />
    <glyph glyph-name="Ccircumflex" unicode="&#x108;" horiz-adv-x="728" 
d="M557 741h-109l-63 55l-62 -55h-108l143 113h56zM586.5 655c53.667 -38.667 90.498 -93.0029 110.498 -163.003h-101c-32.667 90.667 -102.667 136 -210 136c-74 0 -134.333 -26.333 -181 -79c-46.667 -51.333 -70 -117.666 -70 -198.999c0 -80 23.333 -146.333 70 -199
s107.334 -79 182.001 -79c54 0 99.333 12.333 136 37s62.334 58.667 77.001 102h98c-20 -72 -56.667 -127.333 -110 -166s-120.333 -58 -201 -58c-102 0 -185.333 34.333 -250 103s-97 155.334 -97 260.001s32.333 191.334 97 260.001s147.667 103 249 103
c80 0 146.833 -19.333 200.5 -58z" />
    <glyph glyph-name="ccircumflex" unicode="&#x109;" horiz-adv-x="544" 
d="M443 574h-96l-68 92l-68 -92h-96l136 158h56zM426 471c40 -29.333 65.999 -70.6689 77.999 -124.002h-86c-10 28 -27.167 49.667 -51.5 65s-52.833 23 -85.5 23c-45.333 0 -83 -17.333 -113 -52c-29.333 -35.333 -44 -79.333 -44 -132c0 -51.333 15 -94.666 45 -129.999
c30 -34.667 68 -52 114 -52c32 0 60.333 8 85 24s41.334 37.333 50.001 64h87c-13.333 -53.333 -40 -94.666 -80 -123.999s-88.333 -44 -145 -44c-71.333 0 -130 24.667 -176 74s-69 112 -69 188s23 139 69 189c47.333 50 106 75 176 75c57.333 0 106 -14.667 146 -44z" />
    <glyph glyph-name="Cdotaccent" unicode="&#x10a;" horiz-adv-x="728" 
d="M425.5 838c11 -10.667 16.5 -23.667 16.5 -39c0 -16 -5.5 -29.333 -16.5 -40s-24.167 -16 -39.5 -16c-16 0 -29.5 5.33301 -40.5 16s-16.5 24 -16.5 40c0 15.333 5.5 28.333 16.5 39s24.5 16 40.5 16c15.333 0 28.5 -5.33301 39.5 -16zM586.5 655
c53.667 -38.667 90.498 -93.0029 110.498 -163.003h-101c-32.667 90.667 -102.667 136 -210 136c-74 0 -134.333 -26.333 -181 -79c-46.667 -51.333 -70 -117.666 -70 -198.999c0 -80 23.333 -146.333 70 -199s107.334 -79 182.001 -79c54 0 99.333 12.333 136 37
s62.334 58.667 77.001 102h98c-20 -72 -56.667 -127.333 -110 -166s-120.333 -58 -201 -58c-102 0 -185.333 34.333 -250 103s-97 155.334 -97 260.001s32.333 191.334 97 260.001s147.667 103 249 103c80 0 146.833 -19.333 200.5 -58z" />
    <glyph glyph-name="cdotaccent" unicode="&#x10b;" horiz-adv-x="544" 
d="M321.5 602c-11.667 -11.333 -25.834 -17 -42.501 -17s-30.667 5.66699 -42 17s-17 25 -17 41c0 16.667 5.66699 30.667 17 42s25.333 17 42 17s30.834 -5.66699 42.501 -17s17.5 -25.333 17.5 -42c0 -16 -5.83301 -29.667 -17.5 -41zM426 471
c40 -29.333 65.999 -70.6689 77.999 -124.002h-86c-10 28 -27.167 49.667 -51.5 65s-52.833 23 -85.5 23c-45.333 0 -83 -17.333 -113 -52c-29.333 -35.333 -44 -79.333 -44 -132c0 -51.333 15 -94.666 45 -129.999c30 -34.667 68 -52 114 -52c32 0 60.333 8 85 24
s41.334 37.333 50.001 64h87c-13.333 -53.333 -40 -94.666 -80 -123.999s-88.333 -44 -145 -44c-71.333 0 -130 24.667 -176 74s-69 112 -69 188s23 139 69 189c47.333 50 106 75 176 75c57.333 0 106 -14.667 146 -44z" />
    <glyph glyph-name="Ccaron" unicode="&#x10c;" horiz-adv-x="728" 
d="M414 738h-56l-143 113h108l62 -55l63 55h109zM586.5 655c53.667 -38.667 90.498 -93.0029 110.498 -163.003h-101c-32.667 90.667 -102.667 136 -210 136c-74 0 -134.333 -26.333 -181 -79c-46.667 -51.333 -70 -117.666 -70 -198.999c0 -80 23.333 -146.333 70 -199
s107.334 -79 182.001 -79c54 0 99.333 12.333 136 37s62.334 58.667 77.001 102h98c-20 -72 -56.667 -127.333 -110 -166s-120.333 -58 -201 -58c-102 0 -185.333 34.333 -250 103s-97 155.334 -97 260.001s32.333 191.334 97 260.001s147.667 103 249 103
c80 0 146.833 -19.333 200.5 -58z" />
    <glyph glyph-name="ccaron" unicode="&#x10d;" horiz-adv-x="544" 
d="M307 563h-56l-136 158h96l68 -92l68 92h96zM426 471c40 -29.333 65.999 -70.6689 77.999 -124.002h-86c-10 28 -27.167 49.667 -51.5 65s-52.833 23 -85.5 23c-45.333 0 -83 -17.333 -113 -52c-29.333 -35.333 -44 -79.333 -44 -132c0 -51.333 15 -94.666 45 -129.999
c30 -34.667 68 -52 114 -52c32 0 60.333 8 85 24s41.334 37.333 50.001 64h87c-13.333 -53.333 -40 -94.666 -80 -123.999s-88.333 -44 -145 -44c-71.333 0 -130 24.667 -176 74s-69 112 -69 188s23 139 69 189c47.333 50 106 75 176 75c57.333 0 106 -14.667 146 -44z" />
    <glyph glyph-name="Dcaron" unicode="&#x10e;" horiz-adv-x="729" 
d="M361 728h-56l-143 113h108l62 -55l63 55h109zM588 604c64.667 -64 97 -148.667 97 -254s-32.333 -190 -97 -254c-64 -64 -150 -96 -258 -96h-252v700h252c108 0 194 -32 258 -96zM169 85h161c80.667 0 144.5 23.667 191.5 71s70.5 112 70.5 194
c0 82.667 -23.333 147.5 -70 194.5s-110.667 70.5 -192 70.5h-161v-530z" />
    <glyph glyph-name="dcaron" unicode="&#x10f;" horiz-adv-x="732" 
d="M525 0l-76.999 -0.000976562l-5 74c-38.667 -56.667 -96.334 -85 -173.001 -85c-70 0 -126.667 24.667 -170 74c-43.333 50.667 -65 113.667 -65 189c0 74.667 21.667 137.334 65 188.001c44 50 101 75 171 75c76.667 0 132.667 -26.667 168 -80v295h86v-730z
M703.001 705.999c11.333 -12 16.999 -27.668 16.999 -47.001c0 -62.667 -24.333 -121.667 -73 -177l-28 11c18 33.333 29.667 71 35 113c-16 1.33301 -29.167 7.33301 -39.5 18s-15.5 24 -15.5 40c0 16.667 5.83301 30.834 17.5 42.501s25.834 17.5 42.501 17.5
c18 0 32.667 -6 44 -18zM169 381.998c-30 -32.667 -45.002 -76 -45.002 -130s14.5 -97.833 43.5 -131.5s67.5 -50.5 115.5 -50.5c42.667 0 79.334 16.333 110.001 49c31.333 33.333 47 76 47 128v5c0 54 -15.667 97.667 -47 131s-67.666 50 -108.999 50
c-46.667 0 -85 -17 -115 -51z" />
    <glyph glyph-name="Dcroat" unicode="&#x110;" horiz-adv-x="738" 
d="M597 604c64.667 -64 97 -148.667 97 -254s-32.333 -190 -97 -254c-64 -64 -150 -96 -258 -96h-252v318h-86v70h86v312h252c108 0 194 -32 258 -96zM178 388h131v-70h-131v-233h161c80.667 0 144.5 23.667 191.5 71s70.5 112 70.5 194c0 82.667 -23.333 147.5 -70 194.5
s-110.667 70.5 -192 70.5h-161v-227z" />
    <glyph glyph-name="dslash" unicode="&#x111;" horiz-adv-x="606" 
d="M525 670l76.001 -0.000976562v-68h-76v-602h-77l-5 74c-38.667 -56.667 -96.334 -85 -173.001 -85c-70 0 -126.667 24.667 -170 74c-43.333 50.667 -65 113.667 -65 189c0 74.667 21.667 137.334 65 188.001c44 50 101 75 171 75c76.667 0 132.667 -26.667 168 -80v167
h-104v68h104v60h86v-60zM169.001 381.999c-30 -32.667 -45.002 -76 -45.002 -130s14.5 -97.833 43.5 -131.5s67.5 -50.5 115.5 -50.5c42.667 0 79.334 16.333 110.001 49c31.333 33.333 47 76 47 128v5c0 54 -15.667 97.667 -47 131s-67.666 50 -108.999 50
c-46.667 0 -85 -17 -115 -51z" />
    <glyph glyph-name="Emacron" unicode="&#x112;" horiz-adv-x="510" 
d="M406 740h-262v71h262v-71zM463 615h-294v-212h259v-85h-259v-233h294v-85h-385v700h385v-85z" />
    <glyph glyph-name="emacron" unicode="&#x113;" horiz-adv-x="553" 
d="M404 595h-262v71h262v-71zM445 448c41.333 -44.667 62 -107.668 62 -189.001v-41h-383c3.33301 -46 19.166 -82.333 47.499 -109s64.5 -40 108.5 -40c70 0 115.333 27.333 136 82h86c-16 -51.333 -43.167 -91.166 -81.5 -119.499s-85.833 -42.5 -142.5 -42.5
c-71.333 0 -129.666 24 -174.999 72c-45.333 48.667 -68 112 -68 190c0 77.333 22.333 140.333 67 189c45.333 50 104 75 176 75c70 0 125.667 -22.333 167 -67zM174 396.499c-27.333 -25.667 -43.667 -59.5 -49 -101.5h295c-0.666992 42.667 -14 76.667 -40 102
s-60 38 -102 38s-76.667 -12.833 -104 -38.5z" />
    <glyph glyph-name="Ebreve" unicode="&#x114;" horiz-adv-x="510" 
d="M383 763c-26.667 -22.667 -61.333 -34 -104 -34c-43.333 0 -78.166 11.333 -104.499 34s-39.5 52.334 -39.5 89.001h74c0 -18.667 6.16699 -33.5 18.5 -44.5s29.5 -16.5 51.5 -16.5c21.333 0 38.166 5.5 50.499 16.5s18.5 25.833 18.5 44.5h75
c0 -36.667 -13.333 -66.334 -40 -89.001zM463.001 615h-294v-212h259v-85h-259v-233h294v-85h-385v700h385v-85z" />
    <glyph glyph-name="ebreve" unicode="&#x115;" horiz-adv-x="553" 
d="M377 608c-26.667 -26 -61.332 -38.999 -103.999 -38.999s-77.334 13 -104.001 39s-40 59.333 -40 100h74c0 -22.667 6.33301 -41.334 19 -56.001s29.667 -22 51 -22c20 0 36.667 7.5 50 22.5s20 33.5 20 55.5h74c0 -40.667 -13.333 -74 -40 -100zM445.002 448.001
c41.333 -44.667 62 -107.668 62 -189.001v-41h-383c3.33301 -46 19.166 -82.333 47.499 -109s64.5 -40 108.5 -40c70 0 115.333 27.333 136 82h86c-16 -51.333 -43.167 -91.166 -81.5 -119.499s-85.833 -42.5 -142.5 -42.5c-71.333 0 -129.666 24 -174.999 72
c-45.333 48.667 -68 112 -68 190c0 77.333 22.333 140.333 67 189c45.333 50 104 75 176 75c70 0 125.667 -22.333 167 -67zM174.002 396.5c-27.333 -25.667 -43.667 -59.5 -49 -101.5h295c-0.666992 42.667 -14 76.667 -40 102s-60 38 -102 38s-76.667 -12.833 -104 -38.5z
" />
    <glyph glyph-name="Edotaccent" unicode="&#x116;" horiz-adv-x="510" 
d="M318.5 828c11 -10.667 16.5 -23.667 16.5 -39c0 -16 -5.5 -29.333 -16.5 -40s-24.167 -16 -39.5 -16c-16 0 -29.5 5.33301 -40.5 16s-16.5 24 -16.5 40c0 15.333 5.5 28.333 16.5 39s24.5 16 40.5 16c15.333 0 28.5 -5.33301 39.5 -16zM463 615h-294v-212h259v-85h-259
v-233h294v-85h-385v700h385v-85z" />
    <glyph glyph-name="edotaccent" unicode="&#x117;" horiz-adv-x="553" 
d="M315.5 602c-11.667 -11.333 -25.834 -17 -42.501 -17s-30.667 5.66699 -42 17s-17 25 -17 41c0 16.667 5.66699 30.667 17 42s25.333 17 42 17s30.834 -5.66699 42.501 -17s17.5 -25.333 17.5 -42c0 -16 -5.83301 -29.667 -17.5 -41zM445 448
c41.333 -44.667 62 -107.668 62 -189.001v-41h-383c3.33301 -46 19.166 -82.333 47.499 -109s64.5 -40 108.5 -40c70 0 115.333 27.333 136 82h86c-16 -51.333 -43.167 -91.166 -81.5 -119.499s-85.833 -42.5 -142.5 -42.5c-71.333 0 -129.666 24 -174.999 72
c-45.333 48.667 -68 112 -68 190c0 77.333 22.333 140.333 67 189c45.333 50 104 75 176 75c70 0 125.667 -22.333 167 -67zM174 396.499c-27.333 -25.667 -43.667 -59.5 -49 -101.5h295c-0.666992 42.667 -14 76.667 -40 102s-60 38 -102 38s-76.667 -12.833 -104 -38.5z
" />
    <glyph glyph-name="Eogonek" unicode="&#x118;" horiz-adv-x="510" 
d="M463 615l-294.001 0.000976562v-212h259v-85h-259v-233h294v-85h-31c-42.667 -18.667 -64 -47 -64 -85c0 -17.333 4.83301 -31 14.5 -41s22.834 -15 39.501 -15c18.667 0 33 3 43 9l14 -54c-14 -8 -33.667 -12 -59 -12c-33.333 0 -60.5 10.167 -81.5 30.5
s-31.5 47.166 -31.5 80.499c0 35.333 13 64.333 39 87h-268v700h385v-85z" />
    <glyph glyph-name="eogonek" unicode="&#x119;" horiz-adv-x="553" 
d="M445 448c41.333 -44.667 61.999 -107.668 61.999 -189.001v-41h-383c3.33301 -46 19.166 -82.333 47.499 -109s64.5 -40 108.5 -40c70 0 115.333 27.333 136 82h86c-16.667 -53.333 -45.667 -94.666 -87 -123.999h1l-6 -3l-19 -11c-26 -16 -39 -39.667 -39 -71
c0 -17.333 4.83301 -31 14.5 -41s22.834 -15 39.501 -15c18.667 0 33 3 43 9l14 -54c-14 -8 -33.667 -12 -59 -12c-33.333 0 -60.5 10.167 -81.5 30.5s-31.5 47.166 -31.5 80.499c0 20.667 3.33301 37.334 10 50.001l-23 -1c-71.333 0 -129.666 24 -174.999 72
c-45.333 48.667 -68 112 -68 190c0 77.333 22.333 140.333 67 189c45.333 50 104 75 176 75c70 0 125.667 -22.333 167 -67zM173.999 396.499c-27.333 -25.667 -43.667 -59.5 -49 -101.5h295c-0.666992 42.667 -14 76.667 -40 102s-60 38 -102 38
s-76.667 -12.833 -104 -38.5z" />
    <glyph glyph-name="Ecaron" unicode="&#x11a;" horiz-adv-x="510" 
d="M307 728h-56l-143 113h108l62 -55l63 55h109zM463 615h-294v-212h259v-85h-259v-233h294v-85h-385v700h385v-85z" />
    <glyph glyph-name="ecaron" unicode="&#x11b;" horiz-adv-x="553" 
d="M301 563h-56l-136 158h96l68 -92l68 92h96zM445 448c41.333 -44.667 62 -107.668 62 -189.001v-41h-383c3.33301 -46 19.166 -82.333 47.499 -109s64.5 -40 108.5 -40c70 0 115.333 27.333 136 82h86c-16 -51.333 -43.167 -91.166 -81.5 -119.499
s-85.833 -42.5 -142.5 -42.5c-71.333 0 -129.666 24 -174.999 72c-45.333 48.667 -68 112 -68 190c0 77.333 22.333 140.333 67 189c45.333 50 104 75 176 75c70 0 125.667 -22.333 167 -67zM174 396.499c-27.333 -25.667 -43.667 -59.5 -49 -101.5h295
c-0.666992 42.667 -14 76.667 -40 102s-60 38 -102 38s-76.667 -12.833 -104 -38.5z" />
    <glyph glyph-name="Gcircumflex" unicode="&#x11c;" horiz-adv-x="753" 
d="M557 741h-109l-63 55l-62 -55h-108l143 113h56zM586.5 655c53.667 -38.667 90.501 -93.002 110.501 -163.002h-101c-32.667 90.667 -103 136 -211 136c-73.333 0 -133.333 -26.333 -180 -79c-46.667 -51.333 -70 -117.666 -70 -198.999c0 -80 23.333 -146.333 70 -199
s107.667 -79 183 -79c67.333 0 120.666 17.333 159.999 52s60 84.667 62 150h-210v85h306v-47c0 -102 -28.333 -181.667 -85 -239c-57.333 -57.333 -135 -86 -233 -86c-102 0 -185.333 34.333 -250 103c-65.333 69.333 -98 156 -98 260c0 104.667 32.333 191.334 97 260.001
s147.667 103 249 103c80 0 146.833 -19.333 200.5 -58z" />
    <glyph glyph-name="gcircumflex" unicode="&#x11d;" horiz-adv-x="501" 
d="M421 574h-96l-68 92l-68 -92h-96l136 158h56zM506 428l-87.999 -0.00195312c16.667 -27.333 25 -58.666 25 -93.999c0 -51.333 -17.667 -94 -53 -128c-34.667 -34 -81 -51 -139 -51c-40.667 0 -77 9 -109 27c-13.333 -13.333 -20 -30 -20 -50
c0 -16 5.83301 -28.5 17.5 -37.5s27.167 -13.5 46.5 -13.5h134c52 0 91.5 -11.833 118.5 -35.5s40.5 -57.5 40.5 -101.5c0 -53.333 -18.833 -95 -56.5 -125s-88.834 -45 -153.501 -45c-70.667 0 -125 13.667 -163 41s-57 66 -57 116c0 40.667 18.333 71 55 91
c-19.333 10 -35.333 24.333 -48 43s-19 39.334 -19 62.001c0 44 17.333 78.333 52 103c-21.333 29.333 -32 64 -32 104c0 52.667 17.667 96 53 130c36 34 83 51 141 51c24 0 48 -3.66699 72 -11h183v-76zM172.001 259.998c20 -19.333 46 -29 78 -29s58 9.66699 78 29
s30 44 30 74c0 30.667 -10 55.834 -30 75.501s-46 29.5 -78 29.5s-58 -9.83301 -78 -29.5s-30 -44.834 -30 -75.501c0 -30 10 -54.667 30 -74zM153.501 -15.002c-13 -12 -19.501 -29 -19.501 -51c0 -27.333 11.833 -48.166 35.5 -62.499s56.834 -21.5 99.501 -21.5
c40 0 70.833 7.66699 92.5 23s32.5 37.666 32.5 66.999c0 43.333 -30.333 65 -91 65h-96c-22.667 -1.33301 -40.5 -8 -53.5 -20z" />
    <glyph glyph-name="Gbreve" unicode="&#x11e;" horiz-adv-x="753" 
d="M490 773c-26.667 -22.667 -61.333 -34 -104 -34c-43.333 0 -78.166 11.333 -104.499 34s-39.5 52.334 -39.5 89.001h74c0 -18.667 6.16699 -33.5 18.5 -44.5s29.5 -16.5 51.5 -16.5c21.333 0 38.166 5.5 50.499 16.5s18.5 25.833 18.5 44.5h75
c0 -36.667 -13.333 -66.334 -40 -89.001zM586.501 655c53.667 -38.667 90.501 -93.002 110.501 -163.002h-101c-32.667 90.667 -103 136 -211 136c-73.333 0 -133.333 -26.333 -180 -79c-46.667 -51.333 -70 -117.666 -70 -198.999c0 -80 23.333 -146.333 70 -199
s107.667 -79 183 -79c67.333 0 120.666 17.333 159.999 52s60 84.667 62 150h-210v85h306v-47c0 -102 -28.333 -181.667 -85 -239c-57.333 -57.333 -135 -86 -233 -86c-102 0 -185.333 34.333 -250 103c-65.333 69.333 -98 156 -98 260c0 104.667 32.333 191.334 97 260.001
s147.667 103 249 103c80 0 146.833 -19.333 200.5 -58z" />
    <glyph glyph-name="gbreve" unicode="&#x11f;" horiz-adv-x="501" 
d="M361 608c-26.667 -26 -61.332 -38.999 -103.999 -38.999s-77.334 13 -104.001 39s-40 59.333 -40 100h74c0 -22.667 6.33301 -41.334 19 -56.001s29.667 -22 51 -22c20 0 36.667 7.5 50 22.5s20 33.5 20 55.5h74c0 -40.667 -13.333 -74 -40 -100zM506.002 428.001
l-87.999 -0.00195312c16.667 -27.333 25 -58.666 25 -93.999c0 -51.333 -17.667 -94 -53 -128c-34.667 -34 -81 -51 -139 -51c-40.667 0 -77 9 -109 27c-13.333 -13.333 -20 -30 -20 -50c0 -16 5.83301 -28.5 17.5 -37.5s27.167 -13.5 46.5 -13.5h134
c52 0 91.5 -11.833 118.5 -35.5s40.5 -57.5 40.5 -101.5c0 -53.333 -18.833 -95 -56.5 -125s-88.834 -45 -153.501 -45c-70.667 0 -125 13.667 -163 41s-57 66 -57 116c0 40.667 18.333 71 55 91c-19.333 10 -35.333 24.333 -48 43s-19 39.334 -19 62.001
c0 44 17.333 78.333 52 103c-21.333 29.333 -32 64 -32 104c0 52.667 17.667 96 53 130c36 34 83 51 141 51c24 0 48 -3.66699 72 -11h183v-76zM172.003 259.999c20 -19.333 46 -29 78 -29s58 9.66699 78 29s30 44 30 74c0 30.667 -10 55.834 -30 75.501s-46 29.5 -78 29.5
s-58 -9.83301 -78 -29.5s-30 -44.834 -30 -75.501c0 -30 10 -54.667 30 -74zM153.503 -15.001c-13 -12 -19.501 -29 -19.501 -51c0 -27.333 11.833 -48.166 35.5 -62.499s56.834 -21.5 99.501 -21.5c40 0 70.833 7.66699 92.5 23s32.5 37.666 32.5 66.999
c0 43.333 -30.333 65 -91 65h-96c-22.667 -1.33301 -40.5 -8 -53.5 -20z" />
    <glyph glyph-name="Gdotaccent" unicode="&#x120;" horiz-adv-x="753" 
d="M425.5 838c11 -10.667 16.5 -23.667 16.5 -39c0 -16 -5.5 -29.333 -16.5 -40s-24.167 -16 -39.5 -16c-16 0 -29.5 5.33301 -40.5 16s-16.5 24 -16.5 40c0 15.333 5.5 28.333 16.5 39s24.5 16 40.5 16c15.333 0 28.5 -5.33301 39.5 -16zM586.5 655
c53.667 -38.667 90.501 -93.002 110.501 -163.002h-101c-32.667 90.667 -103 136 -211 136c-73.333 0 -133.333 -26.333 -180 -79c-46.667 -51.333 -70 -117.666 -70 -198.999c0 -80 23.333 -146.333 70 -199s107.667 -79 183 -79c67.333 0 120.666 17.333 159.999 52
s60 84.667 62 150h-210v85h306v-47c0 -102 -28.333 -181.667 -85 -239c-57.333 -57.333 -135 -86 -233 -86c-102 0 -185.333 34.333 -250 103c-65.333 69.333 -98 156 -98 260c0 104.667 32.333 191.334 97 260.001s147.667 103 249 103c80 0 146.833 -19.333 200.5 -58z
" />
    <glyph glyph-name="gdotaccent" unicode="&#x121;" horiz-adv-x="501" 
d="M297.5 602c-11.667 -11.333 -25.834 -17 -42.501 -17s-30.667 5.66699 -42 17s-17 25 -17 41c0 16.667 5.66699 30.667 17 42s25.333 17 42 17s30.834 -5.66699 42.501 -17s17.5 -25.333 17.5 -42c0 -16 -5.83301 -29.667 -17.5 -41zM506 428l-87.999 -0.00195312
c16.667 -27.333 25 -58.666 25 -93.999c0 -51.333 -17.667 -94 -53 -128c-34.667 -34 -81 -51 -139 -51c-40.667 0 -77 9 -109 27c-13.333 -13.333 -20 -30 -20 -50c0 -16 5.83301 -28.5 17.5 -37.5s27.167 -13.5 46.5 -13.5h134c52 0 91.5 -11.833 118.5 -35.5
s40.5 -57.5 40.5 -101.5c0 -53.333 -18.833 -95 -56.5 -125s-88.834 -45 -153.501 -45c-70.667 0 -125 13.667 -163 41s-57 66 -57 116c0 40.667 18.333 71 55 91c-19.333 10 -35.333 24.333 -48 43s-19 39.334 -19 62.001c0 44 17.333 78.333 52 103
c-21.333 29.333 -32 64 -32 104c0 52.667 17.667 96 53 130c36 34 83 51 141 51c24 0 48 -3.66699 72 -11h183v-76zM172.001 259.998c20 -19.333 46 -29 78 -29s58 9.66699 78 29s30 44 30 74c0 30.667 -10 55.834 -30 75.501s-46 29.5 -78 29.5s-58 -9.83301 -78 -29.5
s-30 -44.834 -30 -75.501c0 -30 10 -54.667 30 -74zM153.501 -15.002c-13 -12 -19.501 -29 -19.501 -51c0 -27.333 11.833 -48.166 35.5 -62.499s56.834 -21.5 99.501 -21.5c40 0 70.833 7.66699 92.5 23s32.5 37.666 32.5 66.999c0 43.333 -30.333 65 -91 65h-96
c-22.667 -1.33301 -40.5 -8 -53.5 -20z" />
    <glyph glyph-name="Gcommaaccent" unicode="&#x122;" horiz-adv-x="753" 
d="M586.5 655c53.667 -38.667 90.501 -93.002 110.501 -163.002h-101c-32.667 90.667 -103 136 -211 136c-73.333 0 -133.333 -26.333 -180 -79c-46.667 -51.333 -70 -117.666 -70 -198.999c0 -80 23.333 -146.333 70 -199s107.667 -79 183 -79
c67.333 0 120.666 17.333 159.999 52s60 84.667 62 150h-210v85h306v-47c0 -102 -28.333 -181.667 -85 -239c-57.333 -57.333 -135 -86 -233 -86c-102 0 -185.333 34.333 -250 103c-65.333 69.333 -98 156 -98 260c0 104.667 32.333 191.334 97 260.001s147.667 103 249 103
c80 0 146.833 -19.333 200.5 -58zM432.001 -196.502c-13.333 -29.667 -30.998 -55.499 -52.998 -77.499l-25 15c18 28 28.667 59.667 32 95c-16 1.33301 -29 7.33301 -39 18s-15 24 -15 40c0 17.333 5.66699 31.666 17 42.999s25.666 17 42.999 17s31.666 -6 42.999 -18
s17 -27.667 17 -47c0 -27.333 -6.66699 -55.833 -20 -85.5z" />
    <glyph glyph-name="gcommaaccent" unicode="&#x123;" horiz-adv-x="501" 
d="M262 684c16 -1.33301 29.001 -7.33203 39.001 -17.999s15 -24 15 -40c0 -16.667 -5.83301 -30.834 -17.5 -42.501s-25.834 -17.5 -42.501 -17.5c-17.333 0 -31.833 6.16699 -43.5 18.5s-17.5 28.166 -17.5 47.499c0.666992 29.333 7.5 59.833 20.5 91.5
s30.5 59.834 52.5 84.501l28 -11c-18.667 -34 -30 -71.667 -34 -113zM506.001 428.001l-87.999 -0.00195312c16.667 -27.333 25 -58.666 25 -93.999c0 -51.333 -17.667 -94 -53 -128c-34.667 -34 -81 -51 -139 -51c-40.667 0 -77 9 -109 27c-13.333 -13.333 -20 -30 -20 -50
c0 -16 5.83301 -28.5 17.5 -37.5s27.167 -13.5 46.5 -13.5h134c52 0 91.5 -11.833 118.5 -35.5s40.5 -57.5 40.5 -101.5c0 -53.333 -18.833 -95 -56.5 -125s-88.834 -45 -153.501 -45c-70.667 0 -125 13.667 -163 41s-57 66 -57 116c0 40.667 18.333 71 55 91
c-19.333 10 -35.333 24.333 -48 43s-19 39.334 -19 62.001c0 44 17.333 78.333 52 103c-21.333 29.333 -32 64 -32 104c0 52.667 17.667 96 53 130c36 34 83 51 141 51c24 0 48 -3.66699 72 -11h183v-76zM172.002 259.999c20 -19.333 46 -29 78 -29s58 9.66699 78 29
s30 44 30 74c0 30.667 -10 55.834 -30 75.501s-46 29.5 -78 29.5s-58 -9.83301 -78 -29.5s-30 -44.834 -30 -75.501c0 -30 10 -54.667 30 -74zM153.502 -15.001c-13 -12 -19.501 -29 -19.501 -51c0 -27.333 11.833 -48.166 35.5 -62.499s56.834 -21.5 99.501 -21.5
c40 0 70.833 7.66699 92.5 23s32.5 37.666 32.5 66.999c0 43.333 -30.333 65 -91 65h-96c-22.667 -1.33301 -40.5 -8 -53.5 -20z" />
    <glyph glyph-name="Hcircumflex" unicode="&#x124;" horiz-adv-x="708" 
d="M525 731h-109l-63 55l-62 -55h-108l143 113h56zM630 0h-91v319h-370v-319h-91v700h91v-295h370v295h91v-700z" />
    <glyph glyph-name="hcircumflex" unicode="&#x125;" horiz-adv-x="532" 
d="M294 753h-109l-63 55l-62 -55h-108l143 113h56zM162 441c10.667 22 28.168 39.833 52.501 53.5s52.833 20.5 85.5 20.5c52 0 92.333 -17 121 -51s43 -80 43 -138v-326h-87v312c0 38 -8.66699 67.333 -26 88s-41.333 31 -72 31c-34.667 0 -62.834 -14.5 -84.501 -43.5
s-32.5 -68.167 -32.5 -117.5v-270h-86v730h86v-289z" />
    <glyph glyph-name="Hbar" unicode="&#x126;" horiz-adv-x="723" 
d="M637 594h79v-68h-79v-526h-91v319h-370v-319h-91v526h-78v68h78v106h91v-106h370v106h91v-106zM546 405v121h-370v-121h370z" />
    <glyph glyph-name="hbar" unicode="&#x127;" horiz-adv-x="537" 
d="M167 670h104.001v-68h-104v-161c10.667 22 28.167 39.833 52.5 53.5s52.833 20.5 85.5 20.5c52 0 92.333 -17 121 -51s43 -80 43 -138v-326h-87v312c0 38 -8.66699 67.333 -26 88s-41.333 31 -72 31c-34.667 0 -62.834 -14.5 -84.501 -43.5s-32.5 -68.167 -32.5 -117.5
v-270h-86v602h-76v68h76v60h86v-60z" />
    <glyph glyph-name="Itilde" unicode="&#x128;" horiz-adv-x="247" 
d="M113.5 846c12.333 -7.33301 24.167 -17.332 35.5 -29.999c8.66699 -9.33301 15.834 -16 21.501 -20s12.834 -6 21.501 -6c26 0 39 19.333 39 58h58c0 -37.333 -9 -67 -27 -89s-43.667 -33 -77 -33c-20.667 0 -37 3.66699 -49 11s-24 17.666 -36 30.999
c-8.66699 9.33301 -15.834 16 -21.501 20s-12.834 6 -21.501 6c-26 0 -39 -19.667 -39 -59h-58c0 38 9 67.833 27 89.5s43.667 32.5 77 32.5c20.667 0 37.167 -3.66699 49.5 -11zM169.001 0.000976562h-91v700h91v-700z" />
    <glyph glyph-name="itilde" unicode="&#x129;" 
d="M111.5 694.5c11.667 -7.66699 23.5 -18.501 35.5 -32.501c7.33301 -10 14 -17.333 20 -22s13.667 -7 23 -7c26 0 39 21.333 39 64h58c0 -39.333 -9 -70.5 -27 -93.5s-43.667 -34.5 -77 -34.5c-21.333 0 -38 3.83301 -50 11.5s-23.667 18.834 -35 33.501
c-7.33301 10 -14 17.333 -20 22s-13.667 7 -23 7c-26 0 -39 -21.667 -39 -65h-58c0 40 9 71.333 27 94s43.667 34 77 34c21.333 0 37.833 -3.83301 49.5 -11.5zM165 -0.000976562h-86v504h86v-504z" />
    <glyph glyph-name="Imacron" unicode="&#x12a;" horiz-adv-x="247" 
d="M255 740h-262v71h262v-71zM169 0h-91v700h91v-700z" />
    <glyph glyph-name="imacron" unicode="&#x12b;" 
d="M253 595h-262v71h262v-71zM165 0h-86v504h86v-504z" />
    <glyph glyph-name="Ibreve" unicode="&#x12c;" horiz-adv-x="247" 
d="M227 763c-26.667 -22.667 -61.333 -34 -104 -34c-43.333 0 -78.166 11.333 -104.499 34s-39.5 52.334 -39.5 89.001h74c0 -18.667 6.16699 -33.5 18.5 -44.5s29.5 -16.5 51.5 -16.5c21.333 0 38.166 5.5 50.499 16.5s18.5 25.833 18.5 44.5h75
c0 -36.667 -13.333 -66.334 -40 -89.001zM169.001 0h-91v700h91v-700z" />
    <glyph glyph-name="ibreve" unicode="&#x12d;" 
d="M226 608c-26.667 -26 -61.332 -38.999 -103.999 -38.999s-77.334 13 -104.001 39s-40 59.333 -40 100h74c0 -22.667 6.33301 -41.334 19 -56.001s29.667 -22 51 -22c20 0 36.667 7.5 50 22.5s20 33.5 20 55.5h74c0 -40.667 -13.333 -74 -40 -100zM165.002 0.000976562
h-86v504h86v-504z" />
    <glyph glyph-name="Iogonek" unicode="&#x12e;" horiz-adv-x="247" 
d="M169 0l-29.001 0.000976562c-42.667 -18.667 -64 -47 -64 -85c0 -17.333 4.83301 -31 14.5 -41s22.834 -15 39.501 -15c18.667 0 33 3 43 9l14 -54c-14 -8 -33.667 -12 -59 -12c-33.333 0 -60.5 10.167 -81.5 30.5s-31.5 47.166 -31.5 80.499c0 44.667 21 79.667 63 105
v682h91v-700z" />
    <glyph glyph-name="iogonek" unicode="&#x12f;" 
d="M164.5 618c-11.667 -11.333 -25.834 -17 -42.501 -17s-30.667 5.66699 -42 17s-17 25 -17 41c0 16.667 5.66699 30.667 17 42s25.333 17 42 17s30.834 -5.66699 42.501 -17s17.5 -25.333 17.5 -42c0 -16 -5.83301 -29.667 -17.5 -41zM165 0l-12.001 0.000976562
c-42.667 -18.667 -64 -47 -64 -85c0 -17.333 4.83301 -31 14.5 -41s22.834 -15 39.501 -15c18.667 0 33 3 43 9l14 -54c-14 -8 -33.667 -12 -59 -12c-33.333 0 -60.5 10.167 -81.5 30.5s-31.5 47.166 -31.5 80.499c0 40.667 17 73 51 97v494h86v-504z" />
    <glyph glyph-name="Idot" unicode="&#x130;" horiz-adv-x="247" 
d="M162.5 828c11 -10.667 16.5 -23.667 16.5 -39c0 -16 -5.5 -29.333 -16.5 -40s-24.167 -16 -39.5 -16c-16 0 -29.5 5.33301 -40.5 16s-16.5 24 -16.5 40c0 15.333 5.5 28.333 16.5 39s24.5 16 40.5 16c15.333 0 28.5 -5.33301 39.5 -16zM169 0h-91v700h91v-700z" />
    <glyph glyph-name="dotlessi" unicode="&#x131;" 
d="M165 0h-86v504h86v-504z" />
    <glyph glyph-name="Jcircumflex" unicode="&#x134;" horiz-adv-x="500" 
d="M556 731h-109l-63 55l-62 -55h-108l143 113h56zM431 201c0 -68.667 -16.8311 -120.999 -50.498 -156.999s-82.167 -54 -145.5 -54c-66.667 0 -117.334 19.167 -152.001 57.5s-53.334 93.166 -56.001 164.499h91c4 -91.333 43 -137 117 -137c34 0 60 11.167 78 33.5
s27 54.5 27 96.5v495h91v-499z" />
    <glyph glyph-name="jcircumflex" unicode="&#x135;" 
d="M287 574h-96l-68 92l-68 -92h-96l136 158h56zM165 -55c0 -114 -50 -171 -150 -171c-26 0 -48 2.66699 -66 8v79c17.333 -5.33301 35 -8 53 -8c28 0 47.833 7.5 59.5 22.5s17.5 38.833 17.5 71.5v557h86v-559z" />
    <glyph glyph-name="Kcommaaccent" unicode="&#x136;" horiz-adv-x="670" 
d="M354 391l297 -391h-111l-247 318l-118 -148v-170h-91v700h91v-396l301 396h112zM380 -186.5c-13.333 -29.667 -30.999 -55.499 -52.999 -77.499l-25 15c18.667 29.333 29.334 61 32.001 95c-16 1.33301 -29 7.33301 -39 18s-15 24 -15 40
c0 17.333 5.66699 31.666 17 42.999s25.666 17 42.999 17s31.666 -6 42.999 -18s17 -27.667 17 -47c0 -27.333 -6.66699 -55.833 -20 -85.5z" />
    <glyph glyph-name="kcommaaccent" unicode="&#x137;" horiz-adv-x="500" 
d="M168 268l189 236h105l-163 -209l189 -295h-99l-150 229l-71 -86v-143h-86v730h86v-462zM310 -186.5c-13.333 -29.667 -30.998 -55.499 -52.998 -77.499l-25 15c18 28 28.667 59.667 32 95c-16 1.33301 -29 7.33301 -39 18s-15 24 -15 40
c0 17.333 5.66699 31.666 17 42.999s25.666 17 42.999 17s31.666 -6 42.999 -18s17 -27.667 17 -47c0 -27.333 -6.66699 -55.833 -20 -85.5z" />
    <glyph glyph-name="Lacute" unicode="&#x139;" horiz-adv-x="503" 
d="M160 732h-97l97 109h131zM168 85h312v-85h-403v700h91v-615z" />
    <glyph glyph-name="lacute" unicode="&#x13a;" 
d="M173 771h-97l97 109h131zM165 0h-86v730h86v-730z" />
    <glyph glyph-name="Lcommaaccent" unicode="&#x13b;" horiz-adv-x="503" 
d="M168 85h312v-85h-403v700h91v-615zM322 -186.5c-13.333 -29.667 -30.999 -55.499 -52.999 -77.499l-25 15c18.667 29.333 29.334 61 32.001 95c-16 1.33301 -29 7.33301 -39 18s-15 24 -15 40c0 17.333 5.66699 31.666 17 42.999s25.666 17 42.999 17
s31.666 -6 42.999 -18s17 -27.667 17 -47c0 -27.333 -6.66699 -55.833 -20 -85.5z" />
    <glyph glyph-name="lcommaaccent" unicode="&#x13c;" 
d="M165 0h-86v730h86v-730zM164 -54c11.333 -12 17 -27.666 17 -46.999c0 -27.333 -6.66699 -55.833 -20 -85.5s-31 -55.5 -53 -77.5l-25 15c18 28 28.667 59.667 32 95c-16 1.33301 -29 7.33301 -39 18s-15 24 -15 40c0 17.333 5.83301 31.666 17.5 42.999
s25.834 17 42.501 17c17.333 0 31.666 -6 42.999 -18z" />
    <glyph glyph-name="Lcaron" unicode="&#x13d;" horiz-adv-x="503" 
d="M482 687c11.333 -12 16.999 -27.668 16.999 -47.001c0 -62.667 -24.333 -121.667 -73 -177l-28 11c18 33.333 29.667 71 35 113c-16 1.33301 -29.167 7.33301 -39.5 18s-15.5 24 -15.5 40c0 16.667 5.83301 30.834 17.5 42.501s25.834 17.5 42.501 17.5
c18 0 32.667 -6 44 -18zM167.999 84.999h312v-85h-403v700h91v-615z" />
    <glyph glyph-name="lcaron" unicode="&#x13e;" horiz-adv-x="372" 
d="M165 0h-86v730h86v-730zM343 706c11.333 -12 16.999 -27.668 16.999 -47.001c0 -62.667 -24.333 -121.667 -73 -177l-28 11c18 33.333 29.667 71 35 113c-16 1.33301 -29.167 7.33301 -39.5 18s-15.5 24 -15.5 40c0 16.667 5.83301 30.834 17.5 42.501
s25.834 17.5 42.501 17.5c18 0 32.667 -6 44 -18z" />
    <glyph glyph-name="Ldot" unicode="&#x13f;" horiz-adv-x="503" 
d="M168 85h312v-85h-403v700h91v-615zM436.5 361c12.333 -12 18.5 -26.667 18.5 -44c0 -18 -6.16699 -33 -18.5 -45s-27.166 -18 -44.499 -18c-18 0 -33 6 -45 18s-18 27 -18 45c0 17.333 6 32 18 44s27 18 45 18c17.333 0 32.166 -6 44.499 -18z" />
    <glyph glyph-name="ldot" unicode="&#x140;" horiz-adv-x="403" 
d="M165 0h-86v730h86v-730zM346.5 304c12.333 -12 18.5 -26.667 18.5 -44c0 -18 -6.16699 -33 -18.5 -45s-27.166 -18 -44.499 -18c-18 0 -33 6 -45 18s-18 27 -18 45c0 17.333 6 32 18 44s27 18 45 18c17.333 0 32.166 -6 44.499 -18z" />
    <glyph glyph-name="Lslash" unicode="&#x141;" horiz-adv-x="515" 
d="M179 376l88 38l25 -63l-113 -48v-218h312v-85h-403v264l-75 -32l-24 63l99 42v363h91v-324z" />
    <glyph glyph-name="lslash" unicode="&#x142;" horiz-adv-x="270" 
d="M177 376l80 35l25 -63l-105 -46v-302h-86v265l-79 -34l-24 63l103 45v391h86v-354z" />
    <glyph glyph-name="Nacute" unicode="&#x143;" horiz-adv-x="711" 
d="M393 732h-97l97 109h131zM634 0h-90l-348 502l-27 43v-545h-91v700h89l346 -500l30 -46v546h91v-700z" />
    <glyph glyph-name="nacute" unicode="&#x144;" horiz-adv-x="537" 
d="M313 574h-82l111 158h114zM421 464c28.667 -34 43.001 -80 43.001 -138v-326h-87v312c0 38 -8.66699 67.333 -26 88s-41.333 31 -72 31c-34.667 0 -62.834 -14.5 -84.501 -43.5s-32.5 -68.167 -32.5 -117.5v-270h-86v504h77l5 -69c28 53.333 75.333 80 142 80
c52 0 92.333 -17 121 -51z" />
    <glyph glyph-name="Ncommaaccent" unicode="&#x145;" horiz-adv-x="711" 
d="M634 0h-90l-348 502l-27 43v-545h-91v700h89l346 -500l30 -46v546h91v-700zM398 -54c11.333 -12 16.999 -27.666 16.999 -46.999c0 -27.333 -6.66699 -55.833 -20 -85.5s-31 -55.5 -53 -77.5l-25 15c18.667 29.333 29.334 61 32.001 95c-16 1.33301 -29 7.33301 -39 18
s-15 24 -15 40c0 17.333 5.83301 31.666 17.5 42.999s25.834 17 42.501 17c17.333 0 31.666 -6 42.999 -18z" />
    <glyph glyph-name="ncommaaccent" unicode="&#x146;" horiz-adv-x="537" 
d="M421 464c28.667 -34 43.001 -80 43.001 -138v-326h-87v312c0 38 -8.66699 67.333 -26 88s-41.333 31 -72 31c-34.667 0 -62.834 -14.5 -84.501 -43.5s-32.5 -68.167 -32.5 -117.5v-270h-86v504h77l5 -69c28 53.333 75.333 80 142 80c52 0 92.333 -17 121 -51z
M310.001 -186.5c-13.333 -29.667 -30.998 -55.499 -52.998 -77.499l-25 15c18 28 28.667 59.667 32 95c-16 1.33301 -29 7.33301 -39 18s-15 24 -15 40c0 17.333 5.66699 31.666 17 42.999s25.666 17 42.999 17s31.666 -6 42.999 -18s17 -27.667 17 -47
c0 -27.333 -6.66699 -55.833 -20 -85.5z" />
    <glyph glyph-name="Ncaron" unicode="&#x147;" horiz-adv-x="711" 
d="M384 728h-56l-143 113h108l62 -55l63 55h109zM634 0h-90l-348 502l-27 43v-545h-91v700h89l346 -500l30 -46v546h91v-700z" />
    <glyph glyph-name="ncaron" unicode="&#x148;" horiz-adv-x="537" 
d="M304 563h-56l-136 158h96l68 -92l68 92h96zM421 464c28.667 -34 43.001 -80 43.001 -138v-326h-87v312c0 38 -8.66699 67.333 -26 88s-41.333 31 -72 31c-34.667 0 -62.834 -14.5 -84.501 -43.5s-32.5 -68.167 -32.5 -117.5v-270h-86v504h77l5 -69
c28 53.333 75.333 80 142 80c52 0 92.333 -17 121 -51z" />
    <glyph glyph-name="Eng" unicode="&#x14a;" horiz-adv-x="711" 
d="M634 -4c0 -68 -17.333 -120.167 -52 -156.5s-84 -54.5 -148 -54.5v82c35.333 0 62.333 10.667 81 32s28 52.333 28 93v9l-347 501l-27 43v-545h-91v700h89l346 -500l30 -46v546h91v-704z" />
    <glyph glyph-name="eng" unicode="&#x14b;" horiz-adv-x="532" 
d="M421 464c28.667 -34 43.001 -80 43.001 -138v-381c0 -114 -56.667 -171 -170 -171v79c29.333 0 50.5 7.83301 63.5 23.5s19.5 39.167 19.5 70.5v365c0 38 -8.66699 67.333 -26 88s-41.333 31 -72 31c-34.667 0 -62.834 -14.5 -84.501 -43.5s-32.5 -68.167 -32.5 -117.5
v-270h-86v504h77l5 -69c28 53.333 75.333 80 142 80c52 0 92.333 -17 121 -51z" />
    <glyph glyph-name="Omacron" unicode="&#x14c;" horiz-adv-x="795" 
d="M528 750h-262v71h262v-71zM654 610c67.333 -69.333 101 -155.666 101 -258.999c0 -104.667 -33.667 -191.667 -101 -261c-66.667 -68.667 -152 -103 -256 -103c-104.667 0 -190.334 34.333 -257.001 103c-67.333 69.333 -101 156.333 -101 261
c0 103.333 33.667 189.666 101 258.999c66.667 68.667 152.334 103 257.001 103c104 0 189.333 -34.333 256 -103zM208 549c-48.667 -51.333 -73 -117.332 -73 -197.999s24.333 -147.334 73 -200.001s112 -79 190 -79c76.667 0 139.334 26.333 188.001 79
c49.333 53.333 74 120 74 200c0 79.333 -24.667 145.333 -74 198c-48.667 52.667 -111.334 79 -188.001 79c-78 0 -141.333 -26.333 -190 -79z" />
    <glyph glyph-name="omacron" unicode="&#x14d;" horiz-adv-x="582" 
d="M422 595h-262v71h262v-71zM474 441c48 -48.667 72 -111.667 72 -189c0 -76.667 -24 -139.667 -72 -189c-47.333 -49.333 -108.333 -74 -183 -74c-75.333 0 -137 24.667 -185 74c-47.333 49.333 -71 112.333 -71 189s23.667 139.667 71 189c48 49.333 109.667 74 185 74
c74.667 0 135.667 -24.667 183 -74zM170 383c-30.667 -33.333 -46 -77 -46 -131c0 -52.667 15.333 -96.334 46 -131.001s71.334 -52 122.001 -52c49.333 0 89 17.333 119 52c30.667 34.667 46 78.334 46 131.001c0 54 -15.333 97.667 -46 131c-30 34.667 -69.667 52 -119 52
c-50.667 0 -91.334 -17.333 -122.001 -52z" />
    <glyph glyph-name="Obreve" unicode="&#x14e;" horiz-adv-x="795" 
d="M501 773c-26.667 -22.667 -61.333 -34 -104 -34c-43.333 0 -78.166 11.333 -104.499 34s-39.5 52.334 -39.5 89.001h74c0 -18.667 6.16699 -33.5 18.5 -44.5s29.5 -16.5 51.5 -16.5c21.333 0 38.166 5.5 50.499 16.5s18.5 25.833 18.5 44.5h75
c0 -36.667 -13.333 -66.334 -40 -89.001zM654.001 610c67.333 -69.333 101 -155.666 101 -258.999c0 -104.667 -33.667 -191.667 -101 -261c-66.667 -68.667 -152 -103 -256 -103c-104.667 0 -190.334 34.333 -257.001 103c-67.333 69.333 -101 156.333 -101 261
c0 103.333 33.667 189.666 101 258.999c66.667 68.667 152.334 103 257.001 103c104 0 189.333 -34.333 256 -103zM208.001 549c-48.667 -51.333 -73 -117.332 -73 -197.999s24.333 -147.334 73 -200.001s112 -79 190 -79c76.667 0 139.334 26.333 188.001 79
c49.333 53.333 74 120 74 200c0 79.333 -24.667 145.333 -74 198c-48.667 52.667 -111.334 79 -188.001 79c-78 0 -141.333 -26.333 -190 -79z" />
    <glyph glyph-name="obreve" unicode="&#x14f;" horiz-adv-x="582" 
d="M395 608c-26.667 -26 -61.332 -38.999 -103.999 -38.999s-77.334 13 -104.001 39s-40 59.333 -40 100h74c0 -22.667 6.33301 -41.334 19 -56.001s29.667 -22 51 -22c20 0 36.667 7.5 50 22.5s20 33.5 20 55.5h74c0 -40.667 -13.333 -74 -40 -100zM474.002 441.001
c48 -48.667 72 -111.667 72 -189c0 -76.667 -24 -139.667 -72 -189c-47.333 -49.333 -108.333 -74 -183 -74c-75.333 0 -137 24.667 -185 74c-47.333 49.333 -71 112.333 -71 189s23.667 139.667 71 189c48 49.333 109.667 74 185 74c74.667 0 135.667 -24.667 183 -74z
M170.002 383.001c-30.667 -33.333 -46 -77 -46 -131c0 -52.667 15.333 -96.334 46 -131.001s71.334 -52 122.001 -52c49.333 0 89 17.333 119 52c30.667 34.667 46 78.334 46 131.001c0 54 -15.333 97.667 -46 131c-30 34.667 -69.667 52 -119 52
c-50.667 0 -91.334 -17.333 -122.001 -52z" />
    <glyph glyph-name="Ohungarumlaut" unicode="&#x150;" horiz-adv-x="795" 
d="M348 739h-78l75 113h97zM507 739h-79l76 113h97zM654 610c67.333 -69.333 101 -155.666 101 -258.999c0 -104.667 -33.667 -191.667 -101 -261c-66.667 -68.667 -152 -103 -256 -103c-104.667 0 -190.334 34.333 -257.001 103c-67.333 69.333 -101 156.333 -101 261
c0 103.333 33.667 189.666 101 258.999c66.667 68.667 152.334 103 257.001 103c104 0 189.333 -34.333 256 -103zM208 549c-48.667 -51.333 -73 -117.332 -73 -197.999s24.333 -147.334 73 -200.001s112 -79 190 -79c76.667 0 139.334 26.333 188.001 79
c49.333 53.333 74 120 74 200c0 79.333 -24.667 145.333 -74 198c-48.667 52.667 -111.334 79 -188.001 79c-78 0 -141.333 -26.333 -190 -79z" />
    <glyph glyph-name="ohungarumlaut" unicode="&#x151;" horiz-adv-x="582" 
d="M237 574h-77l84 158h97zM406 574h-77l84 158h97zM474 441c48 -48.667 72 -111.667 72 -189c0 -76.667 -24 -139.667 -72 -189c-47.333 -49.333 -108.333 -74 -183 -74c-75.333 0 -137 24.667 -185 74c-47.333 49.333 -71 112.333 -71 189s23.667 139.667 71 189
c48 49.333 109.667 74 185 74c74.667 0 135.667 -24.667 183 -74zM170 383c-30.667 -33.333 -46 -77 -46 -131c0 -52.667 15.333 -96.334 46 -131.001s71.334 -52 122.001 -52c49.333 0 89 17.333 119 52c30.667 34.667 46 78.334 46 131.001c0 54 -15.333 97.667 -46 131
c-30 34.667 -69.667 52 -119 52c-50.667 0 -91.334 -17.333 -122.001 -52z" />
    <glyph glyph-name="OE" unicode="&#x152;" horiz-adv-x="1099" 
d="M1049 615h-294v-212h259v-85h-259v-233h294v-85h-385v104c-66 -78 -153.667 -117 -263 -117c-105.333 0 -191.333 34.333 -258 103s-100 155.667 -100 261c0 104 33.333 190.333 100 259s152.667 103 258 103c108 0 195.667 -39 263 -117v104h385v-85zM211 549
c-48.667 -51.333 -73 -117.332 -73 -197.999s24.333 -147.334 73 -200.001s112 -79 190 -79c76.667 0 139.334 26.333 188.001 79c49.333 53.333 74 120 74 200c0 79.333 -24.667 145.333 -74 198c-48.667 52.667 -111.334 79 -188.001 79c-78 0 -141.333 -26.333 -190 -79z
" />
    <glyph glyph-name="oe" unicode="&#x153;" horiz-adv-x="975" 
d="M411 487.5c36 -18.333 65.335 -44.168 88.002 -77.501c45.333 70 112 105 200 105c70 0 125.667 -22.333 167 -67s62 -107.667 62 -189v-41h-383c3.33301 -46 19.166 -82.333 47.499 -109s64.5 -40 108.5 -40c70 0 115.333 27.333 136 82h86
c-16 -51.333 -43.167 -91.166 -81.5 -119.499s-85.833 -42.5 -142.5 -42.5c-88.667 0 -155.334 34.333 -200.001 103c-22.667 -32.667 -52 -58 -88 -76s-76 -27 -120 -27c-75.333 0 -137 24.667 -185 74c-47.333 49.333 -71 112.333 -71 189s23.667 139.667 71 189
c48 49.333 109.667 74 185 74c44 0 84 -9.16699 120 -27.5zM170.002 382.998c-30.667 -33.333 -46 -77.001 -46 -131.001c0 -52.667 15.333 -96.334 46 -131.001s71.334 -52 122.001 -52c46 0 84 15.333 114 46s46.667 70.334 50 119.001v36
c-3.33301 48.667 -20 88.334 -50 119.001s-68 46 -114 46c-50.667 0 -91.334 -17.333 -122.001 -52zM595.002 396.497c-27.333 -25.667 -43.667 -59.5 -49 -101.5h295c-0.666992 42.667 -14 76.667 -40 102s-60 38 -102 38s-76.667 -12.833 -104 -38.5z" />
    <glyph glyph-name="Racute" unicode="&#x154;" horiz-adv-x="548" 
d="M306 732h-97l97 109h131zM436 642.5c41.333 -38.333 62 -89.5 62 -153.5c0 -46 -11.667 -85.5 -35 -118.5s-56 -56.833 -98 -71.5l163 -299h-104l-153 284h-102v-284h-91v700h191c70 0 125.667 -19.167 167 -57.5zM169 366l100 0.000976562c42 0 75.333 11 100 33
s37 52 37 90c0 39.333 -12.333 70.166 -37 92.499s-58 33.5 -100 33.5h-100v-249z" />
    <glyph glyph-name="racute" unicode="&#x155;" horiz-adv-x="340" 
d="M223 574h-82l111 158h114zM214 386c-29.333 -26.667 -44.667 -66.332 -46 -118.999v-267h-86v504h77l6 -88c10 27.333 28.167 49.666 54.5 66.999s58.5 26 96.5 26v-86c-41.333 0 -75.333 -12.333 -102 -37z" />
    <glyph glyph-name="Rcommaaccent" unicode="&#x156;" horiz-adv-x="548" 
d="M436 642.5c41.333 -38.333 62 -89.5 62 -153.5c0 -46 -11.667 -85.5 -35 -118.5s-56 -56.833 -98 -71.5l163 -299h-104l-153 284h-102v-284h-91v700h191c70 0 125.667 -19.167 167 -57.5zM169 366l100 0.000976562c42 0 75.333 11 100 33s37 52 37 90
c0 39.333 -12.333 70.166 -37 92.499s-58 33.5 -100 33.5h-100v-249zM330 -53.999c11.333 -12 16.999 -27.666 16.999 -46.999c0 -27.333 -6.66699 -55.833 -20 -85.5s-31 -55.5 -53 -77.5l-25 15c18.667 29.333 29.334 61 32.001 95c-16 1.33301 -29 7.33301 -39 18
s-15 24 -15 40c0 17.333 5.83301 31.666 17.5 42.999s25.834 17 42.501 17c17.333 0 31.666 -6 42.999 -18z" />
    <glyph glyph-name="rcommaaccent" unicode="&#x157;" horiz-adv-x="340" 
d="M214 386c-29.333 -26.667 -44.667 -66.332 -46 -118.999v-267h-86v504h77l6 -88c10 27.333 28.167 49.666 54.5 66.999s58.5 26 96.5 26v-86c-41.333 0 -75.333 -12.333 -102 -37zM165.999 -53.998c11.333 -12 16.999 -27.666 16.999 -46.999
c0 -27.333 -6.66699 -55.833 -20 -85.5s-31 -55.5 -53 -77.5l-25 15c18.667 29.333 29.334 61 32.001 95c-16 1.33301 -29 7.33301 -39 18s-15 24 -15 40c0 17.333 5.83301 31.666 17.5 42.999s25.834 17 42.501 17c17.333 0 31.666 -6 42.999 -18z" />
    <glyph glyph-name="Rcaron" unicode="&#x158;" horiz-adv-x="548" 
d="M294 728h-56l-143 113h108l62 -55l63 55h109zM436 642.5c41.333 -38.333 62 -89.5 62 -153.5c0 -46 -11.667 -85.5 -35 -118.5s-56 -56.833 -98 -71.5l163 -299h-104l-153 284h-102v-284h-91v700h191c70 0 125.667 -19.167 167 -57.5zM169 366l100 0.000976562
c42 0 75.333 11 100 33s37 52 37 90c0 39.333 -12.333 70.166 -37 92.499s-58 33.5 -100 33.5h-100v-249z" />
    <glyph glyph-name="rcaron" unicode="&#x159;" horiz-adv-x="340" 
d="M217 563h-56l-136 158h96l68 -92l68 92h96zM214 386c-29.333 -26.667 -44.667 -66.332 -46 -118.999v-267h-86v504h77l6 -88c10 27.333 28.167 49.666 54.5 66.999s58.5 26 96.5 26v-86c-41.333 0 -75.333 -12.333 -102 -37z" />
    <glyph glyph-name="Sacute" unicode="&#x15a;" horiz-adv-x="528" 
d="M302 742h-97l97 109h131zM411.5 661.5c36.333 -34.333 55.166 -83.167 56.499 -146.5h-92c-0.666992 36 -11.334 64.333 -32.001 85s-48.334 31 -83.001 31c-33.333 0 -59.666 -9.33301 -78.999 -28s-29 -44.667 -29 -78c0 -31.333 9.66699 -55.666 29 -72.999
c20.667 -16.667 57.334 -35.334 110.001 -56.001c72.667 -27.333 123.667 -55.666 153 -84.999c30 -30 45 -70.333 45 -121c0 -62 -19.833 -111.333 -59.5 -148s-92.167 -55 -157.5 -55c-71.333 0 -127.5 19.667 -168.5 59s-62.167 92.666 -63.5 159.999h92
c0.666992 -44 13.334 -78 38.001 -102s59 -36 103 -36c39.333 0 69.833 10.5 91.5 31.5s32.5 49.167 32.5 84.5c0 29.333 -11 53.5 -33 72.5s-60 37.833 -114 56.5c-64.667 24 -112.667 50.667 -144 80c-30.667 30 -46 71.667 -46 125c0 56 17.667 102.667 53 140
c36 36.667 85.667 55 149 55c62.667 0 112.167 -17.167 148.5 -51.5z" />
    <glyph glyph-name="sacute" unicode="&#x15b;" horiz-adv-x="441" 
d="M253 574h-82l111 158h114zM337 471c30.667 -28.667 46.6699 -67 48.0029 -115h-88c-0.666992 52.667 -27.334 79 -80.001 79c-24.667 0 -43.667 -6.16699 -57 -18.5s-20 -28.833 -20 -49.5c0 -20 6.5 -35 19.5 -45s38.167 -19.333 75.5 -28
c60 -14 102.5 -32.5 127.5 -55.5s37.5 -54.833 37.5 -95.5c0 -47.333 -16.333 -84.833 -49 -112.5s-75.334 -41.5 -128.001 -41.5c-56.667 0 -101.167 14.667 -133.5 44s-49.166 69.333 -50.499 120h88c1.33301 -56 34 -84 98 -84c27.333 0 48.666 6.16699 63.999 18.5
s23 28.833 23 49.5c0 21.333 -7.33301 37.833 -22 49.5s-42.334 22.167 -83.001 31.5c-54.667 12.667 -94.167 30 -118.5 52s-36.5 52.667 -36.5 92c0 42.667 14.667 78.667 44 108c30 30 71 45 123 45c48 0 87.333 -14.667 118 -44z" />
    <glyph glyph-name="Scircumflex" unicode="&#x15c;" horiz-adv-x="528" 
d="M436 741h-109l-63 55l-62 -55h-108l143 113h56zM411.5 661.5c36.333 -34.333 55.166 -83.167 56.499 -146.5h-92c-0.666992 36 -11.334 64.333 -32.001 85s-48.334 31 -83.001 31c-33.333 0 -59.666 -9.33301 -78.999 -28s-29 -44.667 -29 -78
c0 -31.333 9.66699 -55.666 29 -72.999c20.667 -16.667 57.334 -35.334 110.001 -56.001c72.667 -27.333 123.667 -55.666 153 -84.999c30 -30 45 -70.333 45 -121c0 -62 -19.833 -111.333 -59.5 -148s-92.167 -55 -157.5 -55c-71.333 0 -127.5 19.667 -168.5 59
s-62.167 92.666 -63.5 159.999h92c0.666992 -44 13.334 -78 38.001 -102s59 -36 103 -36c39.333 0 69.833 10.5 91.5 31.5s32.5 49.167 32.5 84.5c0 29.333 -11 53.5 -33 72.5s-60 37.833 -114 56.5c-64.667 24 -112.667 50.667 -144 80c-30.667 30 -46 71.667 -46 125
c0 56 17.667 102.667 53 140c36 36.667 85.667 55 149 55c62.667 0 112.167 -17.167 148.5 -51.5z" />
    <glyph glyph-name="scircumflex" unicode="&#x15d;" horiz-adv-x="441" 
d="M383 574h-96l-68 92l-68 -92h-96l136 158h56zM337 471c30.667 -28.667 46.6699 -67 48.0029 -115h-88c-0.666992 52.667 -27.334 79 -80.001 79c-24.667 0 -43.667 -6.16699 -57 -18.5s-20 -28.833 -20 -49.5c0 -20 6.5 -35 19.5 -45s38.167 -19.333 75.5 -28
c60 -14 102.5 -32.5 127.5 -55.5s37.5 -54.833 37.5 -95.5c0 -47.333 -16.333 -84.833 -49 -112.5s-75.334 -41.5 -128.001 -41.5c-56.667 0 -101.167 14.667 -133.5 44s-49.166 69.333 -50.499 120h88c1.33301 -56 34 -84 98 -84c27.333 0 48.666 6.16699 63.999 18.5
s23 28.833 23 49.5c0 21.333 -7.33301 37.833 -22 49.5s-42.334 22.167 -83.001 31.5c-54.667 12.667 -94.167 30 -118.5 52s-36.5 52.667 -36.5 92c0 42.667 14.667 78.667 44 108c30 30 71 45 123 45c48 0 87.333 -14.667 118 -44z" />
    <glyph glyph-name="Scedilla" unicode="&#x15e;" horiz-adv-x="528" 
d="M411.5 661.5c36.333 -34.333 55.168 -83.168 56.501 -146.501h-92c-0.666992 36 -11.334 64.333 -32.001 85s-48.334 31 -83.001 31c-33.333 0 -59.666 -9.33301 -78.999 -28s-29 -44.667 -29 -78c0 -31.333 9.66699 -55.666 29 -72.999
c20.667 -16.667 57.334 -35.334 110.001 -56.001c72.667 -27.333 123.667 -55.666 153 -84.999c30 -30 45 -70.333 45 -121c0 -59.333 -17.833 -107 -53.5 -143s-83.834 -55.667 -144.501 -59l-10 -46h3c26 0 47.167 -7.5 63.5 -22.5s24.5 -35.167 24.5 -60.5
c0 -28 -9.5 -49.833 -28.5 -65.5s-44.5 -23.5 -76.5 -23.5c-38.667 0 -69 12 -91 36l32 44c15.333 -17.333 35.666 -26 60.999 -26c30 0 45 11.333 45 34c0 23.333 -14 35 -42 35c-7.33301 0 -18.333 -1.66699 -33 -5l-22 9l22 92c-62 6 -110.333 28.167 -145 66.5
s-52.667 88.5 -54 150.5h92c0.666992 -44 13.334 -78 38.001 -102s59 -36 103 -36c39.333 0 69.833 10.5 91.5 31.5s32.5 49.167 32.5 84.5c0 29.333 -11 53.5 -33 72.5s-60 37.833 -114 56.5c-64.667 24 -112.667 50.667 -144 80c-30.667 30 -46 71.667 -46 125
c0 56 17.667 102.667 53 140c36 36.667 85.667 55 149 55c62.667 0 112.167 -17.167 148.5 -51.5z" />
    <glyph glyph-name="scedilla" unicode="&#x15f;" horiz-adv-x="441" 
d="M337 471c30.667 -28.667 46.6709 -67.002 48.0039 -115.002h-88c-0.666992 52.667 -27.334 79 -80.001 79c-24.667 0 -43.667 -6.16699 -57 -18.5s-20 -28.833 -20 -49.5c0 -20 6.5 -35 19.5 -45s38.167 -19.333 75.5 -28c60 -14 102.5 -32.5 127.5 -55.5
s37.5 -54.833 37.5 -95.5c0 -43.333 -14 -78.666 -42 -105.999s-65.667 -43 -113 -47l-11 -48h3c26 0 47.167 -7.5 63.5 -22.5s24.5 -35.167 24.5 -60.5c0 -28 -9.5 -49.833 -28.5 -65.5s-44.5 -23.5 -76.5 -23.5c-38.667 0 -69 12 -91 36l32 44
c15.333 -17.333 35.666 -26 60.999 -26c30 0 45 11.333 45 34c0 23.333 -14 35 -42 35c-7.33301 0 -18.333 -1.66699 -33 -5l-22 9l23 94c-48 4.66699 -85.333 21.334 -112 50.001s-40.667 66 -42 112h88c1.33301 -56 34 -84 98 -84c27.333 0 48.666 6.16699 63.999 18.5
s23 28.833 23 49.5c0 21.333 -7.33301 37.833 -22 49.5s-42.334 22.167 -83.001 31.5c-54.667 12.667 -94.167 30 -118.5 52s-36.5 52.667 -36.5 92c0 42.667 14.667 78.667 44 108c30 30 71 45 123 45c48 0 87.333 -14.667 118 -44z" />
    <glyph glyph-name="Scaron" unicode="&#x160;" horiz-adv-x="528" 
d="M293 738h-56l-143 113h108l62 -55l63 55h109zM411.5 661.5c36.333 -34.333 55.166 -83.167 56.499 -146.5h-92c-0.666992 36 -11.334 64.333 -32.001 85s-48.334 31 -83.001 31c-33.333 0 -59.666 -9.33301 -78.999 -28s-29 -44.667 -29 -78
c0 -31.333 9.66699 -55.666 29 -72.999c20.667 -16.667 57.334 -35.334 110.001 -56.001c72.667 -27.333 123.667 -55.666 153 -84.999c30 -30 45 -70.333 45 -121c0 -62 -19.833 -111.333 -59.5 -148s-92.167 -55 -157.5 -55c-71.333 0 -127.5 19.667 -168.5 59
s-62.167 92.666 -63.5 159.999h92c0.666992 -44 13.334 -78 38.001 -102s59 -36 103 -36c39.333 0 69.833 10.5 91.5 31.5s32.5 49.167 32.5 84.5c0 29.333 -11 53.5 -33 72.5s-60 37.833 -114 56.5c-64.667 24 -112.667 50.667 -144 80c-30.667 30 -46 71.667 -46 125
c0 56 17.667 102.667 53 140c36 36.667 85.667 55 149 55c62.667 0 112.167 -17.167 148.5 -51.5z" />
    <glyph glyph-name="scaron" unicode="&#x161;" horiz-adv-x="441" 
d="M247 563h-56l-136 158h96l68 -92l68 92h96zM337 471c30.667 -28.667 46.6699 -67 48.0029 -115h-88c-0.666992 52.667 -27.334 79 -80.001 79c-24.667 0 -43.667 -6.16699 -57 -18.5s-20 -28.833 -20 -49.5c0 -20 6.5 -35 19.5 -45s38.167 -19.333 75.5 -28
c60 -14 102.5 -32.5 127.5 -55.5s37.5 -54.833 37.5 -95.5c0 -47.333 -16.333 -84.833 -49 -112.5s-75.334 -41.5 -128.001 -41.5c-56.667 0 -101.167 14.667 -133.5 44s-49.166 69.333 -50.499 120h88c1.33301 -56 34 -84 98 -84c27.333 0 48.666 6.16699 63.999 18.5
s23 28.833 23 49.5c0 21.333 -7.33301 37.833 -22 49.5s-42.334 22.167 -83.001 31.5c-54.667 12.667 -94.167 30 -118.5 52s-36.5 52.667 -36.5 92c0 42.667 14.667 78.667 44 108c30 30 71 45 123 45c48 0 87.333 -14.667 118 -44z" />
    <glyph glyph-name="Tcaron" unicode="&#x164;" horiz-adv-x="607" 
d="M331 728h-56l-143 113h108l62 -55l63 55h109zM597 615h-248v-615h-91v615h-248v85h587v-85z" />
    <glyph glyph-name="tcaron" unicode="&#x165;" horiz-adv-x="484" 
d="M455 706c11.333 -12 16.999 -27.668 16.999 -47.001c0 -62.667 -24.333 -121.667 -73 -177l-28 11c18 33.333 29.667 71 35 113c-16 1.33301 -29.167 7.33301 -39.5 18s-15.5 24 -15.5 40c0 16.667 5.83301 30.834 17.5 42.501s25.834 17.5 42.501 17.5
c18 0 32.667 -6 44 -18zM189.999 503.999h129.002v-80h-130l-2 -270c0 -30 5.16699 -51.167 15.5 -63.5s29.166 -18.5 56.499 -18.5c22 0 42 3 60 9v-77c-18.667 -7.33301 -43.667 -11 -75 -11c-48.667 0 -84.834 11.667 -108.501 35s-35.167 60 -34.5 110l2 286h-94v80h94
l1 126h87z" />
    <glyph glyph-name="Tbar" unicode="&#x166;" horiz-adv-x="607" 
d="M597 615h-248v-230h154v-68h-154v-317h-91v317h-154v68h154v230h-248v85h587v-85z" />
    <glyph glyph-name="tbar" unicode="&#x167;" horiz-adv-x="350" 
d="M190 504h129.002v-72h-130l-1 -117h131v-71h-132v-90c0 -30 5.16699 -51.167 15.5 -63.5s29.166 -18.5 56.499 -18.5c22 0 42 3 60 9v-77c-18.667 -7.33301 -43.667 -11 -75 -11c-48.667 0 -84.834 11.667 -108.501 35s-35.167 60 -34.5 110v106h-92v71h93l1 117h-94v72
h94l1 126h87z" />
    <glyph glyph-name="Utilde" unicode="&#x168;" horiz-adv-x="687" 
d="M332.5 846c12.333 -7.33301 24.167 -17.332 35.5 -29.999c8.66699 -9.33301 15.834 -16 21.501 -20s12.834 -6 21.501 -6c26 0 39 19.333 39 58h58c0 -37.333 -9 -67 -27 -89s-43.667 -33 -77 -33c-20.667 0 -37 3.66699 -49 11s-24 17.666 -36 30.999
c-8.66699 9.33301 -15.834 16 -21.501 20s-12.834 6 -21.501 6c-26 0 -39 -19.667 -39 -59h-58c0 38 9 67.833 27 89.5s43.667 32.5 77 32.5c20.667 0 37.167 -3.66699 49.5 -11zM618.001 277.001c0 -93.333 -23.667 -165 -71 -215s-115 -75 -203 -75s-155.833 25 -203.5 75
s-71.5 121.667 -71.5 215v423h91v-423c0 -136.667 61.333 -205 184 -205c60 0 105.5 17.333 136.5 52s46.5 85.667 46.5 153v423h91v-423z" />
    <glyph glyph-name="utilde" unicode="&#x169;" horiz-adv-x="528" 
d="M251.5 694.5c11.667 -7.66699 23.5 -18.501 35.5 -32.501c7.33301 -10 14 -17.333 20 -22s13.667 -7 23 -7c26 0 39 21.333 39 64h58c0 -39.333 -9 -70.5 -27 -93.5s-43.667 -34.5 -77 -34.5c-21.333 0 -38 3.83301 -50 11.5s-23.667 18.834 -35 33.501
c-7.33301 10 -14 17.333 -20 22s-13.667 7 -23 7c-26 0 -39 -21.667 -39 -65h-58c0 40 9 71.333 27 94s43.667 34 77 34c21.333 0 37.833 -3.83301 49.5 -11.5zM452 -0.000976562l-77.002 -0.00195312l-5 69c-25.333 -53.333 -71.666 -80 -138.999 -80
c-52 0 -92 16.833 -120 50.5s-42 79.834 -42 138.501v326h86v-312c0 -39.333 8.33301 -69.166 25 -89.499s40.334 -30.5 71.001 -30.5c34 0 61.667 13.667 83 41s32 64.333 32 111v280h86v-504z" />
    <glyph glyph-name="Umacron" unicode="&#x16a;" horiz-adv-x="687" 
d="M474 740h-262v71h262v-71zM618 277c0 -93.333 -23.667 -165 -71 -215s-115 -75 -203 -75s-155.833 25 -203.5 75s-71.5 121.667 -71.5 215v423h91v-423c0 -136.667 61.333 -205 184 -205c60 0 105.5 17.333 136.5 52s46.5 85.667 46.5 153v423h91v-423z" />
    <glyph glyph-name="umacron" unicode="&#x16b;" horiz-adv-x="528" 
d="M393 595h-262v71h262v-71zM452 0l-77.002 -0.00195312l-5 69c-25.333 -53.333 -71.666 -80 -138.999 -80c-52 0 -92 16.833 -120 50.5s-42 79.834 -42 138.501v326h86v-312c0 -39.333 8.33301 -69.166 25 -89.499s40.334 -30.5 71.001 -30.5c34 0 61.667 13.667 83 41
s32 64.333 32 111v280h86v-504z" />
    <glyph glyph-name="Ubreve" unicode="&#x16c;" horiz-adv-x="687" 
d="M447 763c-26.667 -22.667 -61.333 -34 -104 -34c-43.333 0 -78.166 11.333 -104.499 34s-39.5 52.334 -39.5 89.001h74c0 -18.667 6.16699 -33.5 18.5 -44.5s29.5 -16.5 51.5 -16.5c21.333 0 38.166 5.5 50.499 16.5s18.5 25.833 18.5 44.5h75
c0 -36.667 -13.333 -66.334 -40 -89.001zM618.001 277c0 -93.333 -23.667 -165 -71 -215s-115 -75 -203 -75s-155.833 25 -203.5 75s-71.5 121.667 -71.5 215v423h91v-423c0 -136.667 61.333 -205 184 -205c60 0 105.5 17.333 136.5 52s46.5 85.667 46.5 153v423h91v-423z
" />
    <glyph glyph-name="ubreve" unicode="&#x16d;" horiz-adv-x="528" 
d="M366 608c-26.667 -26 -61.332 -38.999 -103.999 -38.999s-77.334 13 -104.001 39s-40 59.333 -40 100h74c0 -22.667 6.33301 -41.334 19 -56.001s29.667 -22 51 -22c20 0 36.667 7.5 50 22.5s20 33.5 20 55.5h74c0 -40.667 -13.333 -74 -40 -100zM452.002 0.000976562
l-77.002 -0.00195312l-5 69c-25.333 -53.333 -71.666 -80 -138.999 -80c-52 0 -92 16.833 -120 50.5s-42 79.834 -42 138.501v326h86v-312c0 -39.333 8.33301 -69.166 25 -89.499s40.334 -30.5 71.001 -30.5c34 0 61.667 13.667 83 41s32 64.333 32 111v280h86v-504z" />
    <glyph glyph-name="Uring" unicode="&#x16e;" horiz-adv-x="687" 
d="M343 912c28 0 51 -9 69 -27c18 -16.667 27 -38.667 27 -66c0 -26.667 -9 -49 -27 -67s-41 -27 -69 -27s-51 9 -69 27s-27 40.333 -27 67c0 27.333 9 49.333 27 66c18 18 41 27 69 27zM315.5 848c-6.33301 -8 -9.5 -17.667 -9.5 -29s3.16699 -21 9.5 -29
s15.5 -11.667 27.5 -11c12 -0.666992 21.5 3 28.5 11s10.5 17.667 10.5 29s-3.5 21 -10.5 29s-16.5 11.667 -28.5 11c-12 0.666992 -21.167 -3 -27.5 -11zM618 277c0 -93.333 -23.667 -165 -71 -215s-115 -75 -203 -75s-155.833 25 -203.5 75s-71.5 121.667 -71.5 215v423
h91v-423c0 -136.667 61.333 -205 184 -205c60 0 105.5 17.333 136.5 52s46.5 85.667 46.5 153v423h91v-423z" />
    <glyph glyph-name="uring" unicode="&#x16f;" horiz-adv-x="528" 
d="M337.5 732.5c19.667 -19.667 29.499 -44.5 29.499 -74.5c0 -28.667 -9.83301 -52.834 -29.5 -72.501s-45.167 -29.5 -76.5 -29.5c-30 0 -55 9.83301 -75 29.5s-30 43.834 -30 72.501c0 30 9.83301 54.833 29.5 74.5s44.834 29.5 75.501 29.5
c31.333 0 56.833 -9.83301 76.5 -29.5zM226.499 694c-9 -9.33301 -13.5 -21 -13.5 -35s4.5 -25.667 13.5 -35s20.5 -14 34.5 -14s25.667 4.66699 35 14s14 21 14 35s-4.5 25.667 -13.5 35s-20.833 14 -35.5 14c-14 0 -25.5 -4.66699 -34.5 -14zM451.999 0
l-77.002 -0.00195312l-5 69c-25.333 -53.333 -71.666 -80 -138.999 -80c-52 0 -92 16.833 -120 50.5s-42 79.834 -42 138.501v326h86v-312c0 -39.333 8.33301 -69.166 25 -89.499s40.334 -30.5 71.001 -30.5c34 0 61.667 13.667 83 41s32 64.333 32 111v280h86v-504z" />
    <glyph glyph-name="Uhungarumlaut" unicode="&#x170;" horiz-adv-x="687" 
d="M294 729h-78l75 113h97zM453 729h-79l76 113h97zM618 277c0 -93.333 -23.667 -165 -71 -215s-115 -75 -203 -75s-155.833 25 -203.5 75s-71.5 121.667 -71.5 215v423h91v-423c0 -136.667 61.333 -205 184 -205c60 0 105.5 17.333 136.5 52s46.5 85.667 46.5 153v423h91
v-423z" />
    <glyph glyph-name="uhungarumlaut" unicode="&#x171;" horiz-adv-x="528" 
d="M208 574h-77l84 158h97zM377 574h-77l84 158h97zM452 0l-77.002 -0.00195312l-5 69c-25.333 -53.333 -71.666 -80 -138.999 -80c-52 0 -92 16.833 -120 50.5s-42 79.834 -42 138.501v326h86v-312c0 -39.333 8.33301 -69.166 25 -89.499s40.334 -30.5 71.001 -30.5
c34 0 61.667 13.667 83 41s32 64.333 32 111v280h86v-504z" />
    <glyph glyph-name="Uogonek" unicode="&#x172;" horiz-adv-x="687" 
d="M618 277c0 -75.333 -15.834 -136.832 -47.501 -184.499s-77.5 -79.167 -137.5 -94.5c-28 -17.333 -42 -42 -42 -74c0 -17.333 4.83301 -31 14.5 -41s22.834 -15 39.501 -15c18.667 0 33 3 43 9l14 -54c-14 -8 -33.667 -12 -59 -12c-33.333 0 -60.5 10.167 -81.5 30.5
s-31.5 47.166 -31.5 80.499c0 26 6.33301 47.667 19 65h-5c-88 0 -155.833 25 -203.5 75s-71.5 121.667 -71.5 215v423h91v-423c0 -136.667 61.333 -205 184 -205c60 0 105.5 17.333 136.5 52s46.5 85.667 46.5 153v423h91v-423z" />
    <glyph glyph-name="uogonek" unicode="&#x173;" horiz-adv-x="528" 
d="M452 0c-42.667 -18.667 -64.0029 -47 -64.0029 -85c0 -17.333 4.83301 -31 14.5 -41s22.834 -15 39.501 -15c18.667 0 33 3 43 9l14 -54c-14 -8 -33.667 -12 -59 -12c-33.333 0 -60.5 10.167 -81.5 30.5s-31.5 47.166 -31.5 80.499c0 37.333 15.667 68.666 47 93.999
l-4 62c-25.333 -53.333 -71.666 -80 -138.999 -80c-52 0 -92 16.833 -120 50.5s-42 79.834 -42 138.501v326h86v-312c0 -39.333 8.33301 -69.166 25 -89.499s40.334 -30.5 71.001 -30.5c34 0 61.667 13.667 83 41s32 64.333 32 111v280h86v-504z" />
    <glyph glyph-name="Wcircumflex" unicode="&#x174;" horiz-adv-x="988" 
d="M665 731h-109l-63 55l-62 -55h-108l143 113h56zM746 0h-90l-151 486l-11 47l-11 -47l-151 -486h-90l-223 700h96l162 -509l12 -50l10 50l156 509h78l156 -509l10 -50l12 50l162 509h96z" />
    <glyph glyph-name="wcircumflex" unicode="&#x175;" horiz-adv-x="768" 
d="M547 574h-96l-68 92l-68 -92h-96l136 158h56zM592 0h-87l-122 360l-123 -360h-84l-160 504h92l105 -352l10 -46l11 46l113 352h74l113 -352l11 -46l10 46l105 352h92z" />
    <glyph glyph-name="Ycircumflex" unicode="&#x176;" horiz-adv-x="674" 
d="M508 731h-109l-63 55l-62 -55h-108l143 113h56zM383 265v-265h-92v265l-277 435h107l189 -294l26 -47l27 47l190 294h107z" />
    <glyph glyph-name="ycircumflex" unicode="&#x177;" horiz-adv-x="504" 
d="M414 574h-96l-68 92l-68 -92h-96l136 158h56zM212 -215h-91l84 222l-189 497h92l133 -362l10 -38l10 38l133 362h93z" />
    <glyph glyph-name="Ydieresis" unicode="&#x178;" horiz-adv-x="674" 
d="M280 748c-10.667 -10.667 -23.3311 -16.001 -37.998 -16.001c-16 -1.33301 -29.167 3.83398 -39.5 15.501s-15.5 25.167 -15.5 40.5c0 14 5.33301 26 16 36c10 10.667 22.333 16 37 16c15.333 0 28.666 -5.16699 39.999 -15.5s16.666 -23.166 15.999 -38.499
c0 -14.667 -5.33301 -27.334 -16 -38.001zM390.503 824.499c10.333 10.333 23.166 15.498 38.499 15.498s28.333 -5.16699 39 -15.5s16 -23.166 16 -38.499s-5.33301 -28.166 -16 -38.499s-23.667 -15.5 -39 -15.5s-28.166 5.33301 -38.499 16s-15.5 23.334 -15.5 38.001
c0 15.333 5.16699 28.166 15.5 38.499zM383.003 264.997v-265h-92v265l-277 435h107l189 -294l26 -47l27 47l190 294h107z" />
    <glyph glyph-name="Zacute" unicode="&#x179;" horiz-adv-x="590" 
d="M332 732h-97l97 109h131zM542 627l-387 -542h399v-85h-517v73l389 542h-385v85h501v-73z" />
    <glyph glyph-name="zacute" unicode="&#x17a;" horiz-adv-x="459" 
d="M268 574h-82l111 158h114zM418 438l-268 -361h284v-77h-399v66l268 361h-266v77h381v-66z" />
    <glyph glyph-name="Zdotaccent" unicode="&#x17b;" horiz-adv-x="590" 
d="M334.5 828c11 -10.667 16.5 -23.667 16.5 -39c0 -16 -5.5 -29.333 -16.5 -40s-24.167 -16 -39.5 -16c-16 0 -29.5 5.33301 -40.5 16s-16.5 24 -16.5 40c0 15.333 5.5 28.333 16.5 39s24.5 16 40.5 16c15.333 0 28.5 -5.33301 39.5 -16zM542 627l-387 -542h399v-85h-517
v73l389 542h-385v85h501v-73z" />
    <glyph glyph-name="zdotaccent" unicode="&#x17c;" horiz-adv-x="459" 
d="M276.5 602c-11.667 -11.333 -25.834 -17 -42.501 -17s-30.667 5.66699 -42 17s-17 25 -17 41c0 16.667 5.66699 30.667 17 42s25.333 17 42 17s30.834 -5.66699 42.501 -17s17.5 -25.333 17.5 -42c0 -16 -5.83301 -29.667 -17.5 -41zM418 438l-268 -361h284v-77h-399v66
l268 361h-266v77h381v-66z" />
    <glyph glyph-name="Zcaron" unicode="&#x17d;" horiz-adv-x="590" 
d="M323 728h-56l-143 113h108l62 -55l63 55h109zM542 627l-387 -542h399v-85h-517v73l389 542h-385v85h501v-73z" />
    <glyph glyph-name="zcaron" unicode="&#x17e;" horiz-adv-x="459" 
d="M262 563h-56l-136 158h96l68 -92l68 92h96zM418 438l-268 -361h284v-77h-399v66l268 361h-266v77h381v-66z" />
    <glyph glyph-name="florin" unicode="&#x192;" horiz-adv-x="347" 
d="M379 727l-9 -78c-18 8 -37.667 12 -59 12c-47.333 0 -74 -27.333 -80 -82l-8 -75h132l-8 -79h-132l-54 -499c-4.66699 -48.667 -21.167 -86.167 -49.5 -112.5s-66.166 -39.5 -113.499 -39.5c-28 0 -51 4 -69 12l8 78c19.333 -8.66699 39 -13 59 -13
c22.667 0 41 6.83301 55 20.5s22.333 34.167 25 61.5l52 492h-95l8 79h95l10 83c5.33301 48 22.166 85.333 50.499 112s65.833 40 112.5 40c26 0 49.333 -4 70 -12z" />
    <glyph glyph-name="Aringacute" unicode="&#x1fa;" horiz-adv-x="692" 
d="M400 896c27.333 -17.333 41 -43 41 -77c0 -26.667 -9 -49 -27 -67s-41 -27 -69 -27s-51 9 -69 27s-27 40.333 -27 67c0 39.333 16.667 67 50 83l70 78h131zM317.5 848c-6.33301 -8 -9.5 -17.667 -9.5 -29s3.16699 -21 9.5 -29s15.5 -11.667 27.5 -11
c12 -0.666992 21.5 3 28.5 11s10.5 17.667 10.5 29s-3.5 21 -10.5 29s-16.5 11.667 -28.5 11c-12 0.666992 -21.167 -3 -27.5 -11zM674 0h-100l-74 185h-309l-73 -185h-100l281 700h94zM332 545l-110 -275h247l-111 275l-13 38z" />
    <glyph glyph-name="aringacute" unicode="&#x1fb;" horiz-adv-x="494" 
d="M300 752c38.667 -16.667 58 -48 58 -94c0 -28.667 -9.83301 -52.834 -29.5 -72.501s-45.167 -29.5 -76.5 -29.5c-30 0 -55 9.83301 -75 29.5s-30 43.834 -30 72.501c0 36 13.667 64 41 84l88 99h131zM217.5 694c-9 -9.33301 -13.5 -21 -13.5 -35s4.5 -25.667 13.5 -35
s20.5 -14 34.5 -14s25.667 4.66699 35 14s14 21 14 35s-4.5 25.667 -13.5 35s-20.833 14 -35.5 14c-14 0 -25.5 -4.66699 -34.5 -14zM380.5 468c31.667 -31.333 47.5 -76 47.5 -134v-334h-78l-4 69c-14 -24.667 -34.333 -44.167 -61 -58.5s-57.334 -21.5 -92.001 -21.5
c-44.667 0 -80.334 12.833 -107.001 38.5s-40 60.167 -40 103.5c0 79.333 47 128 141 146l154 29v25c0 69.333 -31 104 -93 104c-30.667 0 -55.5 -8.16699 -74.5 -24.5s-28.5 -38.833 -28.5 -67.5h-85c0.666992 49.333 18.667 90.333 54 123
c34.667 32.667 79.334 49 134.001 49c56.667 0 100.834 -15.667 132.501 -47zM203 201c-23.333 -6 -40.833 -14.168 -52.5 -24.501s-17.5 -25.166 -17.5 -44.499c0 -20 6.66699 -35.5 20 -46.5s32.333 -16.5 57 -16.5c44 0 78 16.667 102 50c19.333 26.667 29 57.667 29 93
v19z" />
    <glyph glyph-name="AEacute" unicode="&#x1fc;" horiz-adv-x="931" 
d="M613 732h-97l97 109h131zM884 615h-295v-212h259v-85h-259v-233h295v-85h-386v188h-253l-127 -188h-107l460 700h413v-85zM477 545l-182 -277h203v315z" />
    <glyph glyph-name="aeacute" unicode="&#x1fd;" horiz-adv-x="852" 
d="M444 574h-82l111 158h114zM744 448c41.333 -44.667 62 -107.668 62 -189.001v-41h-383c3.33301 -46 19.166 -82.333 47.499 -109s64.5 -40 108.5 -40c70 0 115.333 27.333 136 82h86c-16 -51.333 -43.167 -91.166 -81.5 -119.499s-85.833 -42.5 -142.5 -42.5
c-92 0 -160 36 -204 108c-40 -72 -100 -108 -180 -108c-46 0 -82 12.667 -108 38s-39 59.333 -39 102c0 40 11.833 72.5 35.5 97.5s57.5 41.5 101.5 49.5l151 30v22c0 71.333 -31 107 -93 107c-29.333 0 -52.666 -8 -69.999 -24s-26 -38.667 -26 -68h-85
c1.33301 50 18.333 91 51 123c32.667 32.667 76 49 130 49c75.333 0 127.333 -26.333 156 -79c46 52.667 106 79 180 79c70 0 125.667 -22.333 167 -67zM473 396.499c-27.333 -25.667 -43.667 -59.5 -49 -101.5h295c-0.666992 42.667 -14 76.667 -40 102s-60 38 -102 38
s-76.667 -12.833 -104 -38.5zM208.999 202.999c-28 -6 -47.667 -14.168 -59 -24.501s-17 -26.166 -17 -47.499c0 -19.333 6.33301 -34.5 19 -45.5s31 -16.5 55 -16.5c42 0 74.333 15.333 97 46c20 26 30 54.333 30 85v31z" />
    <glyph glyph-name="Oslashacute" unicode="&#x1fe;" horiz-adv-x="795" 
d="M430 738h-97l97 109h131zM540 686l44.999 80.001l71 -34l-47 -84c46 -32.667 81.833 -75 107.5 -127s38.5 -108.667 38.5 -170c0 -104.667 -33.667 -191.667 -101 -261c-66.667 -68.667 -152 -103 -256 -103c-50.667 0 -98.667 9 -144 27l-47 -83l-71 34l49 87
c-46 32.667 -81.667 75.167 -107 127.5s-38 109.5 -38 171.5c0 103.333 33.667 189.666 101 258.999c66.667 68.667 152.334 103 257.001 103c50 0 97.333 -9 142 -27zM207.999 549.001c-48.667 -51.333 -73 -117.333 -73 -198c0 -94 31.333 -167.333 94 -220l268 479
c-30 12 -63 18 -99 18c-78 0 -141.333 -26.333 -190 -79zM564.999 570.001l-269.001 -480c30.667 -12 64.667 -18 102 -18c76.667 0 139.334 26.333 188.001 79c49.333 53.333 74 120 74 200c0 92 -31.667 165 -95 219z" />
    <glyph glyph-name="oslashacute" unicode="&#x1ff;" horiz-adv-x="582" 
d="M323 574h-82l111 158h114zM389 497l41 76l54 -24l-43 -80c33.333 -23.333 59.166 -53.833 77.499 -91.5s27.5 -79.5 27.5 -125.5c0 -76.667 -24 -139.667 -72 -189c-47.333 -49.333 -108.333 -74 -183 -74c-33.333 0 -66 5.66699 -98 17l-40 -76l-54 24l42 79
c-70.667 48.667 -106 121.667 -106 219c0 76.667 23.667 139.667 71 189c48 49.333 109.667 74 185 74c32.667 0 65.334 -6 98.001 -18zM170 383c-30.667 -33.333 -45.999 -76.999 -45.999 -130.999c0 -60.667 19.333 -108.334 58 -143.001l168 316
c-18 6.66699 -37.333 10 -58 10c-50.667 0 -91.334 -17.333 -122.001 -52zM401.001 394.001l-169 -315c16 -6.66699 36 -10 60 -10c49.333 0 89 17.333 119 52c30.667 34.667 46 78.334 46 131.001c0 59.333 -18.667 106.666 -56 141.999z" />
    <glyph glyph-name="Scommaaccent" unicode="&#x218;" horiz-adv-x="528" 
d="M411.5 661.5c36.333 -34.333 55.166 -83.167 56.499 -146.5h-92c-0.666992 36 -11.334 64.333 -32.001 85s-48.334 31 -83.001 31c-33.333 0 -59.666 -9.33301 -78.999 -28s-29 -44.667 -29 -78c0 -31.333 9.66699 -55.666 29 -72.999
c20.667 -16.667 57.334 -35.334 110.001 -56.001c72.667 -27.333 123.667 -55.666 153 -84.999c30 -30 45 -70.333 45 -121c0 -62 -19.833 -111.333 -59.5 -148s-92.167 -55 -157.5 -55c-71.333 0 -127.5 19.667 -168.5 59s-62.167 92.666 -63.5 159.999h92
c0.666992 -44 13.334 -78 38.001 -102s59 -36 103 -36c39.333 0 69.833 10.5 91.5 31.5s32.5 49.167 32.5 84.5c0 29.333 -11 53.5 -33 72.5s-60 37.833 -114 56.5c-64.667 24 -112.667 50.667 -144 80c-30.667 30 -46 71.667 -46 125c0 56 17.667 102.667 53 140
c36 36.667 85.667 55 149 55c62.667 0 112.167 -17.167 148.5 -51.5zM306 -196.501c-13.333 -29.667 -30.998 -55.499 -52.998 -77.499l-25 15c18 28 28.667 59.667 32 95c-16 1.33301 -29 7.33301 -39 18s-15 24 -15 40c0 17.333 5.66699 31.666 17 42.999
s25.666 17 42.999 17s31.666 -6 42.999 -18s17 -27.667 17 -47c0 -27.333 -6.66699 -55.833 -20 -85.5z" />
    <glyph glyph-name="scommaaccent" unicode="&#x219;" horiz-adv-x="441" 
d="M337 471c30.667 -28.667 46.6699 -67 48.0029 -115h-88c-0.666992 52.667 -27.334 79 -80.001 79c-24.667 0 -43.667 -6.16699 -57 -18.5s-20 -28.833 -20 -49.5c0 -20 6.5 -35 19.5 -45s38.167 -19.333 75.5 -28c60 -14 102.5 -32.5 127.5 -55.5
s37.5 -54.833 37.5 -95.5c0 -47.333 -16.333 -84.833 -49 -112.5s-75.334 -41.5 -128.001 -41.5c-56.667 0 -101.167 14.667 -133.5 44s-49.166 69.333 -50.499 120h88c1.33301 -56 34 -84 98 -84c27.333 0 48.666 6.16699 63.999 18.5s23 28.833 23 49.5
c0 21.333 -7.33301 37.833 -22 49.5s-42.334 22.167 -83.001 31.5c-54.667 12.667 -94.167 30 -118.5 52s-36.5 52.667 -36.5 92c0 42.667 14.667 78.667 44 108c30 30 71 45 123 45c48 0 87.333 -14.667 118 -44zM262.003 -189.5
c-13.333 -29.667 -30.999 -55.501 -52.999 -77.501l-25 15c18.667 29.333 29.334 61 32.001 95c-16 1.33301 -29 7.33301 -39 18s-15 24 -15 40c0 16.667 5.66699 30.834 17 42.501s25.666 17.5 42.999 17.5s31.666 -6 42.999 -18s17 -27.667 17 -47
c0 -27.333 -6.66699 -55.833 -20 -85.5z" />
    <glyph glyph-name="uni021A" unicode="&#x21a;" horiz-adv-x="607" 
d="M597 615h-248v-615h-91v615h-248v85h587v-85zM346 -54c11.333 -12 16.999 -27.666 16.999 -46.999c0 -27.333 -6.66699 -55.833 -20 -85.5s-31 -55.5 -53 -77.5l-25 15c18.667 29.333 29.334 61 32.001 95c-16 1.33301 -29 7.33301 -39 18s-15 24 -15 40
c0 17.333 5.83301 31.666 17.5 42.999s25.834 17 42.501 17c17.333 0 31.666 -6 42.999 -18z" />
    <glyph glyph-name="uni021B" unicode="&#x21b;" horiz-adv-x="350" 
d="M190 504h129.002v-80h-130l-2 -270c0 -30 5.16699 -51.167 15.5 -63.5s29.166 -18.5 56.499 -18.5c22 0 42 3 60 9v-77c-18.667 -7.33301 -43.667 -11 -75 -11c-48.667 0 -84.834 11.667 -108.501 35s-35.167 60 -34.5 110l2 286h-94v80h94l1 126h87zM238.002 -193.5
c-13.333 -29.667 -30.999 -55.501 -52.999 -77.501l-25 15c18.667 29.333 29.334 61 32.001 95c-16 1.33301 -29 7.33301 -39 18s-15 24 -15 40c0 16.667 5.66699 30.834 17 42.501s25.666 17.5 42.999 17.5s31.666 -6 42.999 -18s17 -27.667 17 -47
c0 -27.333 -6.66699 -55.833 -20 -85.5z" />
    <glyph glyph-name="circumflex" unicode="&#x2c6;" horiz-adv-x="348" 
d="M338 574h-96l-68 92l-68 -92h-96l136 158h56z" />
    <glyph glyph-name="caron" unicode="&#x2c7;" horiz-adv-x="348" 
d="M202 563h-56l-136 158h96l68 -92l68 92h96z" />
    <glyph glyph-name="breve" unicode="&#x2d8;" horiz-adv-x="308" 
d="M258 608c-26.667 -26 -61.332 -38.999 -103.999 -38.999s-77.334 13 -104.001 39s-40 59.333 -40 100h74c0 -22.667 6.33301 -41.334 19 -56.001s29.667 -22 51 -22c20 0 36.667 7.5 50 22.5s20 33.5 20 55.5h74c0 -40.667 -13.333 -74 -40 -100z" />
    <glyph glyph-name="dotaccent" unicode="&#x2d9;" horiz-adv-x="139" 
d="M111.5 602c-11.667 -11.333 -25.834 -17 -42.501 -17s-30.667 5.66699 -42 17s-17 25 -17 41c0 16.667 5.66699 30.667 17 42s25.333 17 42 17s30.834 -5.66699 42.501 -17s17.5 -25.333 17.5 -42c0 -16 -5.83301 -29.667 -17.5 -41z" />
    <glyph glyph-name="ring" unicode="&#x2da;" horiz-adv-x="231" 
d="M191.5 732.5c19.667 -19.667 29.499 -44.5 29.499 -74.5c0 -28.667 -9.83301 -52.834 -29.5 -72.501s-45.167 -29.5 -76.5 -29.5c-30 0 -55 9.83301 -75 29.5s-30 43.834 -30 72.501c0 30 9.83301 54.833 29.5 74.5s44.834 29.5 75.501 29.5
c31.333 0 56.833 -9.83301 76.5 -29.5zM80.499 694c-9 -9.33301 -13.5 -21 -13.5 -35s4.5 -25.667 13.5 -35s20.5 -14 34.5 -14s25.667 4.66699 35 14s14 21 14 35s-4.5 25.667 -13.5 35s-20.833 14 -35.5 14c-14 0 -25.5 -4.66699 -34.5 -14z" />
    <glyph glyph-name="ogonek" unicode="&#x2db;" horiz-adv-x="188" 
d="M131 0c-42.667 -18.667 -64.001 -46.999 -64.001 -84.999c0 -17.333 4.83301 -31 14.5 -41s22.834 -15 39.501 -15c18.667 0 33 3 43 9l14 -54c-14 -8 -33.667 -12 -59 -12c-33.333 0 -60.5 10.167 -81.5 30.5s-31.5 47.166 -31.5 80.499c0 51.333 29.667 91 89 119z" />
    <glyph glyph-name="tilde" unicode="&#x2dc;" horiz-adv-x="349" 
d="M163.5 694.5c11.667 -7.66699 23.5 -18.501 35.5 -32.501c7.33301 -10 14 -17.333 20 -22s13.667 -7 23 -7c26 0 39 21.333 39 64h58c0 -39.333 -9 -70.5 -27 -93.5s-43.667 -34.5 -77 -34.5c-21.333 0 -38 3.83301 -50 11.5s-23.667 18.834 -35 33.501
c-7.33301 10 -14 17.333 -20 22s-13.667 7 -23 7c-26 0 -39 -21.667 -39 -65h-58c0 40 9 71.333 27 94s43.667 34 77 34c21.333 0 37.833 -3.83301 49.5 -11.5z" />
    <glyph glyph-name="hungarumlaut" unicode="&#x2dd;" horiz-adv-x="370" 
d="M87 574h-77l84 158h97zM256 574h-77l84 158h97z" />
    <glyph glyph-name="uni0326" unicode="&#x326;" horiz-adv-x="0" 
d="M-56 -54c11.333 -12 16.999 -27.666 16.999 -46.999c0 -27.333 -6.66699 -55.833 -20 -85.5s-31 -55.5 -53 -77.5l-25 15c18.667 29.333 29.334 61 32.001 95c-16 1.33301 -29 7.33301 -39 18s-15 24 -15 40c0 17.333 5.83301 31.666 17.5 42.999s25.834 17 42.501 17
c17.333 0 31.666 -6 42.999 -18z" />
    <glyph glyph-name="uni03A9" unicode="&#x3a9;" horiz-adv-x="859" 
d="M617 95h205.001v-95h-333v84c116 84 174 185.667 174 305c0 74 -20.667 134.667 -62 182c-40.667 46.667 -96.334 70 -167.001 70c-71.333 0 -127.333 -23.333 -168 -70c-41.333 -47.333 -62 -108 -62 -182c0 -119.333 58 -221 174 -305v-84h-332v95h205
c-95.333 87.333 -143 186.333 -143 297c0 99.333 29.667 181.333 89 246c58.667 64.667 137.667 97 237 97s178.333 -32.333 237 -97c59.333 -64.667 89 -146.667 89 -246c0 -110 -47.667 -209 -143 -297z" />
    <glyph glyph-name="pi" unicode="&#x3c0;" horiz-adv-x="711" 
d="M699 534c-15.333 -40.667 -35.666 -70.166 -60.999 -88.499s-62 -27.5 -110 -27.5h-14l-34 -260c-1.33301 -12 -2 -20 -2 -24c0 -36 14.333 -54 43 -54c23.333 0 45.333 9 66 27c8 -16.667 13.667 -27.667 17 -33c8 -14.667 13.333 -25 16 -31
c-40.667 -32 -84 -48 -130 -48c-34 0 -58.833 8.66699 -74.5 26s-23.5 43.666 -23.5 78.999c0 12 1 25.333 3 40l36 278h-123l-34 -253c-8.66699 -64 -23.334 -119 -44.001 -165h-93c28.667 52.667 47.334 112.667 56.001 180l32 238h-20
c-56.667 0 -103.334 -20.333 -140.001 -61l-43 62c30.667 29.333 59.334 50 86.001 62c27.333 12.667 66.666 19 117.999 19h256c45.333 0 77.333 5.33301 96 16c19.333 11.333 36 31 50 59z" />
    <glyph glyph-name="uni0401" unicode="&#x401;" horiz-adv-x="510" 
d="M463 615h-294v-212h259v-85h-259v-233h294v-85h-385v700h385v-85zM292 748c-10.667 10.667 -15.998 23.335 -15.998 38.002c-1.33301 15.333 3.66699 28.166 15 38.499s24.666 15.5 39.999 15.5s28 -5.33301 38 -16c10.667 -8.66699 16 -20.667 16 -36
s-5.33301 -28.833 -16 -40.5s-23.667 -16.834 -39 -15.501c-14.667 0 -27.334 5.33301 -38.001 16zM181.502 748.001c-10.333 -10.667 -23.166 -15.998 -38.499 -15.998s-28.333 5.16699 -39 15.5s-16 23.166 -16 38.499s5.33301 28.166 16 38.499s23.667 15.5 39 15.5
s28.166 -5.16699 38.499 -15.5s15.5 -23.166 15.5 -38.499c0 -14.667 -5.16699 -27.334 -15.5 -38.001z" />
    <glyph glyph-name="uni0404" unicode="&#x404;" horiz-adv-x="728" 
d="M376 713c80 0 146.831 -19.335 200.498 -58.002s90.5 -93 110.5 -163h-101c-32.667 90.667 -102.667 136 -210 136c-74 0 -134.333 -26.333 -181 -79c-38 -42 -60.667 -94.333 -68 -157h238v-86h-238c8 -61.333 30.667 -113 68 -155
c46.667 -52.667 107.334 -79 182.001 -79c54 0 99.333 12.333 136 37s62.334 58.667 77.001 102h98c-20 -72 -56.667 -127.333 -110 -166s-120.333 -58 -201 -58c-102 0 -185.333 34.333 -250 103s-97 155.334 -97 260.001s32.333 191.334 97 260.001s147.667 103 249 103z
" />
    <glyph glyph-name="uni0405" unicode="&#x405;" horiz-adv-x="528" 
d="M411.5 661.5c36.333 -34.333 55.166 -83.167 56.499 -146.5h-92c-0.666992 36 -11.334 64.333 -32.001 85s-48.334 31 -83.001 31c-33.333 0 -59.666 -9.33301 -78.999 -28s-29 -44.667 -29 -78c0 -31.333 9.66699 -55.666 29 -72.999
c20.667 -16.667 57.334 -35.334 110.001 -56.001c72.667 -27.333 123.667 -55.666 153 -84.999c30 -30 45 -70.333 45 -121c0 -62 -19.833 -111.333 -59.5 -148s-92.167 -55 -157.5 -55c-71.333 0 -127.5 19.667 -168.5 59s-62.167 92.666 -63.5 159.999h92
c0.666992 -44 13.334 -78 38.001 -102s59 -36 103 -36c39.333 0 69.833 10.5 91.5 31.5s32.5 49.167 32.5 84.5c0 29.333 -11 53.5 -33 72.5s-60 37.833 -114 56.5c-64.667 24 -112.667 50.667 -144 80c-30.667 30 -46 71.667 -46 125c0 56 17.667 102.667 53 140
c36 36.667 85.667 55 149 55c62.667 0 112.167 -17.167 148.5 -51.5z" />
    <glyph glyph-name="uni0406" unicode="&#x406;" horiz-adv-x="247" 
d="M169 0h-91v700h91v-700z" />
    <glyph glyph-name="uni0407" unicode="&#x407;" horiz-adv-x="247" 
d="M68 748c-10.667 -10.667 -23.3311 -16.001 -37.998 -16.001c-16 -1.33301 -29.167 3.83398 -39.5 15.501s-15.5 25.167 -15.5 40.5c0 14 5.33301 26 16 36c10 10.667 22.333 16 37 16c15.333 0 28.666 -5.16699 39.999 -15.5s16.666 -23.166 15.999 -38.499
c0 -14.667 -5.33301 -27.334 -16 -38.001zM178.503 824.499c10.333 10.333 23.166 15.498 38.499 15.498s28.333 -5.16699 39 -15.5s16 -23.166 16 -38.499s-5.33301 -28.166 -16 -38.499s-23.667 -15.5 -39 -15.5s-28.166 5.33301 -38.499 16s-15.5 23.334 -15.5 38.001
c0 15.333 5.16699 28.166 15.5 38.499zM169.003 -0.00292969h-91v700h91v-700z" />
    <glyph glyph-name="uni0408" unicode="&#x408;" horiz-adv-x="500" 
d="M431 201c0 -68.667 -16.8311 -120.999 -50.498 -156.999s-82.167 -54 -145.5 -54c-66.667 0 -117.334 19.167 -152.001 57.5s-53.334 93.166 -56.001 164.499h91c4 -91.333 43 -137 117 -137c34 0 60 11.167 78 33.5s27 54.5 27 96.5v495h91v-499z" />
    <glyph glyph-name="uni0410" unicode="&#x410;" horiz-adv-x="692" 
d="M674 0h-100l-74 185h-309l-73 -185h-100l281 700h94zM332 545l-110 -275h247l-111 275l-13 38z" />
    <glyph glyph-name="uni0411" unicode="&#x411;" horiz-adv-x="571" 
d="M536 203c0 -41.333 -9.83203 -77 -29.499 -107s-47 -53 -82 -69s-74.833 -24 -119.5 -24h-226v700h402v-85h-311v-216h135c42 0 80 -7.16699 114 -21.5s61.167 -34.333 81.5 -60s31.166 -54.5 32.499 -86.5zM406.001 118c20.667 20 32.666 52.667 35.999 98
c-4 31.333 -18.167 56 -42.5 74s-55.833 27 -94.5 27h-135v-229h135c46.667 0 80.334 10 101.001 30z" />
    <glyph glyph-name="uni0412" unicode="&#x412;" horiz-adv-x="571" 
d="M433 648.5c39.333 -34.333 59.002 -80.5029 59.002 -138.503c0 -62 -25 -109.667 -75 -143c37.333 -13.333 66.333 -34.666 87 -63.999s31 -63.666 31 -102.999c0 -40 -9.5 -75.167 -28.5 -105.5s-45.833 -53.666 -80.5 -69.999s-75.334 -24.5 -122.001 -24.5h-226v700
h195c67.333 0 120.666 -17.167 159.999 -51.5zM169.002 398.997h108.001c37.333 0 67.166 9.66699 89.499 29s33.5 45 33.5 77c0 35.333 -11.167 62.5 -33.5 81.5s-53.5 28.5 -93.5 28.5h-104v-216zM169.003 84.9971l134.998 -0.000976562
c42.667 0 76.334 10.333 101.001 31s37 49.334 37 86.001c0 35.333 -12.167 63 -36.5 83s-58.166 30 -101.499 30h-135v-230z" />
    <glyph glyph-name="uni0413" unicode="&#x413;" horiz-adv-x="503" 
d="M77 0v700h403v-85h-312v-615h-91z" />
    <glyph glyph-name="uni0414" unicode="&#x414;" horiz-adv-x="688" 
d="M205 698l387 2v-617h78v-232h-86v150h-480v-150h-86v232h62zM176 83h322v535h-209z" />
    <glyph glyph-name="uni0415" unicode="&#x415;" horiz-adv-x="510" 
d="M463 615h-294v-212h259v-85h-259v-233h294v-85h-385v700h385v-85z" />
    <glyph glyph-name="uni0416" unicode="&#x416;" horiz-adv-x="886" 
d="M757 1l-269 342v-342h-91v342l-268 -342h-111l297 391l-234 309h112l204 -269v269h91v-269l205 269h112l-234 -309l297 -391h-111z" />
    <glyph glyph-name="uni0417" unicode="&#x417;" horiz-adv-x="518" 
d="M427 417.5c-18 -26.333 -41.334 -44.499 -70.001 -54.499c34.667 -8.66699 63.5 -28.5 86.5 -59.5s34.5 -68.833 34.5 -113.5c0 -60 -20 -109 -60 -147c-40.667 -37.333 -93 -56 -157 -56c-68.667 0 -122.667 18.833 -162 56.5s-59 90.167 -59 157.5h91
c0 -42.667 11.833 -74.834 35.5 -96.501s56.167 -32.5 97.5 -32.5c36.667 0 66.167 11 88.5 33s33.5 51.333 33.5 88c0 42 -14.167 74 -42.5 96s-69.166 33 -122.499 33h-23v80h22c49.333 0 85.5 9 108.5 27s34.5 46.333 34.5 85c0 36 -9.16699 64 -27.5 84
s-44.5 30 -78.5 30c-33.333 0 -60.166 -10.833 -80.499 -32.5s-30.5 -52.834 -30.5 -93.501h-90c0 64.667 18 116 54 154s84.667 57 146 57s109.666 -18.667 144.999 -56s53 -84.333 53 -141c0 -39.333 -9 -72.166 -27 -98.499z" />
    <glyph glyph-name="uni0418" unicode="&#x418;" horiz-adv-x="711" 
d="M169 700v-546l30 46l346 500h89v-700h-91v545l-27 -43l-348 -502h-90v700h91z" />
    <glyph glyph-name="uni0419" unicode="&#x419;" horiz-adv-x="711" 
d="M169 700v-546l30 46l346 500h89v-700h-91v545l-27 -43l-348 -502h-90v700h91zM444 763c-26.667 -22.667 -61.333 -34 -104 -34c-43.333 0 -78.166 11.333 -104.499 34s-39.5 52.334 -39.5 89.001h74c0 -18.667 6.16699 -33.5 18.5 -44.5s29.5 -16.5 51.5 -16.5
c21.333 0 38.166 5.5 50.499 16.5s18.5 25.833 18.5 44.5h75c0 -36.667 -13.333 -66.334 -40 -89.001z" />
    <glyph glyph-name="uni041A" unicode="&#x41a;" horiz-adv-x="670" 
d="M354 391l297 -391h-111l-247 318l-118 -148v-170h-91v700h91v-396l301 396h112z" />
    <glyph glyph-name="uni041B" unicode="&#x41b;" horiz-adv-x="692" 
d="M18 0l281 700h94l281 -700h-100l-216 545l-13 38l-13 -38l-214 -545h-100z" />
    <glyph glyph-name="uni041C" unicode="&#x41c;" horiz-adv-x="875" 
d="M798 0h-91v521l-19 -52l-214 -469h-73l-213 469l-19 52v-521h-91v700h100l240 -514l19 -45l20 45l241 514h100v-700z" />
    <glyph glyph-name="uni041D" unicode="&#x41d;" horiz-adv-x="708" 
d="M630 0h-91v319h-370v-319h-91v700h91v-295h370v295h91v-700z" />
    <glyph glyph-name="uni041E" unicode="&#x41e;" horiz-adv-x="795" 
d="M654 610c67.333 -69.333 101 -155.666 101 -258.999c0 -104.667 -33.667 -191.667 -101 -261c-66.667 -68.667 -152 -103 -256 -103c-104.667 0 -190.334 34.333 -257.001 103c-67.333 69.333 -101 156.333 -101 261c0 103.333 33.667 189.666 101 258.999
c66.667 68.667 152.334 103 257.001 103c104 0 189.333 -34.333 256 -103zM208 549c-48.667 -51.333 -73 -117.332 -73 -197.999s24.333 -147.334 73 -200.001s112 -79 190 -79c76.667 0 139.334 26.333 188.001 79c49.333 53.333 74 120 74 200
c0 79.333 -24.667 145.333 -74 198c-48.667 52.667 -111.334 79 -188.001 79c-78 0 -141.333 -26.333 -190 -79z" />
    <glyph glyph-name="uni041F" unicode="&#x41f;" horiz-adv-x="708" 
d="M630 0h-91v614h-370v-614h-91v700h552v-700z" />
    <glyph glyph-name="uni0420" unicode="&#x420;" horiz-adv-x="538" 
d="M452 640c41.333 -39.333 62 -91.001 62 -155.001c0 -63.333 -20.667 -114.666 -62 -153.999c-40.667 -38.667 -96.334 -58 -167.001 -58h-116v-273h-91v700h207c70.667 0 126.334 -20 167.001 -60zM169 357.999h116c42 0 75.333 11.333 100 34s37 53.667 37 93
c0 40 -12.5 71.667 -37.5 95s-58.167 35 -99.5 35h-116v-257z" />
    <glyph glyph-name="uni0421" unicode="&#x421;" horiz-adv-x="728" 
d="M586.5 655c53.667 -38.667 90.498 -93.0029 110.498 -163.003h-101c-32.667 90.667 -102.667 136 -210 136c-74 0 -134.333 -26.333 -181 -79c-46.667 -51.333 -70 -117.666 -70 -198.999c0 -80 23.333 -146.333 70 -199s107.334 -79 182.001 -79
c54 0 99.333 12.333 136 37s62.334 58.667 77.001 102h98c-20 -72 -56.667 -127.333 -110 -166s-120.333 -58 -201 -58c-102 0 -185.333 34.333 -250 103s-97 155.334 -97 260.001s32.333 191.334 97 260.001s147.667 103 249 103c80 0 146.833 -19.333 200.5 -58z" />
    <glyph glyph-name="uni0422" unicode="&#x422;" horiz-adv-x="607" 
d="M597 615h-248v-615h-91v615h-248v85h587v-85z" />
    <glyph glyph-name="uni0423" unicode="&#x423;" horiz-adv-x="506" 
d="M225 0h-100l77 196l-188 504h100l129 -353l10 -36l9 36l130 353h100z" />
    <glyph glyph-name="uni0424" unicode="&#x424;" horiz-adv-x="795" 
d="M755 349c0 -41.333 -8 -80.333 -24 -117s-39.333 -69.334 -70 -98.001c-28 -25.333 -59.5 -45 -94.5 -59s-76.167 -22.667 -123.5 -26v-49h-91v49c-47.333 3.33301 -88.5 12 -123.5 26s-66.5 33.667 -94.5 59c-30.667 28.667 -54 61.334 -70 98.001s-24 75.667 -24 117
c0 83.333 31.333 154.333 94 213c28.667 26 60.667 46.5 96 61.5s76 24.167 122 27.5v49h91v-49c46 -3.33301 86.667 -12.5 122 -27.5s67.333 -35.5 96 -61.5c62.667 -58.667 94 -129.667 94 -213zM265.5 154.5c24.333 -10.333 53.166 -17.1689 86.499 -20.502v433
c-63.333 -5.33301 -113.666 -26.666 -150.999 -63.999c-22 -20.667 -38.667 -44.167 -50 -70.5s-16.666 -54.166 -15.999 -83.499c-0.666992 -27.333 4.66602 -54 15.999 -80s28 -49.667 50 -71c18.667 -18.667 40.167 -33.167 64.5 -43.5zM643.5 268.997
c11.667 26 17.166 52.6641 16.499 79.9971c0.666992 29.333 -4.66602 57.166 -15.999 83.499s-28.333 49.833 -51 70.5c-18.667 18.667 -40 33.334 -64 44.001s-52.667 17.334 -86 20.001v-433c33.333 2.66699 62 9.33398 86 20.001s45.333 25.334 64 44.001
c22 21.333 38.833 45 50.5 71z" />
    <glyph glyph-name="uni0425" unicode="&#x425;" horiz-adv-x="682" 
d="M402 357l253 -357h-108l-206 288l-205 -288h-108l252 357l-242 343h109l194 -273l195 273h108z" />
    <glyph glyph-name="uni0426" unicode="&#x426;" horiz-adv-x="710" 
d="M692 83v-232h-86v149h-528v700h91v-614h370v614h91v-617h62z" />
    <glyph glyph-name="uni0427" unicode="&#x427;" horiz-adv-x="563" 
d="M130 487c0 -36 11.8311 -64 35.498 -84s55.834 -30 96.501 -30h132v327h91v-700h-91v287h-132c-69.333 0 -123.666 18.333 -162.999 55c-40.667 36.667 -61 85 -61 145v213h94z" />
    <glyph glyph-name="uni0428" unicode="&#x428;" horiz-adv-x="875" 
d="M798 700v-700h-720v700h91v-614h223v614h91v-614h224v614h91z" />
    <glyph glyph-name="uni0429" unicode="&#x429;" horiz-adv-x="878" 
d="M861 83v-232h-86v149h-697v700h91v-614h223v614h91v-614h224v614h91v-617h63z" />
    <glyph glyph-name="uni042A" unicode="&#x42a;" horiz-adv-x="702" 
d="M667 203c0 -41.333 -9.83203 -77 -29.499 -107s-47 -53 -82 -69s-74.833 -24 -119.5 -24h-226v618h-193v82l284 -4v-297h135c42 0 80 -7.16699 114 -21.5s61.167 -34.333 81.5 -60s31.166 -54.5 32.499 -86.5zM537.001 118c20.667 20 32.666 52.667 35.999 98
c-4 31.333 -18.167 56 -42.5 74s-55.833 27 -94.5 27h-135v-229h135c46.667 0 80.334 10 101.001 30z" />
    <glyph glyph-name="uni042B" unicode="&#x42b;" horiz-adv-x="749" 
d="M535 203c0 -41.333 -9.83203 -77 -29.499 -107s-47 -53 -82 -69s-74.833 -24 -119.5 -24h-226v700l91 -3v-298h135c42 0 80 -7.16699 114 -21.5s61.167 -34.333 81.5 -60s31.166 -54.5 32.499 -86.5zM671.001 0h-91v700h91v-700zM405.001 118
c20.667 20 32.666 52.667 35.999 98c-4 31.333 -18.167 56 -42.5 74s-55.833 27 -94.5 27h-135v-229h135c46.667 0 80.334 10 101.001 30z" />
    <glyph glyph-name="uni042C" unicode="&#x42c;" horiz-adv-x="571" 
d="M536 203c0 -41.333 -9.83203 -77 -29.499 -107s-47 -53 -82 -69s-74.833 -24 -119.5 -24h-226v700l91 -3v-298h135c42 0 80 -7.16699 114 -21.5s61.167 -34.333 81.5 -60s31.166 -54.5 32.499 -86.5zM406.001 118c20.667 20 32.666 52.667 35.999 98
c-4 31.333 -18.167 56 -42.5 74s-55.833 27 -94.5 27h-135v-229h135c46.667 0 80.334 10 101.001 30z" />
    <glyph glyph-name="uni042D" unicode="&#x42d;" horiz-adv-x="728" 
d="M688 350c0 -104.667 -32.335 -191.332 -97.002 -259.999s-148 -103 -250 -103c-80.667 0 -147.667 19.333 -201 58s-90 94 -110 166h98c14.667 -43.333 40.334 -77.333 77.001 -102s82 -37 136 -37c74.667 0 135.334 26.333 182.001 79c37.333 42 60 93.667 68 155h-238
v86h238c-7.33301 62.667 -30 115 -68 157c-46.667 52.667 -107 79 -181 79c-107.333 0 -177.333 -45.333 -210 -136h-101c20 70 56.833 124.333 110.5 163s120.5 58 200.5 58c101.333 0 184.333 -34.333 249 -103s97 -155.334 97 -260.001z" />
    <glyph glyph-name="uni042E" unicode="&#x42e;" horiz-adv-x="1004" 
d="M986 351c0 -104.667 -33.667 -191.667 -101 -261c-66.667 -68.667 -152 -103 -256 -103c-104.667 0 -190.334 34.333 -257.001 103c-60.667 62.667 -94 139 -100 229h-103v-319h-91v700h91v-295h105c10 79.333 42.667 147.666 98 204.999
c66.667 68.667 152.334 103 257.001 103c104 0 189.333 -34.333 256 -103c67.333 -69.333 101 -155.666 101 -258.999zM891 351c0 79.333 -24.667 145.334 -74 198.001c-48.667 52.667 -111.334 79 -188.001 79c-78 0 -141.333 -26.333 -190 -79
c-48.667 -51.333 -73 -117.333 -73 -198s24.333 -147.334 73 -200.001s112 -79 190 -79c76.667 0 139.334 26.333 188.001 79c49.333 53.333 74 120 74 200z" />
    <glyph glyph-name="uni042F" unicode="&#x42f;" horiz-adv-x="567" 
d="M489 700v-700h-91v284h-102l-153 -284h-104l163 299c-42 14.667 -74.667 38.5 -98 71.5s-35 72.5 -35 118.5c0 64 20.667 115.167 62 153.5s97 57.5 167 57.5h191zM298 615c-42 0 -75.333 -11.168 -100 -33.501s-37 -53.166 -37 -92.499c0 -38 12.333 -68 37 -90
s58 -33 100 -33h100v249h-100z" />
    <glyph glyph-name="uni0430" unicode="&#x430;" horiz-adv-x="494" 
d="M380.5 468c31.667 -31.333 47.5 -76 47.5 -134v-334h-78l-4 69c-14 -24.667 -34.333 -44.167 -61 -58.5s-57.334 -21.5 -92.001 -21.5c-44.667 0 -80.334 12.833 -107.001 38.5s-40 60.167 -40 103.5c0 79.333 47 128 141 146l154 29v25c0 69.333 -31 104 -93 104
c-30.667 0 -55.5 -8.16699 -74.5 -24.5s-28.5 -38.833 -28.5 -67.5h-85c0.666992 49.333 18.667 90.333 54 123c34.667 32.667 79.334 49 134.001 49c56.667 0 100.834 -15.667 132.501 -47zM203 201c-23.333 -6 -40.833 -14.168 -52.5 -24.501s-17.5 -25.166 -17.5 -44.499
c0 -20 6.66699 -35.5 20 -46.5s32.333 -16.5 57 -16.5c44 0 78 16.667 102 50c19.333 26.667 29 57.667 29 93v19z" />
    <glyph glyph-name="uni0431" unicode="&#x431;" horiz-adv-x="601" 
d="M569 248c0 -76.667 -24.001 -139.666 -72.001 -188.999c-47.333 -49.333 -108.333 -74 -183 -74c-75.333 0 -137 24.667 -185 74c-47.333 49.333 -71 112.333 -71 189c0 15.333 1 30.333 3 45l7 109c2 36.667 8.83301 71.667 20.5 105s27.834 60.666 48.501 81.999
c22 22.667 46.667 40.167 74 52.5s61 21.833 101 28.5l208 32l-2 -83l-209 -34c-41.333 -5.33301 -73.833 -19 -97.5 -41s-40.5 -48.333 -50.5 -79c42.667 30.667 93.667 46 153 46c74.667 0 135.667 -24.667 183 -74c48 -48.667 72 -111.667 72 -189zM433.499 120.501
c29 33.667 43.499 77.502 43.499 131.502s-15 97.333 -45 130c-30 34 -68.333 51 -115 51c-26 0 -50.333 -4.33301 -73 -13s-41.667 -21 -57 -37c-30.667 -32.667 -46 -76.334 -46 -131.001v-5c0 -52.667 15.333 -95.334 46 -128.001
c14.667 -15.333 34.334 -27.333 59.001 -36s48.667 -13 72 -13c48 0 86.5 16.833 115.5 50.5z" />
    <glyph glyph-name="uni0432" unicode="&#x432;" horiz-adv-x="462" 
d="M350 467c30 -26 44.999 -60.334 44.999 -103.001c0 -42 -17 -75.667 -51 -101c26 -9.33301 46.333 -24.166 61 -44.499s22 -44.166 22 -71.499c0 -44.667 -15.667 -80.334 -47 -107.001s-74 -40 -128 -40h-179v505h155c50.667 0 91.334 -12.667 122.001 -38z
M155.999 291.999h73.999c24.667 0 44.334 6.16699 59.001 18.5s22 28.5 22 48.5c0 22 -7.33301 39 -22 51s-35 18 -61 18h-72v-136zM155.998 76.999l96 -0.000976562c27.333 0 49 6.33301 65 19s24 30.334 24 53.001s-7.83301 40.167 -23.5 52.5s-37.5 18.5 -65.5 18.5h-96
v-143z" />
    <glyph glyph-name="uni0433" unicode="&#x433;" horiz-adv-x="427" 
d="M73 0v505h310v-78h-228v-427h-82z" />
    <glyph glyph-name="uni0434" unicode="&#x434;" horiz-adv-x="545" 
d="M168 519l288 1v-435h75v-196h-81v122h-357v-122h-81v196h63zM155 85h222v359h-143z" />
    <glyph glyph-name="uni0435" unicode="&#x435;" horiz-adv-x="553" 
d="M445 448c41.333 -44.667 62 -107.668 62 -189.001v-41h-383c3.33301 -46 19.166 -82.333 47.499 -109s64.5 -40 108.5 -40c70 0 115.333 27.333 136 82h86c-16 -51.333 -43.167 -91.166 -81.5 -119.499s-85.833 -42.5 -142.5 -42.5c-71.333 0 -129.666 24 -174.999 72
c-45.333 48.667 -68 112 -68 190c0 77.333 22.333 140.333 67 189c45.333 50 104 75 176 75c70 0 125.667 -22.333 167 -67zM174 396.499c-27.333 -25.667 -43.667 -59.5 -49 -101.5h295c-0.666992 42.667 -14 76.667 -40 102s-60 38 -102 38s-76.667 -12.833 -104 -38.5z
" />
    <glyph glyph-name="uni0436" unicode="&#x436;" horiz-adv-x="693" 
d="M583 1l-194 247v-247h-86v247l-193 -247h-98l214 282l-169 223h99l147 -194v194h86v-194l148 194h99l-169 -223l214 -282h-98z" />
    <glyph glyph-name="uni0437" unicode="&#x437;" horiz-adv-x="441" 
d="M330 477.5c28 -27 42 -61.833 42 -104.5c0 -27.333 -6.66699 -50.5 -20 -69.5s-30.333 -32.167 -51 -39.5c26 -6 47.333 -19.833 64 -41.5s25 -48.5 25 -80.5c0 -46 -15.5 -82.833 -46.5 -110.5s-72.167 -41.5 -123.5 -41.5c-53.333 0 -95.166 14.167 -125.499 42.5
s-45.5 67.833 -45.5 118.5h83c0.666992 -27.333 9 -48.166 25 -62.499s38 -21.5 66 -21.5c24.667 0 44.5 7.16699 59.5 21.5s22.5 33.166 22.5 56.499c0 54 -37 81 -111 81h-22v73h22c62.667 0 94 23.333 94 70c0 22 -6.33301 39.5 -19 52.5s-30 19.5 -52 19.5
s-39.833 -7 -53.5 -21s-20.5 -34 -20.5 -60h-83c0 48.667 14.167 87.167 42.5 115.5s66.166 42.5 113.499 42.5c48 0 86 -13.5 114 -40.5z" />
    <glyph glyph-name="uni0438" unicode="&#x438;" horiz-adv-x="573" 
d="M156 505v-366l21 33l240 333h83v-505h-84v365l-20 -32l-242 -333h-81v505h83z" />
    <glyph glyph-name="uni0439" unicode="&#x439;" horiz-adv-x="573" 
d="M156 505v-366l21 33l240 333h83v-505h-84v365l-20 -32l-242 -333h-81v505h83zM359 608c-26.667 -26 -61.332 -38.999 -103.999 -38.999s-77.334 13 -104.001 39s-40 59.333 -40 100h74c0 -22.667 6.33301 -41.334 19 -56.001s29.667 -22 51 -22c20 0 36.667 7.5 50 22.5
s20 33.5 20 55.5h74c0 -40.667 -13.333 -74 -40 -100z" />
    <glyph glyph-name="uni043A" unicode="&#x43a;" horiz-adv-x="500" 
d="M168 268l189 236h105l-163 -209l189 -295h-99l-150 229l-71 -86v-143h-86v504h86v-236z" />
    <glyph glyph-name="uni043B" unicode="&#x43b;" horiz-adv-x="502" 
d="M394 0l-133 362l-10 38l-10 -38l-133 -362h-92l192 504h86l193 -504h-93z" />
    <glyph glyph-name="uni043C" unicode="&#x43c;" horiz-adv-x="695" 
d="M622 0h-83v348l-14 -43l-143 -305h-69l-143 305l-14 43v-348h-83v505h94l167 -348l14 -31l12 31l168 348h94v-505z" />
    <glyph glyph-name="uni043D" unicode="&#x43d;" horiz-adv-x="568" 
d="M495 0h-84v222h-255v-222h-83v505h83v-205h255v205h84v-505z" />
    <glyph glyph-name="uni043E" unicode="&#x43e;" horiz-adv-x="582" 
d="M474 441c48 -48.667 72 -111.667 72 -189c0 -76.667 -24 -139.667 -72 -189c-47.333 -49.333 -108.333 -74 -183 -74c-75.333 0 -137 24.667 -185 74c-47.333 49.333 -71 112.333 -71 189s23.667 139.667 71 189c48 49.333 109.667 74 185 74
c74.667 0 135.667 -24.667 183 -74zM170 383c-30.667 -33.333 -46 -77 -46 -131c0 -52.667 15.333 -96.334 46 -131.001s71.334 -52 122.001 -52c49.333 0 89 17.333 119 52c30.667 34.667 46 78.334 46 131.001c0 54 -15.333 97.667 -46 131c-30 34.667 -69.667 52 -119 52
c-50.667 0 -91.334 -17.333 -122.001 -52z" />
    <glyph glyph-name="uni043F" unicode="&#x43f;" horiz-adv-x="568" 
d="M495 0h-84l-1 425h-255l1 -425h-83v505h422v-505z" />
    <glyph glyph-name="uni0440" unicode="&#x440;" horiz-adv-x="609" 
d="M508 440c43.333 -49.333 64.998 -112 64.998 -188c0 -75.333 -22 -138 -66 -188c-43.333 -50 -100 -75 -170 -75c-38 0 -71.5 7.16699 -100.5 21.5s-51.167 33.833 -66.5 58.5v-284h-87v719h78l4 -74c38.667 56.667 96.334 85 173.001 85
c70.667 0 127.334 -25 170.001 -75zM213.998 385c-30.667 -32.667 -46 -75.332 -46 -127.999v-5c0 -54.667 15.333 -98.334 46 -131.001c31.333 -33.333 68 -50 110 -50c46.667 0 85 16.667 115 50c30 34 45 77.667 45 131c0 54 -14.5 97.833 -43.5 131.5
s-67.5 50.5 -115.5 50.5c-43.333 0 -80.333 -16.333 -111 -49z" />
    <glyph glyph-name="uni0441" unicode="&#x441;" horiz-adv-x="544" 
d="M426 471c40 -29.333 65.999 -70.6689 77.999 -124.002h-86c-10 28 -27.167 49.667 -51.5 65s-52.833 23 -85.5 23c-45.333 0 -83 -17.333 -113 -52c-29.333 -35.333 -44 -79.333 -44 -132c0 -51.333 15 -94.666 45 -129.999c30 -34.667 68 -52 114 -52
c32 0 60.333 8 85 24s41.334 37.333 50.001 64h87c-13.333 -53.333 -40 -94.666 -80 -123.999s-88.333 -44 -145 -44c-71.333 0 -130 24.667 -176 74s-69 112 -69 188s23 139 69 189c47.333 50 106 75 176 75c57.333 0 106 -14.667 146 -44z" />
    <glyph glyph-name="uni0442" unicode="&#x442;" horiz-adv-x="473" 
d="M457 427h-179v-427h-82v427h-180v78h441v-78z" />
    <glyph glyph-name="uni0443" unicode="&#x443;" horiz-adv-x="504" 
d="M212 -215h-91l84 222l-189 497h92l133 -362l10 -38l10 38l133 362h93z" />
    <glyph glyph-name="uni0444" unicode="&#x444;" horiz-adv-x="921" 
d="M907 252c0 -75.333 -22 -138 -66 -188c-42.667 -50 -99 -75 -169 -75c-76 0 -132 26.667 -168 80v-284h-87v284c-36 -53.333 -92 -80 -168 -80c-69.333 0 -125.666 25 -168.999 75c-44 50 -66 112.667 -66 188c0 76 21.667 138.667 65 188
c43.333 50 99.666 75 168.999 75c74.667 0 131 -26.333 169 -79v294h87v-294c38 52.667 94.333 79 169 79c70 0 126.333 -25 169 -75c43.333 -49.333 65 -112 65 -188zM417 209l-0.000976562 86c-4.66699 38.667 -19.667 70 -45 94c-31.333 29.333 -68.333 44 -111 44
c-47.333 0 -85.5 -16.667 -114.5 -50s-43.5 -77 -43.5 -131c0 -53.333 15 -97 45 -131c29.333 -34 67.333 -51 114 -51c43.333 0 80.333 15.333 111 46c24.667 24.667 39.334 55.667 44.001 93zM817.999 252c0 54 -14.501 97.667 -43.501 131s-67.167 50 -114.5 50
c-42.667 0 -79.667 -14.667 -111 -44c-25.333 -24 -40.333 -55.333 -45 -94v-86c4.66699 -37.333 19.334 -68.333 44.001 -93c30.667 -30.667 67.667 -46 111 -46c47.333 0 85.333 17 114 51c30 34 45 77.667 45 131z" />
    <glyph glyph-name="uni0445" unicode="&#x445;" horiz-adv-x="511" 
d="M313 260l175 -260h-102l-131 192l-130 -192h-102l174 260l-163 244h102l119 -176l120 176h102z" />
    <glyph glyph-name="uni0446" unicode="&#x446;" horiz-adv-x="595" 
d="M572 81v-207h-84v126h-415v505h83l-1 -425h255l1 425h84v-424h77z" />
    <glyph glyph-name="uni0447" unicode="&#x447;" horiz-adv-x="528" 
d="M452 0l-82.002 -0.00195312v231c-25.333 -53.333 -71.666 -80 -138.999 -80c-52 0 -92 16.833 -120 50.5s-42 79.834 -42 138.501v164h86v-150c0 -39.333 8.33301 -69.166 25 -89.499s40.334 -30.5 71.001 -30.5c34 0 61.667 13.667 83 41s32 64.333 32 111v118h86v-504z
" />
    <glyph glyph-name="uni0448" unicode="&#x448;" horiz-adv-x="828" 
d="M76 505h86v-432h213v432h86v-432h213v432h86v-505h-684v505z" />
    <glyph glyph-name="uni0449" unicode="&#x449;" horiz-adv-x="860" 
d="M837 74v-207h-84v133h-677v505h86v-432h213v432h86v-432h213v432h86v-431h77z" />
    <glyph glyph-name="uni044A" unicode="&#x44a;" horiz-adv-x="480" 
d="M414 269.5c31.333 -27 48.333 -65.168 51 -114.501c0 -47.333 -16.5 -85.166 -49.5 -113.499s-75.5 -42.5 -127.5 -42.5h-151v428h-123v78l206 -1v-194h68c52.667 0 94.667 -13.5 126 -40.5zM354.5 98.499c16.333 13.667 24.5 33.5 24.5 59.5
c0 24 -8.16699 42.667 -24.5 56s-38.833 20 -67.5 20h-68v-156h68c28.667 0 51.167 6.83301 67.5 20.5z" />
    <glyph glyph-name="uni044B" unicode="&#x44b;" horiz-adv-x="600" 
d="M522 3h-86v504h86v-504zM357.5 41.5c-33 -28.333 -75.5 -42.501 -127.5 -42.501h-151v505h83v-194h68c52.667 0 94.667 -13.5 126 -40.5s48.333 -65.167 51 -114.5c0 -47.333 -16.5 -85.166 -49.5 -113.499zM229 77.999c28.667 0 51.167 6.83301 67.5 20.5
s24.5 33.5 24.5 59.5c0 24 -8.16699 42.667 -24.5 56s-38.833 20 -67.5 20h-68v-156h68z" />
    <glyph glyph-name="uni044C" unicode="&#x44c;" horiz-adv-x="422" 
d="M357.5 41.5c-33 -28.333 -75.5 -42.501 -127.5 -42.501h-151v505h83v-194h68c52.667 0 94.667 -13.5 126 -40.5s48.333 -65.167 51 -114.5c0 -47.333 -16.5 -85.166 -49.5 -113.499zM229 77.999c28.667 0 51.167 6.83301 67.5 20.5s24.5 33.5 24.5 59.5
c0 24 -8.16699 42.667 -24.5 56s-38.833 20 -67.5 20h-68v-156h68z" />
    <glyph glyph-name="uni044D" unicode="&#x44d;" horiz-adv-x="544" 
d="M509 251c0 -76 -23.001 -138.665 -69.001 -187.998s-104.667 -74 -176 -74c-56.667 0 -105 14.667 -145 44s-66.667 70.666 -80 123.999h87c8.66699 -26.667 25.334 -48 50.001 -64s53 -24 85 -24c46 0 84 17.333 114 52c24 27.333 38.333 60 43 98h-177v71h176
c-6 36.667 -19.667 67.667 -41 93c-30 34.667 -67.667 52 -113 52c-32.667 0 -61.167 -7.66699 -85.5 -23s-41.5 -37 -51.5 -65h-86c12 53.333 38 94.666 78 123.999s88.667 44 146 44c70 0 128.667 -25 176 -75c46 -50 69 -113 69 -189z" />
    <glyph glyph-name="uni044E" unicode="&#x44e;" horiz-adv-x="821" 
d="M785 251c0 -76.667 -24 -139.667 -72 -189c-47.333 -49.333 -108.333 -74 -183 -74c-75.333 0 -137 24.667 -185 74c-42 44 -65.333 97.667 -70 161l-119 -1v-222h-83v505h83v-205l122 1c8 54 30.333 100.333 67 139c48 49.333 109.667 74 185 74
c74.667 0 135.667 -24.667 183 -74c48 -49.333 72 -112.333 72 -189zM696 251c0 54 -15.333 97.667 -46 131c-30 34.667 -69.667 52 -119 52c-50.667 0 -91.334 -17.333 -122.001 -52c-30.667 -33.333 -46 -77 -46 -131c0 -52.667 15.333 -96.334 46 -131.001
s71.334 -52 122.001 -52c49.333 0 89 17.333 119 52c30.667 34.667 46 78.334 46 131.001z" />
    <glyph glyph-name="uni044F" unicode="&#x44f;" horiz-adv-x="468" 
d="M390 505v-505h-83v197h-64l-109 -197h-94l117 211c-29.333 11.333 -52.5 29 -69.5 53s-25.5 51.667 -25.5 83c0 48 16 86.333 48 115s75 43 129 43h151zM239 427c-28.667 0 -51.167 -6.83301 -67.5 -20.5s-24.5 -33.5 -24.5 -59.5c0 -24 8.16699 -42.667 24.5 -56
s38.833 -20 67.5 -20h68v156h-68z" />
    <glyph glyph-name="uni0451" unicode="&#x451;" horiz-adv-x="553" 
d="M445 448c41.333 -44.667 62 -107.668 62 -189.001v-41h-383c3.33301 -46 19.166 -82.333 47.499 -109s64.5 -40 108.5 -40c70 0 115.333 27.333 136 82h86c-16 -51.333 -43.167 -91.166 -81.5 -119.499s-85.833 -42.5 -142.5 -42.5c-71.333 0 -129.666 24 -174.999 72
c-45.333 48.667 -68 112 -68 190c0 77.333 22.333 140.333 67 189c45.333 50 104 75 176 75c70 0 125.667 -22.333 167 -67zM174 396.499c-27.333 -25.667 -43.667 -59.5 -49 -101.5h295c-0.666992 42.667 -14 76.667 -40 102s-60 38 -102 38s-76.667 -12.833 -104 -38.5z
M390.999 673.499c10.667 -10.333 15.998 -23.166 15.998 -38.499s-5.33301 -28.166 -16 -38.499s-23.667 -15.5 -39 -15.5s-28.166 5.16699 -38.499 15.5s-15.5 23.166 -15.5 38.499s5.33301 28.166 16 38.499s23.334 15.5 38.001 15.5c15.333 0 28.333 -5.16699 39 -15.5z
M164.997 688.999c15.333 0 28 -5.33398 38 -16.001c10.667 -10 16 -22.667 16 -38s-5.33301 -28.333 -16 -39c-10 -10 -22.667 -15 -38 -15s-28.333 5 -39 15c-10.667 12 -16 25 -16 39c0 14.667 5.33301 27.334 16 38.001s23.667 16 39 16z" />
    <glyph glyph-name="uni0454" unicode="&#x454;" horiz-adv-x="544" 
d="M284 515c57.333 0 105.998 -14.6689 145.998 -44.002s66 -70.666 78 -123.999h-86c-10 28 -27.167 49.667 -51.5 65s-52.833 23 -85.5 23c-45.333 0 -83 -17.333 -113 -52c-21.333 -25.333 -35 -56.333 -41 -93h176v-71h-177c4.66699 -38 19 -70.667 43 -98
c30 -34.667 68 -52 114 -52c32 0 60.333 8 85 24s41.334 37.333 50.001 64h87c-13.333 -53.333 -40 -94.666 -80 -123.999s-88.333 -44 -145 -44c-71.333 0 -130 24.667 -176 74s-69 112 -69 188s23 139 69 189c46.667 50 105.334 75 176.001 75z" />
    <glyph glyph-name="uni0455" unicode="&#x455;" horiz-adv-x="441" 
d="M337 471c30.667 -28.667 46.6699 -67 48.0029 -115h-88c-0.666992 52.667 -27.334 79 -80.001 79c-24.667 0 -43.667 -6.16699 -57 -18.5s-20 -28.833 -20 -49.5c0 -20 6.5 -35 19.5 -45s38.167 -19.333 75.5 -28c60 -14 102.5 -32.5 127.5 -55.5
s37.5 -54.833 37.5 -95.5c0 -47.333 -16.333 -84.833 -49 -112.5s-75.334 -41.5 -128.001 -41.5c-56.667 0 -101.167 14.667 -133.5 44s-49.166 69.333 -50.499 120h88c1.33301 -56 34 -84 98 -84c27.333 0 48.666 6.16699 63.999 18.5s23 28.833 23 49.5
c0 21.333 -7.33301 37.833 -22 49.5s-42.334 22.167 -83.001 31.5c-54.667 12.667 -94.167 30 -118.5 52s-36.5 52.667 -36.5 92c0 42.667 14.667 78.667 44 108c30 30 71 45 123 45c48 0 87.333 -14.667 118 -44z" />
    <glyph glyph-name="uni0456" unicode="&#x456;" 
d="M164.5 618c-11.667 -11.333 -25.834 -17 -42.501 -17s-30.667 5.66699 -42 17s-17 25 -17 41c0 16.667 5.66699 30.667 17 42s25.333 17 42 17s30.834 -5.66699 42.501 -17s17.5 -25.333 17.5 -42c0 -16 -5.83301 -29.667 -17.5 -41zM165 0h-86v504h86v-504z" />
    <glyph glyph-name="uni0457" unicode="&#x457;" 
d="M255 673.5c10.667 -10.333 15.998 -23.166 15.998 -38.499s-5.33301 -28.166 -16 -38.499s-23.667 -15.5 -39 -15.5s-28.166 5.16699 -38.499 15.5s-15.5 23.166 -15.5 38.499s5.33301 28.166 16 38.499s23.334 15.5 38.001 15.5c15.333 0 28.333 -5.16699 39 -15.5z
M28.998 689c15.333 0 28 -5.33301 38 -16c10.667 -10 16 -22.667 16 -38s-5.33301 -28.333 -16 -39c-10 -10 -22.667 -15 -38 -15s-28.333 5 -39 15c-10.667 10.667 -16 23.667 -16 39s5.33301 28 16 38c10.667 10.667 23.667 16 39 16zM164.998 0h-86v504h86v-504z" />
    <glyph glyph-name="uni0458" unicode="&#x458;" 
d="M164.5 618c-11.667 -11.333 -25.834 -17 -42.501 -17s-30.667 5.66699 -42 17s-17 25 -17 41c0 16.667 5.66699 30.667 17 42s25.333 17 42 17s30.834 -5.66699 42.501 -17s17.5 -25.333 17.5 -42c0 -16 -5.83301 -29.667 -17.5 -41zM165 -55c0 -114 -50 -171 -150 -171
c-26 0 -48 2.66699 -66 8v79c17.333 -5.33301 35 -8 53 -8c28 0 47.833 7.5 59.5 22.5s17.5 38.833 17.5 71.5v557h86v-559z" />
    <glyph glyph-name="uni0490" unicode="&#x490;" horiz-adv-x="503" 
d="M480 824v-209h-312v-615h-91v700h319v124h84z" />
    <glyph glyph-name="uni0491" unicode="&#x491;" horiz-adv-x="427" 
d="M385 429h-2v-2h-228v-427h-82v505h228v131h84v-207z" />
    <glyph glyph-name="Wgrave" unicode="&#x1e80;" horiz-adv-x="988" 
d="M546 732h-96l-132 109h132zM746 0h-90l-151 486l-11 47l-11 -47l-151 -486h-90l-223 700h96l162 -509l12 -50l10 50l156 509h78l156 -509l10 -50l12 50l162 509h96z" />
    <glyph glyph-name="wgrave" unicode="&#x1e81;" horiz-adv-x="768" 
d="M427 574h-82l-143 158h113zM592 0h-87l-122 360l-123 -360h-84l-160 504h92l105 -352l10 -46l11 46l113 352h74l113 -352l11 -46l10 46l105 352h92z" />
    <glyph glyph-name="Wacute" unicode="&#x1e82;" horiz-adv-x="988" 
d="M536 732h-97l97 109h131zM746 0h-90l-151 486l-11 47l-11 -47l-151 -486h-90l-223 700h96l162 -509l12 -50l10 50l156 509h78l156 -509l10 -50l12 50l162 509h96z" />
    <glyph glyph-name="wacute" unicode="&#x1e83;" horiz-adv-x="768" 
d="M416 574h-82l111 158h114zM592 0h-87l-122 360l-123 -360h-84l-160 504h92l105 -352l10 -46l11 46l113 352h74l113 -352l11 -46l10 46l105 352h92z" />
    <glyph glyph-name="Wdieresis" unicode="&#x1e84;" horiz-adv-x="988" 
d="M438 748c-10.667 -10.667 -23.3311 -16.001 -37.998 -16.001c-16 -1.33301 -29.167 3.83398 -39.5 15.501s-15.5 25.167 -15.5 40.5c0 14 5.33301 26 16 36c10 10.667 22.333 16 37 16c15.333 0 28.666 -5.16699 39.999 -15.5s16.666 -23.166 15.999 -38.499
c0 -14.667 -5.33301 -27.334 -16 -38.001zM548.503 824.499c10.333 10.333 23.166 15.498 38.499 15.498s28.333 -5.16699 39 -15.5s16 -23.166 16 -38.499s-5.33301 -28.166 -16 -38.499s-23.667 -15.5 -39 -15.5s-28.166 5.33301 -38.499 16s-15.5 23.334 -15.5 38.001
c0 15.333 5.16699 28.166 15.5 38.499zM746.003 -0.00292969h-90l-151 486l-11 47l-11 -47l-151 -486h-90l-223 700h96l162 -509l12 -50l10 50l156 509h78l156 -509l10 -50l12 50l162 509h96z" />
    <glyph glyph-name="wdieresis" unicode="&#x1e85;" horiz-adv-x="768" 
d="M515 673.5c10.667 -10.333 15.998 -23.166 15.998 -38.499s-5.33301 -28.166 -16 -38.499s-23.667 -15.5 -39 -15.5s-28.166 5.16699 -38.499 15.5s-15.5 23.166 -15.5 38.499s5.33301 28.166 16 38.499s23.334 15.5 38.001 15.5c15.333 0 28.333 -5.16699 39 -15.5z
M288.998 689c15.333 0 28 -5.33398 38 -16.001c10.667 -10 16 -22.667 16 -38s-5.33301 -28.333 -16 -39c-10 -10 -22.667 -15 -38 -15c-14.667 0 -27.667 5 -39 15c-10.667 12 -16 25 -16 39c0 14.667 5.33301 27.334 16 38.001s23.667 16 39 16zM591.998 -0.000976562h-87
l-122 360l-123 -360h-84l-160 504h92l105 -352l10 -46l11 46l113 352h74l113 -352l11 -46l10 46l105 352h92z" />
    <glyph glyph-name="Ygrave" unicode="&#x1ef2;" horiz-adv-x="674" 
d="M389 732h-96l-132 109h132zM383 265v-265h-92v265l-277 435h107l189 -294l26 -47l27 47l190 294h107z" />
    <glyph glyph-name="ygrave" unicode="&#x1ef3;" horiz-adv-x="504" 
d="M295 574h-82l-143 158h113zM212 -215h-91l84 222l-189 497h92l133 -362l10 -38l10 38l133 362h93z" />
    <glyph glyph-name="endash" unicode="&#x2013;" horiz-adv-x="515" 
d="M490 221h-465v77h465v-77z" />
    <glyph glyph-name="emdash" unicode="&#x2014;" horiz-adv-x="705" 
d="M680 221h-655v77h655v-77z" />
    <glyph glyph-name="quoteleft" unicode="&#x2018;" horiz-adv-x="185" 
d="M133 720c-18.667 -34 -29.999 -71.666 -33.999 -112.999c16 -1.33301 29 -7.33301 39 -18s15 -24 15 -40c0 -16.667 -5.83301 -30.834 -17.5 -42.501s-25.834 -17.5 -42.501 -17.5c-17.333 0 -31.833 6.16699 -43.5 18.5s-17.5 28.166 -17.5 47.499
c0.666992 29.333 7.5 59.833 20.5 91.5s30.5 59.834 52.5 84.501z" />
    <glyph glyph-name="quoteright" unicode="&#x2019;" horiz-adv-x="185" 
d="M136 706c11.333 -12 16.999 -27.668 16.999 -47.001c0 -62.667 -24.333 -121.667 -73 -177l-28 11c18 33.333 29.667 71 35 113c-16 1.33301 -29.167 7.33301 -39.5 18s-15.5 24 -15.5 40c0 16.667 5.83301 30.834 17.5 42.501s25.834 17.5 42.501 17.5
c18 0 32.667 -6 44 -18z" />
    <glyph glyph-name="quotesinglbase" unicode="&#x201a;" horiz-adv-x="185" 
d="M136 92c11.333 -12 16.998 -27.666 16.998 -46.999c0 -29.333 -6.66699 -59.833 -20 -91.5s-31 -59.834 -53 -84.501l-28 11c18.667 34 30.334 71.667 35.001 113c-16 1.33301 -29.167 7.33301 -39.5 18s-15.5 24 -15.5 40c0 16.667 5.83301 30.667 17.5 42
s25.834 17 42.501 17c18 0 32.667 -6 44 -18z" />
    <glyph glyph-name="quotedblleft" unicode="&#x201c;" horiz-adv-x="364" 
d="M99 607c16 -1.33301 29.001 -7.33203 39.001 -17.999s15 -24 15 -40c0 -16.667 -5.83301 -30.834 -17.5 -42.501s-25.834 -17.5 -42.501 -17.5c-17.333 0 -31.833 6.16699 -43.5 18.5s-17.5 28.166 -17.5 47.499c0.666992 29.333 7.5 59.833 20.5 91.5
s30.5 59.834 52.5 84.501l28 -11c-18.667 -34 -30 -71.667 -34 -113zM277.001 607.001c16 -1.33301 29.001 -7.33203 39.001 -17.999s15 -24 15 -40c0 -16.667 -5.83301 -30.834 -17.5 -42.501s-25.834 -17.5 -42.501 -17.5c-17.333 0 -31.833 6.16699 -43.5 18.5
s-17.5 28.166 -17.5 47.499c0.666992 29.333 7.5 59.833 20.5 91.5s30.5 59.834 52.5 84.501l28 -11c-18.667 -34 -30 -71.667 -34 -113z" />
    <glyph glyph-name="quotedblright" unicode="&#x201d;" horiz-adv-x="364" 
d="M136 706c11.333 -12 16.999 -27.668 16.999 -47.001c0 -62.667 -24.333 -121.667 -73 -177l-28 11c18 33.333 29.667 71 35 113c-16 1.33301 -29.167 7.33301 -39.5 18s-15.5 24 -15.5 40c0 16.667 5.83301 30.834 17.5 42.501s25.834 17.5 42.501 17.5
c18 0 32.667 -6 44 -18zM313.999 705.999c11.333 -12 16.999 -27.668 16.999 -47.001c0 -62.667 -24.333 -121.667 -73 -177l-28 11c18 33.333 29.667 71 35 113c-16 1.33301 -29.167 7.33301 -39.5 18s-15.5 24 -15.5 40c0 16.667 5.83301 30.834 17.5 42.501
s25.834 17.5 42.501 17.5c18 0 32.667 -6 44 -18z" />
    <glyph glyph-name="quotedblbase" unicode="&#x201e;" horiz-adv-x="370" 
d="M136 92c11.333 -12 16.998 -27.666 16.998 -46.999c0 -29.333 -6.66699 -59.833 -20 -91.5s-31 -59.834 -53 -84.501l-28 11c18.667 34 30.334 71.667 35.001 113c-16 1.33301 -29.167 7.33301 -39.5 18s-15.5 24 -15.5 40c0 16.667 5.83301 30.667 17.5 42
s25.834 17 42.501 17c18 0 32.667 -6 44 -18zM320.998 92.001c11.333 -12 16.998 -27.666 16.998 -46.999c0 -29.333 -6.66699 -59.833 -20 -91.5s-31 -59.834 -53 -84.501l-28 11c18.667 34 30.334 71.667 35.001 113c-16 1.33301 -29.167 7.33301 -39.5 18
s-15.5 24 -15.5 40c0 16.667 5.83301 30.667 17.5 42s25.834 17 42.501 17c18 0 32.667 -6 44 -18z" />
    <glyph glyph-name="dagger" unicode="&#x2020;" horiz-adv-x="451" 
d="M269 530h165v-84h-165v-513h-87v513h-165v84h165v196h87v-196z" />
    <glyph glyph-name="daggerdbl" unicode="&#x2021;" horiz-adv-x="451" 
d="M269 530h165v-84h-165v-233h165v-84h-165v-196h-87v196h-165v84h165v233h-165v84h165v196h87v-196z" />
    <glyph glyph-name="bullet" unicode="&#x2022;" horiz-adv-x="355" 
d="M177 401c40 0 73.6689 -13.6689 101.002 -41.002s41 -61 41 -101s-13.667 -73.667 -41 -101c-26.667 -26.667 -60.334 -40 -101.001 -40s-74.334 13.333 -101.001 40s-40 60.334 -40 101.001s13.333 74.334 40 101.001c27.333 27.333 61 41 101 41z" />
    <glyph glyph-name="ellipsis" unicode="&#x2026;" horiz-adv-x="626" 
d="M145.5 7c-12.333 -12 -27.167 -18 -44.5 -18c-18 0 -33 6 -45 18s-18 26.667 -18 44c0 18 6 32.833 18 44.5s27 17.5 45 17.5s33 -5.83301 45 -17.5s18 -26.5 18 -44.5c0 -17.333 -6.16699 -32 -18.5 -44zM357.499 7c-12.333 -12 -27.168 -18 -44.501 -18
s-32.166 6 -44.499 18s-18.5 26.667 -18.5 44c0 18 6 32.833 18 44.5s27 17.5 45 17.5s33 -5.83301 45 -17.5s18 -26.5 18 -44.5c0 -17.333 -6.16699 -32 -18.5 -44zM569.497 7c-12.333 -12 -27.168 -18 -44.501 -18s-32.166 6 -44.499 18s-18.5 26.667 -18.5 44
c0 18 6 32.833 18 44.5s27 17.5 45 17.5s33 -5.83301 45 -17.5s18 -26.5 18 -44.5c0 -17.333 -6.16699 -32 -18.5 -44z" />
    <glyph glyph-name="perthousand" unicode="&#x2030;" horiz-adv-x="1232" 
d="M318 663c32 -32.667 48 -73.999 48 -123.999c0 -49.333 -16 -90.666 -48 -123.999c-32 -32.667 -72 -49 -120 -49c-48.667 0 -89 16.333 -121 49c-31.333 33.333 -47 74.666 -47 123.999s15.667 90.666 47 123.999c32 33.333 72.333 50 121 50c48 0 88 -16.667 120 -50z
M259 0.000976562h-95l420 700h95zM129 613.501c-18 -19.667 -27 -44.5 -27 -74.5c0 -29.333 9 -53.833 27 -73.5s41 -29.5 69 -29.5c27.333 0 49.833 9.83301 67.5 29.5s26.5 44.167 26.5 73.5c0 30 -8.83301 54.833 -26.5 74.5s-40.167 29.5 -67.5 29.5
c-28 0 -51 -9.83301 -69 -29.5zM765 284.001c32.667 -32.667 49 -74.334 49 -125.001c0 -49.333 -16 -90.666 -48 -123.999c-32 -32 -72 -48 -120 -48c-48.667 0 -89 16 -121 48c-32 33.333 -48 74.666 -48 123.999c0 50.667 16 92.334 48 125.001
c32 33.333 72.333 50 121 50c47.333 0 87 -16.667 119 -50zM1154 284.001c32.667 -32.667 49 -74.334 49 -125.001c0 -49.333 -16 -90.666 -48 -123.999c-32 -32 -72 -48 -120 -48c-48.667 0 -89 16 -121 48c-32 33.333 -48 74.666 -48 123.999
c0 50.667 16 92.334 48 125.001c32 33.333 72.333 50 121 50c47.333 0 87 -16.667 119 -50zM577 234.501c-18 -19.667 -27 -44.5 -27 -74.5c0 -29.333 9 -53.833 27 -73.5s41 -29.5 69 -29.5c27.333 0 49.833 9.83301 67.5 29.5s26.5 44.167 26.5 73.5
c0 30 -8.83301 54.833 -26.5 74.5s-40.167 29.5 -67.5 29.5c-28 0 -51 -9.83301 -69 -29.5zM966 234.501c-18 -19.667 -27 -44.5 -27 -74.5c0 -29.333 9 -53.833 27 -73.5s41 -29.5 69 -29.5c27.333 0 49.833 9.83301 67.5 29.5s26.5 44.167 26.5 73.5
c0 30 -8.83301 54.833 -26.5 74.5s-40.167 29.5 -67.5 29.5c-28 0 -51 -9.83301 -69 -29.5z" />
    <glyph glyph-name="guilsinglleft" unicode="&#x2039;" horiz-adv-x="258" 
d="M94 250l151 -195h-87l-145 187v17l145 187h87z" />
    <glyph glyph-name="guilsinglright" unicode="&#x203a;" horiz-adv-x="258" 
d="M245 259v-17l-145 -187h-87l151 195l-151 196h87z" />
    <glyph glyph-name="fraction" unicode="&#x2044;" horiz-adv-x="126" 
d="M-99 0h-95l420 700h95z" />
    <glyph glyph-name="zero.sups" unicode="&#x2070;" horiz-adv-x="367" 
d="M290.5 455c-25.667 -36 -61.5 -54 -107.5 -54s-81.667 18 -107 54s-38 86 -38 150c0 63.333 12.667 112.833 38 148.5s61 53.5 107 53.5s81.833 -18 107.5 -54s38.5 -85.333 38.5 -148c0 -64 -12.833 -114 -38.5 -150zM128 706.5c-12.667 -23.667 -19 -57.5 -19 -101.5
c0 -92.667 24.667 -139 74 -139c50 0 75 46.333 75 139c0 91.333 -25 137 -75 137c-24 0 -42.333 -11.833 -55 -35.5z" />
    <glyph glyph-name="four.sups" unicode="&#x2074;" horiz-adv-x="363" 
d="M275 543h56v-62h-56v-73h-70v73h-177v56l162 263h85v-257zM194 688l-91 -145h103v168z" />
    <glyph glyph-name="five.sups" unicode="&#x2075;" horiz-adv-x="349" 
d="M293 734l-165.999 -0.000976562v-92c16.667 8.66699 37.667 13 63 13c37.333 0 67.333 -10.667 90 -32s34 -50.666 34 -87.999c0 -40 -12.167 -72.333 -36.5 -97s-57.166 -37 -98.499 -37c-42 0 -74.833 10.333 -98.5 31s-35.5 50 -35.5 88h70c0 -36 21.333 -54 64 -54
c21.333 0 37.666 6 48.999 18s17 28.333 17 49c0 20 -5.83301 35.833 -17.5 47.5s-27.834 17.5 -48.501 17.5c-23.333 0 -43.333 -5.33301 -60 -16h-62v218h236v-66z" />
    <glyph glyph-name="six.sups" unicode="&#x2076;" horiz-adv-x="356" 
d="M275 775.5c23.333 -21 35.335 -48.5 36.002 -82.5h-70c-4 32.667 -23.333 49 -58 49c-49.333 0 -74.333 -41.333 -75 -124c19.333 23.333 47.666 35 84.999 35s67.666 -11.5 90.999 -34.5s35 -52.167 35 -87.5c0 -39.333 -12.5 -70.833 -37.5 -94.5
s-57.833 -35.5 -98.5 -35.5c-42 0 -76 14 -102 42c-29.333 31.333 -44 82.333 -44 153c0 140.667 49.667 211 149 211c36 0 65.667 -10.5 89 -31.5zM131.502 573c-13 -12.667 -19.5 -27.999 -19.5 -45.999c0 -16 6.33301 -30.333 19 -43s29 -19 49 -19c19.333 0 36 6 50 18
s20 27 18 45c0 18 -6.16699 32.833 -18.5 44.5s-28.5 17.5 -48.5 17.5c-20 1.33301 -36.5 -4.33398 -49.5 -17.001z" />
    <glyph glyph-name="seven.sups" unicode="&#x2077;" horiz-adv-x="309" 
d="M282 744l-161 -336h-76l156 324h-175v68h256v-56z" />
    <glyph glyph-name="eight.sups" unicode="&#x2078;" horiz-adv-x="352" 
d="M254 609c40 -20 60 -50 60 -90c0 -34 -13.167 -62.167 -39.5 -84.5s-59.166 -33.5 -98.499 -33.5s-72.166 11.167 -98.499 33.5s-39.5 50.5 -39.5 84.5c0 43.333 20 73.333 60 90c-32 18 -48 46 -48 84c0 32.667 11.667 59.834 35 81.501s53.666 32.5 90.999 32.5
s67.666 -10.833 90.999 -32.5s35 -48.834 35 -81.501c0 -38 -16 -66 -48 -84zM135 653c10.667 -10 24.334 -15 41.001 -15s30.334 5 41.001 15s16 22.667 16 38c0 16 -5.33301 29 -16 39s-24.334 15 -41.001 15s-30.334 -5 -41.001 -15s-16 -23 -16 -39
c0 -15.333 5.33301 -28 16 -38zM128.5 479c13 -10.667 28.833 -15.999 47.5 -15.999c20 0 36.333 5.33301 49 16s19 24.667 19 42s-6.66699 31.666 -20 42.999s-29.333 17 -48 17s-34.5 -5.5 -47.5 -16.5s-19.5 -25.5 -19.5 -43.5c0 -17.333 6.5 -31.333 19.5 -42z" />
    <glyph glyph-name="nine.sups" unicode="&#x2079;" horiz-adv-x="356" 
d="M276 768c28.667 -30.667 43 -82.667 43 -156c0 -140.667 -49.667 -211 -149 -211c-36 0 -65.5 10.5 -88.5 31.5s-34.833 48.5 -35.5 82.5h70c4 -32.667 23 -49 57 -49c49.333 0 74.333 42 75 126c-20 -22 -48.333 -33 -85 -33c-38 0 -68.5 11 -91.5 33
s-34.5 50.333 -34.5 85c0 39.333 12.5 70.833 37.5 94.5s57.833 35.5 98.5 35.5c44.667 0 79 -13 103 -39zM224.5 724c-13 12.667 -29.499 19 -49.499 19c-19.333 0 -35.333 -6.16699 -48 -18.5s-19 -27.833 -19 -46.5c0 -18 6.33301 -33.167 19 -45.5
s28.667 -18.5 48 -18.5s35.666 6.16699 48.999 18.5s20 27.5 20 45.5s-6.5 33.333 -19.5 46z" />
    <glyph glyph-name="n.sups" unicode="&#x207f;" horiz-adv-x="410" 
d="M320 675.5c20.667 -23 30.998 -54.168 30.998 -93.501v-223h-69v207c0 24.667 -6 43.667 -18 57s-28.667 20 -50 20c-23.333 0 -42.666 -8.66699 -57.999 -26s-23 -40.666 -23 -69.999v-188h-69v344h61l4 -48c22.667 36.667 57.334 55 104.001 55
c37.333 0 66.333 -11.5 87 -34.5z" />
    </font>
</defs>
</svg>
